G04 #@! TF.GenerationSoftware,KiCad,Pcbnew,5.0.2+dfsg1-1*
G04 #@! TF.CreationDate,2019-09-12T15:21:08-03:00*
G04 #@! TF.ProjectId,projeto1,70726f6a-6574-46f3-912e-6b696361645f,rev?*
G04 #@! TF.SameCoordinates,Original*
G04 #@! TF.FileFunction,Soldermask,Top*
G04 #@! TF.FilePolarity,Negative*
%FSLAX46Y46*%
G04 Gerber Fmt 4.6, Leading zero omitted, Abs format (unit mm)*
G04 Created by KiCad (PCBNEW 5.0.2+dfsg1-1) date qui 12 set 2019 15:21:08 -03*
%MOMM*%
%LPD*%
G01*
G04 APERTURE LIST*
%ADD10C,0.100000*%
G04 APERTURE END LIST*
D10*
G36*
X121806565Y-91489389D02*
X121997834Y-91568615D01*
X122169976Y-91683637D01*
X122316363Y-91830024D01*
X122431385Y-92002166D01*
X122510611Y-92193435D01*
X122551000Y-92396484D01*
X122551000Y-92603516D01*
X122510611Y-92806565D01*
X122431385Y-92997834D01*
X122316363Y-93169976D01*
X122169976Y-93316363D01*
X121997834Y-93431385D01*
X121806565Y-93510611D01*
X121603516Y-93551000D01*
X121396484Y-93551000D01*
X121193435Y-93510611D01*
X121002166Y-93431385D01*
X120830024Y-93316363D01*
X120683637Y-93169976D01*
X120568615Y-92997834D01*
X120489389Y-92806565D01*
X120449000Y-92603516D01*
X120449000Y-92396484D01*
X120489389Y-92193435D01*
X120568615Y-92002166D01*
X120683637Y-91830024D01*
X120830024Y-91683637D01*
X121002166Y-91568615D01*
X121193435Y-91489389D01*
X121396484Y-91449000D01*
X121603516Y-91449000D01*
X121806565Y-91489389D01*
X121806565Y-91489389D01*
G37*
G36*
X115306565Y-91489389D02*
X115497834Y-91568615D01*
X115669976Y-91683637D01*
X115816363Y-91830024D01*
X115931385Y-92002166D01*
X116010611Y-92193435D01*
X116051000Y-92396484D01*
X116051000Y-92603516D01*
X116010611Y-92806565D01*
X115931385Y-92997834D01*
X115816363Y-93169976D01*
X115669976Y-93316363D01*
X115497834Y-93431385D01*
X115306565Y-93510611D01*
X115103516Y-93551000D01*
X114896484Y-93551000D01*
X114693435Y-93510611D01*
X114502166Y-93431385D01*
X114330024Y-93316363D01*
X114183637Y-93169976D01*
X114068615Y-92997834D01*
X113989389Y-92806565D01*
X113949000Y-92603516D01*
X113949000Y-92396484D01*
X113989389Y-92193435D01*
X114068615Y-92002166D01*
X114183637Y-91830024D01*
X114330024Y-91683637D01*
X114502166Y-91568615D01*
X114693435Y-91489389D01*
X114896484Y-91449000D01*
X115103516Y-91449000D01*
X115306565Y-91489389D01*
X115306565Y-91489389D01*
G37*
G36*
X85661000Y-92901000D02*
X83859000Y-92901000D01*
X83859000Y-91099000D01*
X85661000Y-91099000D01*
X85661000Y-92901000D01*
X85661000Y-92901000D01*
G37*
G36*
X87410442Y-91105518D02*
X87476627Y-91112037D01*
X87589853Y-91146384D01*
X87646467Y-91163557D01*
X87785087Y-91237652D01*
X87802991Y-91247222D01*
X87838729Y-91276552D01*
X87940186Y-91359814D01*
X88013378Y-91449000D01*
X88052778Y-91497009D01*
X88052779Y-91497011D01*
X88136443Y-91653533D01*
X88136443Y-91653534D01*
X88187963Y-91823373D01*
X88205359Y-92000000D01*
X88187963Y-92176627D01*
X88182864Y-92193435D01*
X88136443Y-92346467D01*
X88109708Y-92396484D01*
X88052778Y-92502991D01*
X88023448Y-92538729D01*
X87940186Y-92640186D01*
X87838729Y-92723448D01*
X87802991Y-92752778D01*
X87802989Y-92752779D01*
X87646467Y-92836443D01*
X87589853Y-92853616D01*
X87476627Y-92887963D01*
X87410443Y-92894481D01*
X87344260Y-92901000D01*
X87255740Y-92901000D01*
X87189557Y-92894481D01*
X87123373Y-92887963D01*
X87010147Y-92853616D01*
X86953533Y-92836443D01*
X86797011Y-92752779D01*
X86797009Y-92752778D01*
X86761271Y-92723448D01*
X86659814Y-92640186D01*
X86576552Y-92538729D01*
X86547222Y-92502991D01*
X86490292Y-92396484D01*
X86463557Y-92346467D01*
X86417136Y-92193435D01*
X86412037Y-92176627D01*
X86394641Y-92000000D01*
X86412037Y-91823373D01*
X86463557Y-91653534D01*
X86463557Y-91653533D01*
X86547221Y-91497011D01*
X86547222Y-91497009D01*
X86586622Y-91449000D01*
X86659814Y-91359814D01*
X86761271Y-91276552D01*
X86797009Y-91247222D01*
X86814913Y-91237652D01*
X86953533Y-91163557D01*
X87010147Y-91146384D01*
X87123373Y-91112037D01*
X87189558Y-91105518D01*
X87255740Y-91099000D01*
X87344260Y-91099000D01*
X87410442Y-91105518D01*
X87410442Y-91105518D01*
G37*
G36*
X89950442Y-91105518D02*
X90016627Y-91112037D01*
X90129853Y-91146384D01*
X90186467Y-91163557D01*
X90325087Y-91237652D01*
X90342991Y-91247222D01*
X90378729Y-91276552D01*
X90480186Y-91359814D01*
X90553378Y-91449000D01*
X90592778Y-91497009D01*
X90592779Y-91497011D01*
X90676443Y-91653533D01*
X90676443Y-91653534D01*
X90727963Y-91823373D01*
X90745359Y-92000000D01*
X90727963Y-92176627D01*
X90722864Y-92193435D01*
X90676443Y-92346467D01*
X90649708Y-92396484D01*
X90592778Y-92502991D01*
X90563448Y-92538729D01*
X90480186Y-92640186D01*
X90378729Y-92723448D01*
X90342991Y-92752778D01*
X90342989Y-92752779D01*
X90186467Y-92836443D01*
X90129853Y-92853616D01*
X90016627Y-92887963D01*
X89950443Y-92894481D01*
X89884260Y-92901000D01*
X89795740Y-92901000D01*
X89729557Y-92894481D01*
X89663373Y-92887963D01*
X89550147Y-92853616D01*
X89493533Y-92836443D01*
X89337011Y-92752779D01*
X89337009Y-92752778D01*
X89301271Y-92723448D01*
X89199814Y-92640186D01*
X89116552Y-92538729D01*
X89087222Y-92502991D01*
X89030292Y-92396484D01*
X89003557Y-92346467D01*
X88957136Y-92193435D01*
X88952037Y-92176627D01*
X88934641Y-92000000D01*
X88952037Y-91823373D01*
X89003557Y-91653534D01*
X89003557Y-91653533D01*
X89087221Y-91497011D01*
X89087222Y-91497009D01*
X89126622Y-91449000D01*
X89199814Y-91359814D01*
X89301271Y-91276552D01*
X89337009Y-91247222D01*
X89354913Y-91237652D01*
X89493533Y-91163557D01*
X89550147Y-91146384D01*
X89663373Y-91112037D01*
X89729558Y-91105518D01*
X89795740Y-91099000D01*
X89884260Y-91099000D01*
X89950442Y-91105518D01*
X89950442Y-91105518D01*
G37*
G36*
X92490442Y-91105518D02*
X92556627Y-91112037D01*
X92669853Y-91146384D01*
X92726467Y-91163557D01*
X92865087Y-91237652D01*
X92882991Y-91247222D01*
X92918729Y-91276552D01*
X93020186Y-91359814D01*
X93093378Y-91449000D01*
X93132778Y-91497009D01*
X93132779Y-91497011D01*
X93216443Y-91653533D01*
X93216443Y-91653534D01*
X93267963Y-91823373D01*
X93285359Y-92000000D01*
X93267963Y-92176627D01*
X93262864Y-92193435D01*
X93216443Y-92346467D01*
X93189708Y-92396484D01*
X93132778Y-92502991D01*
X93103448Y-92538729D01*
X93020186Y-92640186D01*
X92918729Y-92723448D01*
X92882991Y-92752778D01*
X92882989Y-92752779D01*
X92726467Y-92836443D01*
X92669853Y-92853616D01*
X92556627Y-92887963D01*
X92490443Y-92894481D01*
X92424260Y-92901000D01*
X92335740Y-92901000D01*
X92269557Y-92894481D01*
X92203373Y-92887963D01*
X92090147Y-92853616D01*
X92033533Y-92836443D01*
X91877011Y-92752779D01*
X91877009Y-92752778D01*
X91841271Y-92723448D01*
X91739814Y-92640186D01*
X91656552Y-92538729D01*
X91627222Y-92502991D01*
X91570292Y-92396484D01*
X91543557Y-92346467D01*
X91497136Y-92193435D01*
X91492037Y-92176627D01*
X91474641Y-92000000D01*
X91492037Y-91823373D01*
X91543557Y-91653534D01*
X91543557Y-91653533D01*
X91627221Y-91497011D01*
X91627222Y-91497009D01*
X91666622Y-91449000D01*
X91739814Y-91359814D01*
X91841271Y-91276552D01*
X91877009Y-91247222D01*
X91894913Y-91237652D01*
X92033533Y-91163557D01*
X92090147Y-91146384D01*
X92203373Y-91112037D01*
X92269558Y-91105518D01*
X92335740Y-91099000D01*
X92424260Y-91099000D01*
X92490442Y-91105518D01*
X92490442Y-91105518D01*
G37*
G36*
X95030442Y-91105518D02*
X95096627Y-91112037D01*
X95209853Y-91146384D01*
X95266467Y-91163557D01*
X95405087Y-91237652D01*
X95422991Y-91247222D01*
X95458729Y-91276552D01*
X95560186Y-91359814D01*
X95633378Y-91449000D01*
X95672778Y-91497009D01*
X95672779Y-91497011D01*
X95756443Y-91653533D01*
X95756443Y-91653534D01*
X95807963Y-91823373D01*
X95825359Y-92000000D01*
X95807963Y-92176627D01*
X95802864Y-92193435D01*
X95756443Y-92346467D01*
X95729708Y-92396484D01*
X95672778Y-92502991D01*
X95643448Y-92538729D01*
X95560186Y-92640186D01*
X95458729Y-92723448D01*
X95422991Y-92752778D01*
X95422989Y-92752779D01*
X95266467Y-92836443D01*
X95209853Y-92853616D01*
X95096627Y-92887963D01*
X95030443Y-92894481D01*
X94964260Y-92901000D01*
X94875740Y-92901000D01*
X94809557Y-92894481D01*
X94743373Y-92887963D01*
X94630147Y-92853616D01*
X94573533Y-92836443D01*
X94417011Y-92752779D01*
X94417009Y-92752778D01*
X94381271Y-92723448D01*
X94279814Y-92640186D01*
X94196552Y-92538729D01*
X94167222Y-92502991D01*
X94110292Y-92396484D01*
X94083557Y-92346467D01*
X94037136Y-92193435D01*
X94032037Y-92176627D01*
X94014641Y-92000000D01*
X94032037Y-91823373D01*
X94083557Y-91653534D01*
X94083557Y-91653533D01*
X94167221Y-91497011D01*
X94167222Y-91497009D01*
X94206622Y-91449000D01*
X94279814Y-91359814D01*
X94381271Y-91276552D01*
X94417009Y-91247222D01*
X94434913Y-91237652D01*
X94573533Y-91163557D01*
X94630147Y-91146384D01*
X94743373Y-91112037D01*
X94809558Y-91105518D01*
X94875740Y-91099000D01*
X94964260Y-91099000D01*
X95030442Y-91105518D01*
X95030442Y-91105518D01*
G37*
G36*
X97570442Y-91105518D02*
X97636627Y-91112037D01*
X97749853Y-91146384D01*
X97806467Y-91163557D01*
X97945087Y-91237652D01*
X97962991Y-91247222D01*
X97998729Y-91276552D01*
X98100186Y-91359814D01*
X98173378Y-91449000D01*
X98212778Y-91497009D01*
X98212779Y-91497011D01*
X98296443Y-91653533D01*
X98296443Y-91653534D01*
X98347963Y-91823373D01*
X98365359Y-92000000D01*
X98347963Y-92176627D01*
X98342864Y-92193435D01*
X98296443Y-92346467D01*
X98269708Y-92396484D01*
X98212778Y-92502991D01*
X98183448Y-92538729D01*
X98100186Y-92640186D01*
X97998729Y-92723448D01*
X97962991Y-92752778D01*
X97962989Y-92752779D01*
X97806467Y-92836443D01*
X97749853Y-92853616D01*
X97636627Y-92887963D01*
X97570443Y-92894481D01*
X97504260Y-92901000D01*
X97415740Y-92901000D01*
X97349557Y-92894481D01*
X97283373Y-92887963D01*
X97170147Y-92853616D01*
X97113533Y-92836443D01*
X96957011Y-92752779D01*
X96957009Y-92752778D01*
X96921271Y-92723448D01*
X96819814Y-92640186D01*
X96736552Y-92538729D01*
X96707222Y-92502991D01*
X96650292Y-92396484D01*
X96623557Y-92346467D01*
X96577136Y-92193435D01*
X96572037Y-92176627D01*
X96554641Y-92000000D01*
X96572037Y-91823373D01*
X96623557Y-91653534D01*
X96623557Y-91653533D01*
X96707221Y-91497011D01*
X96707222Y-91497009D01*
X96746622Y-91449000D01*
X96819814Y-91359814D01*
X96921271Y-91276552D01*
X96957009Y-91247222D01*
X96974913Y-91237652D01*
X97113533Y-91163557D01*
X97170147Y-91146384D01*
X97283373Y-91112037D01*
X97349558Y-91105518D01*
X97415740Y-91099000D01*
X97504260Y-91099000D01*
X97570442Y-91105518D01*
X97570442Y-91105518D01*
G37*
G36*
X100110442Y-91105518D02*
X100176627Y-91112037D01*
X100289853Y-91146384D01*
X100346467Y-91163557D01*
X100485087Y-91237652D01*
X100502991Y-91247222D01*
X100538729Y-91276552D01*
X100640186Y-91359814D01*
X100713378Y-91449000D01*
X100752778Y-91497009D01*
X100752779Y-91497011D01*
X100836443Y-91653533D01*
X100836443Y-91653534D01*
X100887963Y-91823373D01*
X100905359Y-92000000D01*
X100887963Y-92176627D01*
X100882864Y-92193435D01*
X100836443Y-92346467D01*
X100809708Y-92396484D01*
X100752778Y-92502991D01*
X100723448Y-92538729D01*
X100640186Y-92640186D01*
X100538729Y-92723448D01*
X100502991Y-92752778D01*
X100502989Y-92752779D01*
X100346467Y-92836443D01*
X100289853Y-92853616D01*
X100176627Y-92887963D01*
X100110443Y-92894481D01*
X100044260Y-92901000D01*
X99955740Y-92901000D01*
X99889557Y-92894481D01*
X99823373Y-92887963D01*
X99710147Y-92853616D01*
X99653533Y-92836443D01*
X99497011Y-92752779D01*
X99497009Y-92752778D01*
X99461271Y-92723448D01*
X99359814Y-92640186D01*
X99276552Y-92538729D01*
X99247222Y-92502991D01*
X99190292Y-92396484D01*
X99163557Y-92346467D01*
X99117136Y-92193435D01*
X99112037Y-92176627D01*
X99094641Y-92000000D01*
X99112037Y-91823373D01*
X99163557Y-91653534D01*
X99163557Y-91653533D01*
X99247221Y-91497011D01*
X99247222Y-91497009D01*
X99286622Y-91449000D01*
X99359814Y-91359814D01*
X99461271Y-91276552D01*
X99497009Y-91247222D01*
X99514913Y-91237652D01*
X99653533Y-91163557D01*
X99710147Y-91146384D01*
X99823373Y-91112037D01*
X99889558Y-91105518D01*
X99955740Y-91099000D01*
X100044260Y-91099000D01*
X100110442Y-91105518D01*
X100110442Y-91105518D01*
G37*
G36*
X102650442Y-91105518D02*
X102716627Y-91112037D01*
X102829853Y-91146384D01*
X102886467Y-91163557D01*
X103025087Y-91237652D01*
X103042991Y-91247222D01*
X103078729Y-91276552D01*
X103180186Y-91359814D01*
X103253378Y-91449000D01*
X103292778Y-91497009D01*
X103292779Y-91497011D01*
X103376443Y-91653533D01*
X103376443Y-91653534D01*
X103427963Y-91823373D01*
X103445359Y-92000000D01*
X103427963Y-92176627D01*
X103422864Y-92193435D01*
X103376443Y-92346467D01*
X103349708Y-92396484D01*
X103292778Y-92502991D01*
X103263448Y-92538729D01*
X103180186Y-92640186D01*
X103078729Y-92723448D01*
X103042991Y-92752778D01*
X103042989Y-92752779D01*
X102886467Y-92836443D01*
X102829853Y-92853616D01*
X102716627Y-92887963D01*
X102650443Y-92894481D01*
X102584260Y-92901000D01*
X102495740Y-92901000D01*
X102429557Y-92894481D01*
X102363373Y-92887963D01*
X102250147Y-92853616D01*
X102193533Y-92836443D01*
X102037011Y-92752779D01*
X102037009Y-92752778D01*
X102001271Y-92723448D01*
X101899814Y-92640186D01*
X101816552Y-92538729D01*
X101787222Y-92502991D01*
X101730292Y-92396484D01*
X101703557Y-92346467D01*
X101657136Y-92193435D01*
X101652037Y-92176627D01*
X101634641Y-92000000D01*
X101652037Y-91823373D01*
X101703557Y-91653534D01*
X101703557Y-91653533D01*
X101787221Y-91497011D01*
X101787222Y-91497009D01*
X101826622Y-91449000D01*
X101899814Y-91359814D01*
X102001271Y-91276552D01*
X102037009Y-91247222D01*
X102054913Y-91237652D01*
X102193533Y-91163557D01*
X102250147Y-91146384D01*
X102363373Y-91112037D01*
X102429558Y-91105518D01*
X102495740Y-91099000D01*
X102584260Y-91099000D01*
X102650442Y-91105518D01*
X102650442Y-91105518D01*
G37*
G36*
X105190442Y-91105518D02*
X105256627Y-91112037D01*
X105369853Y-91146384D01*
X105426467Y-91163557D01*
X105565087Y-91237652D01*
X105582991Y-91247222D01*
X105618729Y-91276552D01*
X105720186Y-91359814D01*
X105793378Y-91449000D01*
X105832778Y-91497009D01*
X105832779Y-91497011D01*
X105916443Y-91653533D01*
X105916443Y-91653534D01*
X105967963Y-91823373D01*
X105985359Y-92000000D01*
X105967963Y-92176627D01*
X105962864Y-92193435D01*
X105916443Y-92346467D01*
X105889708Y-92396484D01*
X105832778Y-92502991D01*
X105803448Y-92538729D01*
X105720186Y-92640186D01*
X105618729Y-92723448D01*
X105582991Y-92752778D01*
X105582989Y-92752779D01*
X105426467Y-92836443D01*
X105369853Y-92853616D01*
X105256627Y-92887963D01*
X105190443Y-92894481D01*
X105124260Y-92901000D01*
X105035740Y-92901000D01*
X104969557Y-92894481D01*
X104903373Y-92887963D01*
X104790147Y-92853616D01*
X104733533Y-92836443D01*
X104577011Y-92752779D01*
X104577009Y-92752778D01*
X104541271Y-92723448D01*
X104439814Y-92640186D01*
X104356552Y-92538729D01*
X104327222Y-92502991D01*
X104270292Y-92396484D01*
X104243557Y-92346467D01*
X104197136Y-92193435D01*
X104192037Y-92176627D01*
X104174641Y-92000000D01*
X104192037Y-91823373D01*
X104243557Y-91653534D01*
X104243557Y-91653533D01*
X104327221Y-91497011D01*
X104327222Y-91497009D01*
X104366622Y-91449000D01*
X104439814Y-91359814D01*
X104541271Y-91276552D01*
X104577009Y-91247222D01*
X104594913Y-91237652D01*
X104733533Y-91163557D01*
X104790147Y-91146384D01*
X104903373Y-91112037D01*
X104969558Y-91105518D01*
X105035740Y-91099000D01*
X105124260Y-91099000D01*
X105190442Y-91105518D01*
X105190442Y-91105518D01*
G37*
G36*
X107730442Y-91105518D02*
X107796627Y-91112037D01*
X107909853Y-91146384D01*
X107966467Y-91163557D01*
X108105087Y-91237652D01*
X108122991Y-91247222D01*
X108158729Y-91276552D01*
X108260186Y-91359814D01*
X108333378Y-91449000D01*
X108372778Y-91497009D01*
X108372779Y-91497011D01*
X108456443Y-91653533D01*
X108456443Y-91653534D01*
X108507963Y-91823373D01*
X108525359Y-92000000D01*
X108507963Y-92176627D01*
X108502864Y-92193435D01*
X108456443Y-92346467D01*
X108429708Y-92396484D01*
X108372778Y-92502991D01*
X108343448Y-92538729D01*
X108260186Y-92640186D01*
X108158729Y-92723448D01*
X108122991Y-92752778D01*
X108122989Y-92752779D01*
X107966467Y-92836443D01*
X107909853Y-92853616D01*
X107796627Y-92887963D01*
X107730443Y-92894481D01*
X107664260Y-92901000D01*
X107575740Y-92901000D01*
X107509557Y-92894481D01*
X107443373Y-92887963D01*
X107330147Y-92853616D01*
X107273533Y-92836443D01*
X107117011Y-92752779D01*
X107117009Y-92752778D01*
X107081271Y-92723448D01*
X106979814Y-92640186D01*
X106896552Y-92538729D01*
X106867222Y-92502991D01*
X106810292Y-92396484D01*
X106783557Y-92346467D01*
X106737136Y-92193435D01*
X106732037Y-92176627D01*
X106714641Y-92000000D01*
X106732037Y-91823373D01*
X106783557Y-91653534D01*
X106783557Y-91653533D01*
X106867221Y-91497011D01*
X106867222Y-91497009D01*
X106906622Y-91449000D01*
X106979814Y-91359814D01*
X107081271Y-91276552D01*
X107117009Y-91247222D01*
X107134913Y-91237652D01*
X107273533Y-91163557D01*
X107330147Y-91146384D01*
X107443373Y-91112037D01*
X107509558Y-91105518D01*
X107575740Y-91099000D01*
X107664260Y-91099000D01*
X107730442Y-91105518D01*
X107730442Y-91105518D01*
G37*
G36*
X115306565Y-86989389D02*
X115497834Y-87068615D01*
X115669976Y-87183637D01*
X115816363Y-87330024D01*
X115931385Y-87502166D01*
X116010611Y-87693435D01*
X116051000Y-87896484D01*
X116051000Y-88103516D01*
X116010611Y-88306565D01*
X115931385Y-88497834D01*
X115816363Y-88669976D01*
X115669976Y-88816363D01*
X115497834Y-88931385D01*
X115306565Y-89010611D01*
X115103516Y-89051000D01*
X114896484Y-89051000D01*
X114693435Y-89010611D01*
X114502166Y-88931385D01*
X114330024Y-88816363D01*
X114183637Y-88669976D01*
X114068615Y-88497834D01*
X113989389Y-88306565D01*
X113949000Y-88103516D01*
X113949000Y-87896484D01*
X113989389Y-87693435D01*
X114068615Y-87502166D01*
X114183637Y-87330024D01*
X114330024Y-87183637D01*
X114502166Y-87068615D01*
X114693435Y-86989389D01*
X114896484Y-86949000D01*
X115103516Y-86949000D01*
X115306565Y-86989389D01*
X115306565Y-86989389D01*
G37*
G36*
X121806565Y-86989389D02*
X121997834Y-87068615D01*
X122169976Y-87183637D01*
X122316363Y-87330024D01*
X122431385Y-87502166D01*
X122510611Y-87693435D01*
X122551000Y-87896484D01*
X122551000Y-88103516D01*
X122510611Y-88306565D01*
X122431385Y-88497834D01*
X122316363Y-88669976D01*
X122169976Y-88816363D01*
X121997834Y-88931385D01*
X121806565Y-89010611D01*
X121603516Y-89051000D01*
X121396484Y-89051000D01*
X121193435Y-89010611D01*
X121002166Y-88931385D01*
X120830024Y-88816363D01*
X120683637Y-88669976D01*
X120568615Y-88497834D01*
X120489389Y-88306565D01*
X120449000Y-88103516D01*
X120449000Y-87896484D01*
X120489389Y-87693435D01*
X120568615Y-87502166D01*
X120683637Y-87330024D01*
X120830024Y-87183637D01*
X121002166Y-87068615D01*
X121193435Y-86989389D01*
X121396484Y-86949000D01*
X121603516Y-86949000D01*
X121806565Y-86989389D01*
X121806565Y-86989389D01*
G37*
G36*
X108638062Y-86078181D02*
X108672977Y-86088773D01*
X108705165Y-86105978D01*
X108733373Y-86129127D01*
X108756522Y-86157335D01*
X108773727Y-86189523D01*
X108784319Y-86224438D01*
X108788500Y-86266895D01*
X108788500Y-87733105D01*
X108784319Y-87775562D01*
X108773727Y-87810477D01*
X108756522Y-87842665D01*
X108733373Y-87870873D01*
X108705165Y-87894022D01*
X108672977Y-87911227D01*
X108638062Y-87921819D01*
X108595605Y-87926000D01*
X107454395Y-87926000D01*
X107411938Y-87921819D01*
X107377023Y-87911227D01*
X107344835Y-87894022D01*
X107316627Y-87870873D01*
X107293478Y-87842665D01*
X107276273Y-87810477D01*
X107265681Y-87775562D01*
X107261500Y-87733105D01*
X107261500Y-86266895D01*
X107265681Y-86224438D01*
X107276273Y-86189523D01*
X107293478Y-86157335D01*
X107316627Y-86129127D01*
X107344835Y-86105978D01*
X107377023Y-86088773D01*
X107411938Y-86078181D01*
X107454395Y-86074000D01*
X108595605Y-86074000D01*
X108638062Y-86078181D01*
X108638062Y-86078181D01*
G37*
G36*
X111613062Y-86078181D02*
X111647977Y-86088773D01*
X111680165Y-86105978D01*
X111708373Y-86129127D01*
X111731522Y-86157335D01*
X111748727Y-86189523D01*
X111759319Y-86224438D01*
X111763500Y-86266895D01*
X111763500Y-87733105D01*
X111759319Y-87775562D01*
X111748727Y-87810477D01*
X111731522Y-87842665D01*
X111708373Y-87870873D01*
X111680165Y-87894022D01*
X111647977Y-87911227D01*
X111613062Y-87921819D01*
X111570605Y-87926000D01*
X110429395Y-87926000D01*
X110386938Y-87921819D01*
X110352023Y-87911227D01*
X110319835Y-87894022D01*
X110291627Y-87870873D01*
X110268478Y-87842665D01*
X110251273Y-87810477D01*
X110240681Y-87775562D01*
X110236500Y-87733105D01*
X110236500Y-86266895D01*
X110240681Y-86224438D01*
X110251273Y-86189523D01*
X110268478Y-86157335D01*
X110291627Y-86129127D01*
X110319835Y-86105978D01*
X110352023Y-86088773D01*
X110386938Y-86078181D01*
X110429395Y-86074000D01*
X111570605Y-86074000D01*
X111613062Y-86078181D01*
X111613062Y-86078181D01*
G37*
G36*
X102326000Y-86501000D02*
X93674000Y-86501000D01*
X93674000Y-84899000D01*
X102326000Y-84899000D01*
X102326000Y-86501000D01*
X102326000Y-86501000D01*
G37*
G36*
X73110442Y-83185518D02*
X73176627Y-83192037D01*
X73289853Y-83226384D01*
X73346467Y-83243557D01*
X73485087Y-83317652D01*
X73502991Y-83327222D01*
X73538729Y-83356552D01*
X73640186Y-83439814D01*
X73710916Y-83526000D01*
X73752778Y-83577009D01*
X73752779Y-83577011D01*
X73836443Y-83733533D01*
X73836443Y-83733534D01*
X73887963Y-83903373D01*
X73905359Y-84080000D01*
X73887963Y-84256627D01*
X73866919Y-84326000D01*
X73836443Y-84426467D01*
X73762348Y-84565087D01*
X73752778Y-84582991D01*
X73723448Y-84618729D01*
X73640186Y-84720186D01*
X73538729Y-84803448D01*
X73502991Y-84832778D01*
X73502989Y-84832779D01*
X73346467Y-84916443D01*
X73289853Y-84933616D01*
X73176627Y-84967963D01*
X73110443Y-84974481D01*
X73044260Y-84981000D01*
X72955740Y-84981000D01*
X72889557Y-84974481D01*
X72823373Y-84967963D01*
X72710147Y-84933616D01*
X72653533Y-84916443D01*
X72497011Y-84832779D01*
X72497009Y-84832778D01*
X72461271Y-84803448D01*
X72359814Y-84720186D01*
X72276552Y-84618729D01*
X72247222Y-84582991D01*
X72237652Y-84565087D01*
X72163557Y-84426467D01*
X72133081Y-84326000D01*
X72112037Y-84256627D01*
X72094641Y-84080000D01*
X72112037Y-83903373D01*
X72163557Y-83733534D01*
X72163557Y-83733533D01*
X72247221Y-83577011D01*
X72247222Y-83577009D01*
X72289084Y-83526000D01*
X72359814Y-83439814D01*
X72461271Y-83356552D01*
X72497009Y-83327222D01*
X72514913Y-83317652D01*
X72653533Y-83243557D01*
X72710147Y-83226384D01*
X72823373Y-83192037D01*
X72889558Y-83185518D01*
X72955740Y-83179000D01*
X73044260Y-83179000D01*
X73110442Y-83185518D01*
X73110442Y-83185518D01*
G37*
G36*
X93101000Y-84326000D02*
X91499000Y-84326000D01*
X91499000Y-75674000D01*
X93101000Y-75674000D01*
X93101000Y-84326000D01*
X93101000Y-84326000D01*
G37*
G36*
X104501000Y-84326000D02*
X102899000Y-84326000D01*
X102899000Y-75674000D01*
X104501000Y-75674000D01*
X104501000Y-84326000D01*
X104501000Y-84326000D01*
G37*
G36*
X108413677Y-82253465D02*
X108451364Y-82264898D01*
X108486103Y-82283466D01*
X108516548Y-82308452D01*
X108541534Y-82338897D01*
X108560102Y-82373636D01*
X108571535Y-82411323D01*
X108576000Y-82456661D01*
X108576000Y-83543339D01*
X108571535Y-83588677D01*
X108560102Y-83626364D01*
X108541534Y-83661103D01*
X108516548Y-83691548D01*
X108486103Y-83716534D01*
X108451364Y-83735102D01*
X108413677Y-83746535D01*
X108368339Y-83751000D01*
X107531661Y-83751000D01*
X107486323Y-83746535D01*
X107448636Y-83735102D01*
X107413897Y-83716534D01*
X107383452Y-83691548D01*
X107358466Y-83661103D01*
X107339898Y-83626364D01*
X107328465Y-83588677D01*
X107324000Y-83543339D01*
X107324000Y-82456661D01*
X107328465Y-82411323D01*
X107339898Y-82373636D01*
X107358466Y-82338897D01*
X107383452Y-82308452D01*
X107413897Y-82283466D01*
X107448636Y-82264898D01*
X107486323Y-82253465D01*
X107531661Y-82249000D01*
X108368339Y-82249000D01*
X108413677Y-82253465D01*
X108413677Y-82253465D01*
G37*
G36*
X110463677Y-82253465D02*
X110501364Y-82264898D01*
X110536103Y-82283466D01*
X110566548Y-82308452D01*
X110591534Y-82338897D01*
X110610102Y-82373636D01*
X110621535Y-82411323D01*
X110626000Y-82456661D01*
X110626000Y-83543339D01*
X110621535Y-83588677D01*
X110610102Y-83626364D01*
X110591534Y-83661103D01*
X110566548Y-83691548D01*
X110536103Y-83716534D01*
X110501364Y-83735102D01*
X110463677Y-83746535D01*
X110418339Y-83751000D01*
X109581661Y-83751000D01*
X109536323Y-83746535D01*
X109498636Y-83735102D01*
X109463897Y-83716534D01*
X109433452Y-83691548D01*
X109408466Y-83661103D01*
X109389898Y-83626364D01*
X109378465Y-83588677D01*
X109374000Y-83543339D01*
X109374000Y-82456661D01*
X109378465Y-82411323D01*
X109389898Y-82373636D01*
X109408466Y-82338897D01*
X109433452Y-82308452D01*
X109463897Y-82283466D01*
X109498636Y-82264898D01*
X109536323Y-82253465D01*
X109581661Y-82249000D01*
X110418339Y-82249000D01*
X110463677Y-82253465D01*
X110463677Y-82253465D01*
G37*
G36*
X121501000Y-83301000D02*
X119599000Y-83301000D01*
X119599000Y-80199000D01*
X121501000Y-80199000D01*
X121501000Y-83301000D01*
X121501000Y-83301000D01*
G37*
G36*
X112613062Y-81078181D02*
X112647977Y-81088773D01*
X112680165Y-81105978D01*
X112708373Y-81129127D01*
X112731522Y-81157335D01*
X112748727Y-81189523D01*
X112759319Y-81224438D01*
X112763500Y-81266895D01*
X112763500Y-82733105D01*
X112759319Y-82775562D01*
X112748727Y-82810477D01*
X112731522Y-82842665D01*
X112708373Y-82870873D01*
X112680165Y-82894022D01*
X112647977Y-82911227D01*
X112613062Y-82921819D01*
X112570605Y-82926000D01*
X111429395Y-82926000D01*
X111386938Y-82921819D01*
X111352023Y-82911227D01*
X111319835Y-82894022D01*
X111291627Y-82870873D01*
X111268478Y-82842665D01*
X111251273Y-82810477D01*
X111240681Y-82775562D01*
X111236500Y-82733105D01*
X111236500Y-81266895D01*
X111240681Y-81224438D01*
X111251273Y-81189523D01*
X111268478Y-81157335D01*
X111291627Y-81129127D01*
X111319835Y-81105978D01*
X111352023Y-81088773D01*
X111386938Y-81078181D01*
X111429395Y-81074000D01*
X112570605Y-81074000D01*
X112613062Y-81078181D01*
X112613062Y-81078181D01*
G37*
G36*
X115588062Y-81078181D02*
X115622977Y-81088773D01*
X115655165Y-81105978D01*
X115683373Y-81129127D01*
X115706522Y-81157335D01*
X115723727Y-81189523D01*
X115734319Y-81224438D01*
X115738500Y-81266895D01*
X115738500Y-82733105D01*
X115734319Y-82775562D01*
X115723727Y-82810477D01*
X115706522Y-82842665D01*
X115683373Y-82870873D01*
X115655165Y-82894022D01*
X115622977Y-82911227D01*
X115588062Y-82921819D01*
X115545605Y-82926000D01*
X114404395Y-82926000D01*
X114361938Y-82921819D01*
X114327023Y-82911227D01*
X114294835Y-82894022D01*
X114266627Y-82870873D01*
X114243478Y-82842665D01*
X114226273Y-82810477D01*
X114215681Y-82775562D01*
X114211500Y-82733105D01*
X114211500Y-81266895D01*
X114215681Y-81224438D01*
X114226273Y-81189523D01*
X114243478Y-81157335D01*
X114266627Y-81129127D01*
X114294835Y-81105978D01*
X114327023Y-81088773D01*
X114361938Y-81078181D01*
X114404395Y-81074000D01*
X115545605Y-81074000D01*
X115588062Y-81078181D01*
X115588062Y-81078181D01*
G37*
G36*
X73110443Y-80645519D02*
X73176627Y-80652037D01*
X73289853Y-80686384D01*
X73346467Y-80703557D01*
X73485087Y-80777652D01*
X73502991Y-80787222D01*
X73538729Y-80816552D01*
X73640186Y-80899814D01*
X73723448Y-81001271D01*
X73752778Y-81037009D01*
X73752779Y-81037011D01*
X73836443Y-81193533D01*
X73836443Y-81193534D01*
X73887963Y-81363373D01*
X73905359Y-81540000D01*
X73887963Y-81716627D01*
X73853616Y-81829853D01*
X73836443Y-81886467D01*
X73762348Y-82025087D01*
X73752778Y-82042991D01*
X73727329Y-82074000D01*
X73640186Y-82180186D01*
X73550894Y-82253465D01*
X73502991Y-82292778D01*
X73502989Y-82292779D01*
X73346467Y-82376443D01*
X73289853Y-82393616D01*
X73176627Y-82427963D01*
X73110442Y-82434482D01*
X73044260Y-82441000D01*
X72955740Y-82441000D01*
X72889558Y-82434482D01*
X72823373Y-82427963D01*
X72710147Y-82393616D01*
X72653533Y-82376443D01*
X72497011Y-82292779D01*
X72497009Y-82292778D01*
X72449106Y-82253465D01*
X72359814Y-82180186D01*
X72272671Y-82074000D01*
X72247222Y-82042991D01*
X72237652Y-82025087D01*
X72163557Y-81886467D01*
X72146384Y-81829853D01*
X72112037Y-81716627D01*
X72094641Y-81540000D01*
X72112037Y-81363373D01*
X72163557Y-81193534D01*
X72163557Y-81193533D01*
X72247221Y-81037011D01*
X72247222Y-81037009D01*
X72276552Y-81001271D01*
X72359814Y-80899814D01*
X72461271Y-80816552D01*
X72497009Y-80787222D01*
X72514913Y-80777652D01*
X72653533Y-80703557D01*
X72710147Y-80686384D01*
X72823373Y-80652037D01*
X72889557Y-80645519D01*
X72955740Y-80639000D01*
X73044260Y-80639000D01*
X73110443Y-80645519D01*
X73110443Y-80645519D01*
G37*
G36*
X123010721Y-79470174D02*
X123110995Y-79511709D01*
X123201245Y-79572012D01*
X123277988Y-79648755D01*
X123338291Y-79739005D01*
X123379826Y-79839279D01*
X123401000Y-79945730D01*
X123401000Y-80054270D01*
X123379826Y-80160721D01*
X123338291Y-80260995D01*
X123277988Y-80351245D01*
X123201245Y-80427988D01*
X123110995Y-80488291D01*
X123010721Y-80529826D01*
X122904270Y-80551000D01*
X122795730Y-80551000D01*
X122689279Y-80529826D01*
X122589005Y-80488291D01*
X122498755Y-80427988D01*
X122422012Y-80351245D01*
X122361709Y-80260995D01*
X122320174Y-80160721D01*
X122299000Y-80054270D01*
X122299000Y-79945730D01*
X122320174Y-79839279D01*
X122361709Y-79739005D01*
X122422012Y-79648755D01*
X122498755Y-79572012D01*
X122589005Y-79511709D01*
X122689279Y-79470174D01*
X122795730Y-79449000D01*
X122904270Y-79449000D01*
X123010721Y-79470174D01*
X123010721Y-79470174D01*
G37*
G36*
X73110442Y-78105518D02*
X73176627Y-78112037D01*
X73289853Y-78146384D01*
X73346467Y-78163557D01*
X73482932Y-78236500D01*
X73502991Y-78247222D01*
X73528891Y-78268478D01*
X73640186Y-78359814D01*
X73699365Y-78431925D01*
X73752778Y-78497009D01*
X73752779Y-78497011D01*
X73836443Y-78653533D01*
X73841904Y-78671535D01*
X73887963Y-78823373D01*
X73905359Y-79000000D01*
X73887963Y-79176627D01*
X73853616Y-79289853D01*
X73836443Y-79346467D01*
X73781637Y-79449000D01*
X73752778Y-79502991D01*
X73745623Y-79511709D01*
X73640186Y-79640186D01*
X73544939Y-79718352D01*
X73502991Y-79752778D01*
X73502989Y-79752779D01*
X73346467Y-79836443D01*
X73289853Y-79853616D01*
X73176627Y-79887963D01*
X73110442Y-79894482D01*
X73044260Y-79901000D01*
X72955740Y-79901000D01*
X72889558Y-79894482D01*
X72823373Y-79887963D01*
X72710147Y-79853616D01*
X72653533Y-79836443D01*
X72497011Y-79752779D01*
X72497009Y-79752778D01*
X72455061Y-79718352D01*
X72359814Y-79640186D01*
X72254377Y-79511709D01*
X72247222Y-79502991D01*
X72218363Y-79449000D01*
X72163557Y-79346467D01*
X72146384Y-79289853D01*
X72112037Y-79176627D01*
X72094641Y-79000000D01*
X72112037Y-78823373D01*
X72158096Y-78671535D01*
X72163557Y-78653533D01*
X72247221Y-78497011D01*
X72247222Y-78497009D01*
X72300635Y-78431925D01*
X72359814Y-78359814D01*
X72471109Y-78268478D01*
X72497009Y-78247222D01*
X72517068Y-78236500D01*
X72653533Y-78163557D01*
X72710147Y-78146384D01*
X72823373Y-78112037D01*
X72889558Y-78105518D01*
X72955740Y-78099000D01*
X73044260Y-78099000D01*
X73110442Y-78105518D01*
X73110442Y-78105518D01*
G37*
G36*
X108775562Y-78240681D02*
X108810477Y-78251273D01*
X108842665Y-78268478D01*
X108870873Y-78291627D01*
X108894022Y-78319835D01*
X108911227Y-78352023D01*
X108921819Y-78386938D01*
X108926000Y-78429395D01*
X108926000Y-79570605D01*
X108921819Y-79613062D01*
X108911227Y-79647977D01*
X108894022Y-79680165D01*
X108870873Y-79708373D01*
X108842665Y-79731522D01*
X108810477Y-79748727D01*
X108775562Y-79759319D01*
X108733105Y-79763500D01*
X107266895Y-79763500D01*
X107224438Y-79759319D01*
X107189523Y-79748727D01*
X107157335Y-79731522D01*
X107129127Y-79708373D01*
X107105978Y-79680165D01*
X107088773Y-79647977D01*
X107078181Y-79613062D01*
X107074000Y-79570605D01*
X107074000Y-78429395D01*
X107078181Y-78386938D01*
X107088773Y-78352023D01*
X107105978Y-78319835D01*
X107129127Y-78291627D01*
X107157335Y-78268478D01*
X107189523Y-78251273D01*
X107224438Y-78240681D01*
X107266895Y-78236500D01*
X108733105Y-78236500D01*
X108775562Y-78240681D01*
X108775562Y-78240681D01*
G37*
G36*
X120201000Y-78901000D02*
X118599000Y-78901000D01*
X118599000Y-75099000D01*
X120201000Y-75099000D01*
X120201000Y-78901000D01*
X120201000Y-78901000D01*
G37*
G36*
X88588677Y-77428465D02*
X88626364Y-77439898D01*
X88661103Y-77458466D01*
X88691548Y-77483452D01*
X88716534Y-77513897D01*
X88735102Y-77548636D01*
X88746535Y-77586323D01*
X88751000Y-77631661D01*
X88751000Y-78468339D01*
X88746535Y-78513677D01*
X88735102Y-78551364D01*
X88716534Y-78586103D01*
X88691548Y-78616548D01*
X88661103Y-78641534D01*
X88626364Y-78660102D01*
X88588677Y-78671535D01*
X88543339Y-78676000D01*
X87456661Y-78676000D01*
X87411323Y-78671535D01*
X87373636Y-78660102D01*
X87338897Y-78641534D01*
X87308452Y-78616548D01*
X87283466Y-78586103D01*
X87264898Y-78551364D01*
X87253465Y-78513677D01*
X87249000Y-78468339D01*
X87249000Y-77631661D01*
X87253465Y-77586323D01*
X87264898Y-77548636D01*
X87283466Y-77513897D01*
X87308452Y-77483452D01*
X87338897Y-77458466D01*
X87373636Y-77439898D01*
X87411323Y-77428465D01*
X87456661Y-77424000D01*
X88543339Y-77424000D01*
X88588677Y-77428465D01*
X88588677Y-77428465D01*
G37*
G36*
X78588677Y-77428465D02*
X78626364Y-77439898D01*
X78661103Y-77458466D01*
X78691548Y-77483452D01*
X78716534Y-77513897D01*
X78735102Y-77548636D01*
X78746535Y-77586323D01*
X78751000Y-77631661D01*
X78751000Y-78468339D01*
X78746535Y-78513677D01*
X78735102Y-78551364D01*
X78716534Y-78586103D01*
X78691548Y-78616548D01*
X78661103Y-78641534D01*
X78626364Y-78660102D01*
X78588677Y-78671535D01*
X78543339Y-78676000D01*
X77456661Y-78676000D01*
X77411323Y-78671535D01*
X77373636Y-78660102D01*
X77338897Y-78641534D01*
X77308452Y-78616548D01*
X77283466Y-78586103D01*
X77264898Y-78551364D01*
X77253465Y-78513677D01*
X77249000Y-78468339D01*
X77249000Y-77631661D01*
X77253465Y-77586323D01*
X77264898Y-77548636D01*
X77283466Y-77513897D01*
X77308452Y-77483452D01*
X77338897Y-77458466D01*
X77373636Y-77439898D01*
X77411323Y-77428465D01*
X77456661Y-77424000D01*
X78543339Y-77424000D01*
X78588677Y-77428465D01*
X78588677Y-77428465D01*
G37*
G36*
X83588677Y-77428465D02*
X83626364Y-77439898D01*
X83661103Y-77458466D01*
X83691548Y-77483452D01*
X83716534Y-77513897D01*
X83735102Y-77548636D01*
X83746535Y-77586323D01*
X83751000Y-77631661D01*
X83751000Y-78468339D01*
X83746535Y-78513677D01*
X83735102Y-78551364D01*
X83716534Y-78586103D01*
X83691548Y-78616548D01*
X83661103Y-78641534D01*
X83626364Y-78660102D01*
X83588677Y-78671535D01*
X83543339Y-78676000D01*
X82456661Y-78676000D01*
X82411323Y-78671535D01*
X82373636Y-78660102D01*
X82338897Y-78641534D01*
X82308452Y-78616548D01*
X82283466Y-78586103D01*
X82264898Y-78551364D01*
X82253465Y-78513677D01*
X82249000Y-78468339D01*
X82249000Y-77631661D01*
X82253465Y-77586323D01*
X82264898Y-77548636D01*
X82283466Y-77513897D01*
X82308452Y-77483452D01*
X82338897Y-77458466D01*
X82373636Y-77439898D01*
X82411323Y-77428465D01*
X82456661Y-77424000D01*
X83543339Y-77424000D01*
X83588677Y-77428465D01*
X83588677Y-77428465D01*
G37*
G36*
X113588677Y-77403465D02*
X113626364Y-77414898D01*
X113661103Y-77433466D01*
X113691548Y-77458452D01*
X113716534Y-77488897D01*
X113735102Y-77523636D01*
X113746535Y-77561323D01*
X113751000Y-77606661D01*
X113751000Y-78443339D01*
X113746535Y-78488677D01*
X113735102Y-78526364D01*
X113716534Y-78561103D01*
X113691548Y-78591548D01*
X113661103Y-78616534D01*
X113626364Y-78635102D01*
X113588677Y-78646535D01*
X113543339Y-78651000D01*
X112456661Y-78651000D01*
X112411323Y-78646535D01*
X112373636Y-78635102D01*
X112338897Y-78616534D01*
X112308452Y-78591548D01*
X112283466Y-78561103D01*
X112264898Y-78526364D01*
X112253465Y-78488677D01*
X112249000Y-78443339D01*
X112249000Y-77606661D01*
X112253465Y-77561323D01*
X112264898Y-77523636D01*
X112283466Y-77488897D01*
X112308452Y-77458452D01*
X112338897Y-77433466D01*
X112373636Y-77414898D01*
X112411323Y-77403465D01*
X112456661Y-77399000D01*
X113543339Y-77399000D01*
X113588677Y-77403465D01*
X113588677Y-77403465D01*
G37*
G36*
X73110443Y-75565519D02*
X73176627Y-75572037D01*
X73289853Y-75606384D01*
X73346467Y-75623557D01*
X73485087Y-75697652D01*
X73502991Y-75707222D01*
X73538729Y-75736552D01*
X73640186Y-75819814D01*
X73705171Y-75899000D01*
X73752778Y-75957009D01*
X73752779Y-75957011D01*
X73836443Y-76113533D01*
X73836443Y-76113534D01*
X73887963Y-76283373D01*
X73905359Y-76460000D01*
X73887963Y-76636627D01*
X73876936Y-76672977D01*
X73836443Y-76806467D01*
X73762348Y-76945087D01*
X73752778Y-76962991D01*
X73723448Y-76998729D01*
X73640186Y-77100186D01*
X73538729Y-77183448D01*
X73502991Y-77212778D01*
X73502989Y-77212779D01*
X73346467Y-77296443D01*
X73331444Y-77301000D01*
X73176627Y-77347963D01*
X73110443Y-77354481D01*
X73044260Y-77361000D01*
X72955740Y-77361000D01*
X72889557Y-77354481D01*
X72823373Y-77347963D01*
X72668556Y-77301000D01*
X72653533Y-77296443D01*
X72497011Y-77212779D01*
X72497009Y-77212778D01*
X72461271Y-77183448D01*
X72359814Y-77100186D01*
X72276552Y-76998729D01*
X72247222Y-76962991D01*
X72237652Y-76945087D01*
X72163557Y-76806467D01*
X72123064Y-76672977D01*
X72112037Y-76636627D01*
X72094641Y-76460000D01*
X72112037Y-76283373D01*
X72163557Y-76113534D01*
X72163557Y-76113533D01*
X72247221Y-75957011D01*
X72247222Y-75957009D01*
X72294829Y-75899000D01*
X72359814Y-75819814D01*
X72461271Y-75736552D01*
X72497009Y-75707222D01*
X72514913Y-75697652D01*
X72653533Y-75623557D01*
X72710147Y-75606384D01*
X72823373Y-75572037D01*
X72889557Y-75565519D01*
X72955740Y-75559000D01*
X73044260Y-75559000D01*
X73110443Y-75565519D01*
X73110443Y-75565519D01*
G37*
G36*
X108775562Y-75265681D02*
X108810477Y-75276273D01*
X108842665Y-75293478D01*
X108870873Y-75316627D01*
X108894022Y-75344835D01*
X108911227Y-75377023D01*
X108921819Y-75411938D01*
X108926000Y-75454395D01*
X108926000Y-76595605D01*
X108921819Y-76638062D01*
X108911227Y-76672977D01*
X108894022Y-76705165D01*
X108870873Y-76733373D01*
X108842665Y-76756522D01*
X108810477Y-76773727D01*
X108775562Y-76784319D01*
X108733105Y-76788500D01*
X107266895Y-76788500D01*
X107224438Y-76784319D01*
X107189523Y-76773727D01*
X107157335Y-76756522D01*
X107129127Y-76733373D01*
X107105978Y-76705165D01*
X107088773Y-76672977D01*
X107078181Y-76638062D01*
X107074000Y-76595605D01*
X107074000Y-75454395D01*
X107078181Y-75411938D01*
X107088773Y-75377023D01*
X107105978Y-75344835D01*
X107129127Y-75316627D01*
X107157335Y-75293478D01*
X107189523Y-75276273D01*
X107224438Y-75265681D01*
X107266895Y-75261500D01*
X108733105Y-75261500D01*
X108775562Y-75265681D01*
X108775562Y-75265681D01*
G37*
G36*
X78588677Y-75378465D02*
X78626364Y-75389898D01*
X78661103Y-75408466D01*
X78691548Y-75433452D01*
X78716534Y-75463897D01*
X78735102Y-75498636D01*
X78746535Y-75536323D01*
X78751000Y-75581661D01*
X78751000Y-76418339D01*
X78746535Y-76463677D01*
X78735102Y-76501364D01*
X78716534Y-76536103D01*
X78691548Y-76566548D01*
X78661103Y-76591534D01*
X78626364Y-76610102D01*
X78588677Y-76621535D01*
X78543339Y-76626000D01*
X77456661Y-76626000D01*
X77411323Y-76621535D01*
X77373636Y-76610102D01*
X77338897Y-76591534D01*
X77308452Y-76566548D01*
X77283466Y-76536103D01*
X77264898Y-76501364D01*
X77253465Y-76463677D01*
X77249000Y-76418339D01*
X77249000Y-75581661D01*
X77253465Y-75536323D01*
X77264898Y-75498636D01*
X77283466Y-75463897D01*
X77308452Y-75433452D01*
X77338897Y-75408466D01*
X77373636Y-75389898D01*
X77411323Y-75378465D01*
X77456661Y-75374000D01*
X78543339Y-75374000D01*
X78588677Y-75378465D01*
X78588677Y-75378465D01*
G37*
G36*
X88588677Y-75378465D02*
X88626364Y-75389898D01*
X88661103Y-75408466D01*
X88691548Y-75433452D01*
X88716534Y-75463897D01*
X88735102Y-75498636D01*
X88746535Y-75536323D01*
X88751000Y-75581661D01*
X88751000Y-76418339D01*
X88746535Y-76463677D01*
X88735102Y-76501364D01*
X88716534Y-76536103D01*
X88691548Y-76566548D01*
X88661103Y-76591534D01*
X88626364Y-76610102D01*
X88588677Y-76621535D01*
X88543339Y-76626000D01*
X87456661Y-76626000D01*
X87411323Y-76621535D01*
X87373636Y-76610102D01*
X87338897Y-76591534D01*
X87308452Y-76566548D01*
X87283466Y-76536103D01*
X87264898Y-76501364D01*
X87253465Y-76463677D01*
X87249000Y-76418339D01*
X87249000Y-75581661D01*
X87253465Y-75536323D01*
X87264898Y-75498636D01*
X87283466Y-75463897D01*
X87308452Y-75433452D01*
X87338897Y-75408466D01*
X87373636Y-75389898D01*
X87411323Y-75378465D01*
X87456661Y-75374000D01*
X88543339Y-75374000D01*
X88588677Y-75378465D01*
X88588677Y-75378465D01*
G37*
G36*
X83588677Y-75378465D02*
X83626364Y-75389898D01*
X83661103Y-75408466D01*
X83691548Y-75433452D01*
X83716534Y-75463897D01*
X83735102Y-75498636D01*
X83746535Y-75536323D01*
X83751000Y-75581661D01*
X83751000Y-76418339D01*
X83746535Y-76463677D01*
X83735102Y-76501364D01*
X83716534Y-76536103D01*
X83691548Y-76566548D01*
X83661103Y-76591534D01*
X83626364Y-76610102D01*
X83588677Y-76621535D01*
X83543339Y-76626000D01*
X82456661Y-76626000D01*
X82411323Y-76621535D01*
X82373636Y-76610102D01*
X82338897Y-76591534D01*
X82308452Y-76566548D01*
X82283466Y-76536103D01*
X82264898Y-76501364D01*
X82253465Y-76463677D01*
X82249000Y-76418339D01*
X82249000Y-75581661D01*
X82253465Y-75536323D01*
X82264898Y-75498636D01*
X82283466Y-75463897D01*
X82308452Y-75433452D01*
X82338897Y-75408466D01*
X82373636Y-75389898D01*
X82411323Y-75378465D01*
X82456661Y-75374000D01*
X83543339Y-75374000D01*
X83588677Y-75378465D01*
X83588677Y-75378465D01*
G37*
G36*
X113588677Y-75353465D02*
X113626364Y-75364898D01*
X113661103Y-75383466D01*
X113691548Y-75408452D01*
X113716534Y-75438897D01*
X113735102Y-75473636D01*
X113746535Y-75511323D01*
X113751000Y-75556661D01*
X113751000Y-76393339D01*
X113746535Y-76438677D01*
X113735102Y-76476364D01*
X113716534Y-76511103D01*
X113691548Y-76541548D01*
X113661103Y-76566534D01*
X113626364Y-76585102D01*
X113588677Y-76596535D01*
X113543339Y-76601000D01*
X112456661Y-76601000D01*
X112411323Y-76596535D01*
X112373636Y-76585102D01*
X112338897Y-76566534D01*
X112308452Y-76541548D01*
X112283466Y-76511103D01*
X112264898Y-76476364D01*
X112253465Y-76438677D01*
X112249000Y-76393339D01*
X112249000Y-75556661D01*
X112253465Y-75511323D01*
X112264898Y-75473636D01*
X112283466Y-75438897D01*
X112308452Y-75408452D01*
X112338897Y-75383466D01*
X112373636Y-75364898D01*
X112411323Y-75353465D01*
X112456661Y-75349000D01*
X113543339Y-75349000D01*
X113588677Y-75353465D01*
X113588677Y-75353465D01*
G37*
G36*
X102326000Y-75101000D02*
X93674000Y-75101000D01*
X93674000Y-73499000D01*
X102326000Y-73499000D01*
X102326000Y-75101000D01*
X102326000Y-75101000D01*
G37*
G36*
X73110442Y-73025518D02*
X73176627Y-73032037D01*
X73289853Y-73066384D01*
X73346467Y-73083557D01*
X73485087Y-73157652D01*
X73502991Y-73167222D01*
X73538729Y-73196552D01*
X73640186Y-73279814D01*
X73723448Y-73381271D01*
X73752778Y-73417009D01*
X73752779Y-73417011D01*
X73836443Y-73573533D01*
X73841037Y-73588677D01*
X73887963Y-73743373D01*
X73905359Y-73920000D01*
X73887963Y-74096627D01*
X73868520Y-74160721D01*
X73836443Y-74266467D01*
X73762348Y-74405087D01*
X73752778Y-74422991D01*
X73748675Y-74427990D01*
X73640186Y-74560186D01*
X73538729Y-74643448D01*
X73502991Y-74672778D01*
X73502989Y-74672779D01*
X73346467Y-74756443D01*
X73289853Y-74773616D01*
X73176627Y-74807963D01*
X73110443Y-74814481D01*
X73044260Y-74821000D01*
X72955740Y-74821000D01*
X72889557Y-74814481D01*
X72823373Y-74807963D01*
X72710147Y-74773616D01*
X72653533Y-74756443D01*
X72497011Y-74672779D01*
X72497009Y-74672778D01*
X72461271Y-74643448D01*
X72359814Y-74560186D01*
X72251325Y-74427990D01*
X72247222Y-74422991D01*
X72237652Y-74405087D01*
X72163557Y-74266467D01*
X72131480Y-74160721D01*
X72112037Y-74096627D01*
X72094641Y-73920000D01*
X72112037Y-73743373D01*
X72158963Y-73588677D01*
X72163557Y-73573533D01*
X72247221Y-73417011D01*
X72247222Y-73417009D01*
X72276552Y-73381271D01*
X72359814Y-73279814D01*
X72461271Y-73196552D01*
X72497009Y-73167222D01*
X72514913Y-73157652D01*
X72653533Y-73083557D01*
X72710147Y-73066384D01*
X72823373Y-73032037D01*
X72889558Y-73025518D01*
X72955740Y-73019000D01*
X73044260Y-73019000D01*
X73110442Y-73025518D01*
X73110442Y-73025518D01*
G37*
G36*
X123010721Y-73470174D02*
X123110995Y-73511709D01*
X123201245Y-73572012D01*
X123277988Y-73648755D01*
X123338291Y-73739005D01*
X123379826Y-73839279D01*
X123401000Y-73945730D01*
X123401000Y-74054270D01*
X123379826Y-74160721D01*
X123338291Y-74260995D01*
X123277988Y-74351245D01*
X123201245Y-74427988D01*
X123110995Y-74488291D01*
X123010721Y-74529826D01*
X122904270Y-74551000D01*
X122795730Y-74551000D01*
X122689279Y-74529826D01*
X122589005Y-74488291D01*
X122498755Y-74427988D01*
X122422012Y-74351245D01*
X122361709Y-74260995D01*
X122320174Y-74160721D01*
X122299000Y-74054270D01*
X122299000Y-73945730D01*
X122320174Y-73839279D01*
X122361709Y-73739005D01*
X122422012Y-73648755D01*
X122498755Y-73572012D01*
X122589005Y-73511709D01*
X122689279Y-73470174D01*
X122795730Y-73449000D01*
X122904270Y-73449000D01*
X123010721Y-73470174D01*
X123010721Y-73470174D01*
G37*
G36*
X121501000Y-73801000D02*
X119599000Y-73801000D01*
X119599000Y-70699000D01*
X121501000Y-70699000D01*
X121501000Y-73801000D01*
X121501000Y-73801000D01*
G37*
G36*
X112438677Y-72253465D02*
X112476364Y-72264898D01*
X112511103Y-72283466D01*
X112541548Y-72308452D01*
X112566534Y-72338897D01*
X112585102Y-72373636D01*
X112596535Y-72411323D01*
X112601000Y-72456661D01*
X112601000Y-73543339D01*
X112596535Y-73588677D01*
X112585102Y-73626364D01*
X112566534Y-73661103D01*
X112541548Y-73691548D01*
X112511103Y-73716534D01*
X112476364Y-73735102D01*
X112438677Y-73746535D01*
X112393339Y-73751000D01*
X111556661Y-73751000D01*
X111511323Y-73746535D01*
X111473636Y-73735102D01*
X111438897Y-73716534D01*
X111408452Y-73691548D01*
X111383466Y-73661103D01*
X111364898Y-73626364D01*
X111353465Y-73588677D01*
X111349000Y-73543339D01*
X111349000Y-72456661D01*
X111353465Y-72411323D01*
X111364898Y-72373636D01*
X111383466Y-72338897D01*
X111408452Y-72308452D01*
X111438897Y-72283466D01*
X111473636Y-72264898D01*
X111511323Y-72253465D01*
X111556661Y-72249000D01*
X112393339Y-72249000D01*
X112438677Y-72253465D01*
X112438677Y-72253465D01*
G37*
G36*
X114488677Y-72253465D02*
X114526364Y-72264898D01*
X114561103Y-72283466D01*
X114591548Y-72308452D01*
X114616534Y-72338897D01*
X114635102Y-72373636D01*
X114646535Y-72411323D01*
X114651000Y-72456661D01*
X114651000Y-73543339D01*
X114646535Y-73588677D01*
X114635102Y-73626364D01*
X114616534Y-73661103D01*
X114591548Y-73691548D01*
X114561103Y-73716534D01*
X114526364Y-73735102D01*
X114488677Y-73746535D01*
X114443339Y-73751000D01*
X113606661Y-73751000D01*
X113561323Y-73746535D01*
X113523636Y-73735102D01*
X113488897Y-73716534D01*
X113458452Y-73691548D01*
X113433466Y-73661103D01*
X113414898Y-73626364D01*
X113403465Y-73588677D01*
X113399000Y-73543339D01*
X113399000Y-72456661D01*
X113403465Y-72411323D01*
X113414898Y-72373636D01*
X113433466Y-72338897D01*
X113458452Y-72308452D01*
X113488897Y-72283466D01*
X113523636Y-72264898D01*
X113561323Y-72253465D01*
X113606661Y-72249000D01*
X114443339Y-72249000D01*
X114488677Y-72253465D01*
X114488677Y-72253465D01*
G37*
G36*
X73901000Y-72281000D02*
X72099000Y-72281000D01*
X72099000Y-70479000D01*
X73901000Y-70479000D01*
X73901000Y-72281000D01*
X73901000Y-72281000D01*
G37*
G36*
X115801000Y-69251000D02*
X112199000Y-69251000D01*
X112199000Y-66749000D01*
X115801000Y-66749000D01*
X115801000Y-69251000D01*
X115801000Y-69251000D01*
G37*
G36*
X110601000Y-69251000D02*
X106999000Y-69251000D01*
X106999000Y-66749000D01*
X110601000Y-66749000D01*
X110601000Y-69251000D01*
X110601000Y-69251000D01*
G37*
G36*
X82413677Y-67253465D02*
X82451364Y-67264898D01*
X82486103Y-67283466D01*
X82516548Y-67308452D01*
X82541534Y-67338897D01*
X82560102Y-67373636D01*
X82571535Y-67411323D01*
X82576000Y-67456661D01*
X82576000Y-68543339D01*
X82571535Y-68588677D01*
X82560102Y-68626364D01*
X82541534Y-68661103D01*
X82516548Y-68691548D01*
X82486103Y-68716534D01*
X82451364Y-68735102D01*
X82413677Y-68746535D01*
X82368339Y-68751000D01*
X81531661Y-68751000D01*
X81486323Y-68746535D01*
X81448636Y-68735102D01*
X81413897Y-68716534D01*
X81383452Y-68691548D01*
X81358466Y-68661103D01*
X81339898Y-68626364D01*
X81328465Y-68588677D01*
X81324000Y-68543339D01*
X81324000Y-67456661D01*
X81328465Y-67411323D01*
X81339898Y-67373636D01*
X81358466Y-67338897D01*
X81383452Y-67308452D01*
X81413897Y-67283466D01*
X81448636Y-67264898D01*
X81486323Y-67253465D01*
X81531661Y-67249000D01*
X82368339Y-67249000D01*
X82413677Y-67253465D01*
X82413677Y-67253465D01*
G37*
G36*
X84463677Y-67253465D02*
X84501364Y-67264898D01*
X84536103Y-67283466D01*
X84566548Y-67308452D01*
X84591534Y-67338897D01*
X84610102Y-67373636D01*
X84621535Y-67411323D01*
X84626000Y-67456661D01*
X84626000Y-68543339D01*
X84621535Y-68588677D01*
X84610102Y-68626364D01*
X84591534Y-68661103D01*
X84566548Y-68691548D01*
X84536103Y-68716534D01*
X84501364Y-68735102D01*
X84463677Y-68746535D01*
X84418339Y-68751000D01*
X83581661Y-68751000D01*
X83536323Y-68746535D01*
X83498636Y-68735102D01*
X83463897Y-68716534D01*
X83433452Y-68691548D01*
X83408466Y-68661103D01*
X83389898Y-68626364D01*
X83378465Y-68588677D01*
X83374000Y-68543339D01*
X83374000Y-67456661D01*
X83378465Y-67411323D01*
X83389898Y-67373636D01*
X83408466Y-67338897D01*
X83433452Y-67308452D01*
X83463897Y-67283466D01*
X83498636Y-67264898D01*
X83536323Y-67253465D01*
X83581661Y-67249000D01*
X84418339Y-67249000D01*
X84463677Y-67253465D01*
X84463677Y-67253465D01*
G37*
G36*
X89190443Y-62105519D02*
X89256627Y-62112037D01*
X89369853Y-62146384D01*
X89426467Y-62163557D01*
X89565087Y-62237652D01*
X89582991Y-62247222D01*
X89618729Y-62276552D01*
X89720186Y-62359814D01*
X89803448Y-62461271D01*
X89832778Y-62497009D01*
X89832779Y-62497011D01*
X89916443Y-62653533D01*
X89916443Y-62653534D01*
X89967963Y-62823373D01*
X89985359Y-63000000D01*
X89967963Y-63176627D01*
X89933616Y-63289853D01*
X89916443Y-63346467D01*
X89842348Y-63485087D01*
X89832778Y-63502991D01*
X89803448Y-63538729D01*
X89720186Y-63640186D01*
X89618729Y-63723448D01*
X89582991Y-63752778D01*
X89582989Y-63752779D01*
X89426467Y-63836443D01*
X89369853Y-63853616D01*
X89256627Y-63887963D01*
X89190443Y-63894481D01*
X89124260Y-63901000D01*
X89035740Y-63901000D01*
X88969557Y-63894481D01*
X88903373Y-63887963D01*
X88790147Y-63853616D01*
X88733533Y-63836443D01*
X88577011Y-63752779D01*
X88577009Y-63752778D01*
X88541271Y-63723448D01*
X88439814Y-63640186D01*
X88356552Y-63538729D01*
X88327222Y-63502991D01*
X88317652Y-63485087D01*
X88243557Y-63346467D01*
X88226384Y-63289853D01*
X88192037Y-63176627D01*
X88174641Y-63000000D01*
X88192037Y-62823373D01*
X88243557Y-62653534D01*
X88243557Y-62653533D01*
X88327221Y-62497011D01*
X88327222Y-62497009D01*
X88356552Y-62461271D01*
X88439814Y-62359814D01*
X88541271Y-62276552D01*
X88577009Y-62247222D01*
X88594913Y-62237652D01*
X88733533Y-62163557D01*
X88790147Y-62146384D01*
X88903373Y-62112037D01*
X88969557Y-62105519D01*
X89035740Y-62099000D01*
X89124260Y-62099000D01*
X89190443Y-62105519D01*
X89190443Y-62105519D01*
G37*
G36*
X104430443Y-62105519D02*
X104496627Y-62112037D01*
X104609853Y-62146384D01*
X104666467Y-62163557D01*
X104805087Y-62237652D01*
X104822991Y-62247222D01*
X104858729Y-62276552D01*
X104960186Y-62359814D01*
X105043448Y-62461271D01*
X105072778Y-62497009D01*
X105072779Y-62497011D01*
X105156443Y-62653533D01*
X105156443Y-62653534D01*
X105207963Y-62823373D01*
X105225359Y-63000000D01*
X105207963Y-63176627D01*
X105173616Y-63289853D01*
X105156443Y-63346467D01*
X105082348Y-63485087D01*
X105072778Y-63502991D01*
X105043448Y-63538729D01*
X104960186Y-63640186D01*
X104858729Y-63723448D01*
X104822991Y-63752778D01*
X104822989Y-63752779D01*
X104666467Y-63836443D01*
X104609853Y-63853616D01*
X104496627Y-63887963D01*
X104430443Y-63894481D01*
X104364260Y-63901000D01*
X104275740Y-63901000D01*
X104209557Y-63894481D01*
X104143373Y-63887963D01*
X104030147Y-63853616D01*
X103973533Y-63836443D01*
X103817011Y-63752779D01*
X103817009Y-63752778D01*
X103781271Y-63723448D01*
X103679814Y-63640186D01*
X103596552Y-63538729D01*
X103567222Y-63502991D01*
X103557652Y-63485087D01*
X103483557Y-63346467D01*
X103466384Y-63289853D01*
X103432037Y-63176627D01*
X103414641Y-63000000D01*
X103432037Y-62823373D01*
X103483557Y-62653534D01*
X103483557Y-62653533D01*
X103567221Y-62497011D01*
X103567222Y-62497009D01*
X103596552Y-62461271D01*
X103679814Y-62359814D01*
X103781271Y-62276552D01*
X103817009Y-62247222D01*
X103834913Y-62237652D01*
X103973533Y-62163557D01*
X104030147Y-62146384D01*
X104143373Y-62112037D01*
X104209557Y-62105519D01*
X104275740Y-62099000D01*
X104364260Y-62099000D01*
X104430443Y-62105519D01*
X104430443Y-62105519D01*
G37*
G36*
X106970443Y-62105519D02*
X107036627Y-62112037D01*
X107149853Y-62146384D01*
X107206467Y-62163557D01*
X107345087Y-62237652D01*
X107362991Y-62247222D01*
X107398729Y-62276552D01*
X107500186Y-62359814D01*
X107583448Y-62461271D01*
X107612778Y-62497009D01*
X107612779Y-62497011D01*
X107696443Y-62653533D01*
X107696443Y-62653534D01*
X107747963Y-62823373D01*
X107765359Y-63000000D01*
X107747963Y-63176627D01*
X107713616Y-63289853D01*
X107696443Y-63346467D01*
X107622348Y-63485087D01*
X107612778Y-63502991D01*
X107583448Y-63538729D01*
X107500186Y-63640186D01*
X107398729Y-63723448D01*
X107362991Y-63752778D01*
X107362989Y-63752779D01*
X107206467Y-63836443D01*
X107149853Y-63853616D01*
X107036627Y-63887963D01*
X106970443Y-63894481D01*
X106904260Y-63901000D01*
X106815740Y-63901000D01*
X106749557Y-63894481D01*
X106683373Y-63887963D01*
X106570147Y-63853616D01*
X106513533Y-63836443D01*
X106357011Y-63752779D01*
X106357009Y-63752778D01*
X106321271Y-63723448D01*
X106219814Y-63640186D01*
X106136552Y-63538729D01*
X106107222Y-63502991D01*
X106097652Y-63485087D01*
X106023557Y-63346467D01*
X106006384Y-63289853D01*
X105972037Y-63176627D01*
X105954641Y-63000000D01*
X105972037Y-62823373D01*
X106023557Y-62653534D01*
X106023557Y-62653533D01*
X106107221Y-62497011D01*
X106107222Y-62497009D01*
X106136552Y-62461271D01*
X106219814Y-62359814D01*
X106321271Y-62276552D01*
X106357009Y-62247222D01*
X106374913Y-62237652D01*
X106513533Y-62163557D01*
X106570147Y-62146384D01*
X106683373Y-62112037D01*
X106749557Y-62105519D01*
X106815740Y-62099000D01*
X106904260Y-62099000D01*
X106970443Y-62105519D01*
X106970443Y-62105519D01*
G37*
G36*
X101890443Y-62105519D02*
X101956627Y-62112037D01*
X102069853Y-62146384D01*
X102126467Y-62163557D01*
X102265087Y-62237652D01*
X102282991Y-62247222D01*
X102318729Y-62276552D01*
X102420186Y-62359814D01*
X102503448Y-62461271D01*
X102532778Y-62497009D01*
X102532779Y-62497011D01*
X102616443Y-62653533D01*
X102616443Y-62653534D01*
X102667963Y-62823373D01*
X102685359Y-63000000D01*
X102667963Y-63176627D01*
X102633616Y-63289853D01*
X102616443Y-63346467D01*
X102542348Y-63485087D01*
X102532778Y-63502991D01*
X102503448Y-63538729D01*
X102420186Y-63640186D01*
X102318729Y-63723448D01*
X102282991Y-63752778D01*
X102282989Y-63752779D01*
X102126467Y-63836443D01*
X102069853Y-63853616D01*
X101956627Y-63887963D01*
X101890443Y-63894481D01*
X101824260Y-63901000D01*
X101735740Y-63901000D01*
X101669557Y-63894481D01*
X101603373Y-63887963D01*
X101490147Y-63853616D01*
X101433533Y-63836443D01*
X101277011Y-63752779D01*
X101277009Y-63752778D01*
X101241271Y-63723448D01*
X101139814Y-63640186D01*
X101056552Y-63538729D01*
X101027222Y-63502991D01*
X101017652Y-63485087D01*
X100943557Y-63346467D01*
X100926384Y-63289853D01*
X100892037Y-63176627D01*
X100874641Y-63000000D01*
X100892037Y-62823373D01*
X100943557Y-62653534D01*
X100943557Y-62653533D01*
X101027221Y-62497011D01*
X101027222Y-62497009D01*
X101056552Y-62461271D01*
X101139814Y-62359814D01*
X101241271Y-62276552D01*
X101277009Y-62247222D01*
X101294913Y-62237652D01*
X101433533Y-62163557D01*
X101490147Y-62146384D01*
X101603373Y-62112037D01*
X101669557Y-62105519D01*
X101735740Y-62099000D01*
X101824260Y-62099000D01*
X101890443Y-62105519D01*
X101890443Y-62105519D01*
G37*
G36*
X94270443Y-62105519D02*
X94336627Y-62112037D01*
X94449853Y-62146384D01*
X94506467Y-62163557D01*
X94645087Y-62237652D01*
X94662991Y-62247222D01*
X94698729Y-62276552D01*
X94800186Y-62359814D01*
X94883448Y-62461271D01*
X94912778Y-62497009D01*
X94912779Y-62497011D01*
X94996443Y-62653533D01*
X94996443Y-62653534D01*
X95047963Y-62823373D01*
X95065359Y-63000000D01*
X95047963Y-63176627D01*
X95013616Y-63289853D01*
X94996443Y-63346467D01*
X94922348Y-63485087D01*
X94912778Y-63502991D01*
X94883448Y-63538729D01*
X94800186Y-63640186D01*
X94698729Y-63723448D01*
X94662991Y-63752778D01*
X94662989Y-63752779D01*
X94506467Y-63836443D01*
X94449853Y-63853616D01*
X94336627Y-63887963D01*
X94270443Y-63894481D01*
X94204260Y-63901000D01*
X94115740Y-63901000D01*
X94049557Y-63894481D01*
X93983373Y-63887963D01*
X93870147Y-63853616D01*
X93813533Y-63836443D01*
X93657011Y-63752779D01*
X93657009Y-63752778D01*
X93621271Y-63723448D01*
X93519814Y-63640186D01*
X93436552Y-63538729D01*
X93407222Y-63502991D01*
X93397652Y-63485087D01*
X93323557Y-63346467D01*
X93306384Y-63289853D01*
X93272037Y-63176627D01*
X93254641Y-63000000D01*
X93272037Y-62823373D01*
X93323557Y-62653534D01*
X93323557Y-62653533D01*
X93407221Y-62497011D01*
X93407222Y-62497009D01*
X93436552Y-62461271D01*
X93519814Y-62359814D01*
X93621271Y-62276552D01*
X93657009Y-62247222D01*
X93674913Y-62237652D01*
X93813533Y-62163557D01*
X93870147Y-62146384D01*
X93983373Y-62112037D01*
X94049557Y-62105519D01*
X94115740Y-62099000D01*
X94204260Y-62099000D01*
X94270443Y-62105519D01*
X94270443Y-62105519D01*
G37*
G36*
X91730443Y-62105519D02*
X91796627Y-62112037D01*
X91909853Y-62146384D01*
X91966467Y-62163557D01*
X92105087Y-62237652D01*
X92122991Y-62247222D01*
X92158729Y-62276552D01*
X92260186Y-62359814D01*
X92343448Y-62461271D01*
X92372778Y-62497009D01*
X92372779Y-62497011D01*
X92456443Y-62653533D01*
X92456443Y-62653534D01*
X92507963Y-62823373D01*
X92525359Y-63000000D01*
X92507963Y-63176627D01*
X92473616Y-63289853D01*
X92456443Y-63346467D01*
X92382348Y-63485087D01*
X92372778Y-63502991D01*
X92343448Y-63538729D01*
X92260186Y-63640186D01*
X92158729Y-63723448D01*
X92122991Y-63752778D01*
X92122989Y-63752779D01*
X91966467Y-63836443D01*
X91909853Y-63853616D01*
X91796627Y-63887963D01*
X91730443Y-63894481D01*
X91664260Y-63901000D01*
X91575740Y-63901000D01*
X91509557Y-63894481D01*
X91443373Y-63887963D01*
X91330147Y-63853616D01*
X91273533Y-63836443D01*
X91117011Y-63752779D01*
X91117009Y-63752778D01*
X91081271Y-63723448D01*
X90979814Y-63640186D01*
X90896552Y-63538729D01*
X90867222Y-63502991D01*
X90857652Y-63485087D01*
X90783557Y-63346467D01*
X90766384Y-63289853D01*
X90732037Y-63176627D01*
X90714641Y-63000000D01*
X90732037Y-62823373D01*
X90783557Y-62653534D01*
X90783557Y-62653533D01*
X90867221Y-62497011D01*
X90867222Y-62497009D01*
X90896552Y-62461271D01*
X90979814Y-62359814D01*
X91081271Y-62276552D01*
X91117009Y-62247222D01*
X91134913Y-62237652D01*
X91273533Y-62163557D01*
X91330147Y-62146384D01*
X91443373Y-62112037D01*
X91509557Y-62105519D01*
X91575740Y-62099000D01*
X91664260Y-62099000D01*
X91730443Y-62105519D01*
X91730443Y-62105519D01*
G37*
G36*
X84901000Y-63901000D02*
X83099000Y-63901000D01*
X83099000Y-62099000D01*
X84901000Y-62099000D01*
X84901000Y-63901000D01*
X84901000Y-63901000D01*
G37*
G36*
X86650443Y-62105519D02*
X86716627Y-62112037D01*
X86829853Y-62146384D01*
X86886467Y-62163557D01*
X87025087Y-62237652D01*
X87042991Y-62247222D01*
X87078729Y-62276552D01*
X87180186Y-62359814D01*
X87263448Y-62461271D01*
X87292778Y-62497009D01*
X87292779Y-62497011D01*
X87376443Y-62653533D01*
X87376443Y-62653534D01*
X87427963Y-62823373D01*
X87445359Y-63000000D01*
X87427963Y-63176627D01*
X87393616Y-63289853D01*
X87376443Y-63346467D01*
X87302348Y-63485087D01*
X87292778Y-63502991D01*
X87263448Y-63538729D01*
X87180186Y-63640186D01*
X87078729Y-63723448D01*
X87042991Y-63752778D01*
X87042989Y-63752779D01*
X86886467Y-63836443D01*
X86829853Y-63853616D01*
X86716627Y-63887963D01*
X86650443Y-63894481D01*
X86584260Y-63901000D01*
X86495740Y-63901000D01*
X86429557Y-63894481D01*
X86363373Y-63887963D01*
X86250147Y-63853616D01*
X86193533Y-63836443D01*
X86037011Y-63752779D01*
X86037009Y-63752778D01*
X86001271Y-63723448D01*
X85899814Y-63640186D01*
X85816552Y-63538729D01*
X85787222Y-63502991D01*
X85777652Y-63485087D01*
X85703557Y-63346467D01*
X85686384Y-63289853D01*
X85652037Y-63176627D01*
X85634641Y-63000000D01*
X85652037Y-62823373D01*
X85703557Y-62653534D01*
X85703557Y-62653533D01*
X85787221Y-62497011D01*
X85787222Y-62497009D01*
X85816552Y-62461271D01*
X85899814Y-62359814D01*
X86001271Y-62276552D01*
X86037009Y-62247222D01*
X86054913Y-62237652D01*
X86193533Y-62163557D01*
X86250147Y-62146384D01*
X86363373Y-62112037D01*
X86429557Y-62105519D01*
X86495740Y-62099000D01*
X86584260Y-62099000D01*
X86650443Y-62105519D01*
X86650443Y-62105519D01*
G37*
G36*
X96810443Y-62105519D02*
X96876627Y-62112037D01*
X96989853Y-62146384D01*
X97046467Y-62163557D01*
X97185087Y-62237652D01*
X97202991Y-62247222D01*
X97238729Y-62276552D01*
X97340186Y-62359814D01*
X97423448Y-62461271D01*
X97452778Y-62497009D01*
X97452779Y-62497011D01*
X97536443Y-62653533D01*
X97536443Y-62653534D01*
X97587963Y-62823373D01*
X97605359Y-63000000D01*
X97587963Y-63176627D01*
X97553616Y-63289853D01*
X97536443Y-63346467D01*
X97462348Y-63485087D01*
X97452778Y-63502991D01*
X97423448Y-63538729D01*
X97340186Y-63640186D01*
X97238729Y-63723448D01*
X97202991Y-63752778D01*
X97202989Y-63752779D01*
X97046467Y-63836443D01*
X96989853Y-63853616D01*
X96876627Y-63887963D01*
X96810443Y-63894481D01*
X96744260Y-63901000D01*
X96655740Y-63901000D01*
X96589557Y-63894481D01*
X96523373Y-63887963D01*
X96410147Y-63853616D01*
X96353533Y-63836443D01*
X96197011Y-63752779D01*
X96197009Y-63752778D01*
X96161271Y-63723448D01*
X96059814Y-63640186D01*
X95976552Y-63538729D01*
X95947222Y-63502991D01*
X95937652Y-63485087D01*
X95863557Y-63346467D01*
X95846384Y-63289853D01*
X95812037Y-63176627D01*
X95794641Y-63000000D01*
X95812037Y-62823373D01*
X95863557Y-62653534D01*
X95863557Y-62653533D01*
X95947221Y-62497011D01*
X95947222Y-62497009D01*
X95976552Y-62461271D01*
X96059814Y-62359814D01*
X96161271Y-62276552D01*
X96197009Y-62247222D01*
X96214913Y-62237652D01*
X96353533Y-62163557D01*
X96410147Y-62146384D01*
X96523373Y-62112037D01*
X96589557Y-62105519D01*
X96655740Y-62099000D01*
X96744260Y-62099000D01*
X96810443Y-62105519D01*
X96810443Y-62105519D01*
G37*
G36*
X99350443Y-62105519D02*
X99416627Y-62112037D01*
X99529853Y-62146384D01*
X99586467Y-62163557D01*
X99725087Y-62237652D01*
X99742991Y-62247222D01*
X99778729Y-62276552D01*
X99880186Y-62359814D01*
X99963448Y-62461271D01*
X99992778Y-62497009D01*
X99992779Y-62497011D01*
X100076443Y-62653533D01*
X100076443Y-62653534D01*
X100127963Y-62823373D01*
X100145359Y-63000000D01*
X100127963Y-63176627D01*
X100093616Y-63289853D01*
X100076443Y-63346467D01*
X100002348Y-63485087D01*
X99992778Y-63502991D01*
X99963448Y-63538729D01*
X99880186Y-63640186D01*
X99778729Y-63723448D01*
X99742991Y-63752778D01*
X99742989Y-63752779D01*
X99586467Y-63836443D01*
X99529853Y-63853616D01*
X99416627Y-63887963D01*
X99350443Y-63894481D01*
X99284260Y-63901000D01*
X99195740Y-63901000D01*
X99129557Y-63894481D01*
X99063373Y-63887963D01*
X98950147Y-63853616D01*
X98893533Y-63836443D01*
X98737011Y-63752779D01*
X98737009Y-63752778D01*
X98701271Y-63723448D01*
X98599814Y-63640186D01*
X98516552Y-63538729D01*
X98487222Y-63502991D01*
X98477652Y-63485087D01*
X98403557Y-63346467D01*
X98386384Y-63289853D01*
X98352037Y-63176627D01*
X98334641Y-63000000D01*
X98352037Y-62823373D01*
X98403557Y-62653534D01*
X98403557Y-62653533D01*
X98487221Y-62497011D01*
X98487222Y-62497009D01*
X98516552Y-62461271D01*
X98599814Y-62359814D01*
X98701271Y-62276552D01*
X98737009Y-62247222D01*
X98754913Y-62237652D01*
X98893533Y-62163557D01*
X98950147Y-62146384D01*
X99063373Y-62112037D01*
X99129557Y-62105519D01*
X99195740Y-62099000D01*
X99284260Y-62099000D01*
X99350443Y-62105519D01*
X99350443Y-62105519D01*
G37*
M02*
