M48
;DRILL file {KiCad 5.0.2+dfsg1-1} date qui 12 set 2019 15:21:00 -03
;FORMAT={-:-/ absolute / inch / decimal}
FMAT,2
INCH,TZ
T1C0.0394
T2C0.0433
%
G90
G05
T1
X3.337Y-3.622
X3.437Y-3.622
X3.537Y-3.622
X3.637Y-3.622
X3.737Y-3.622
X3.837Y-3.622
X3.937Y-3.622
X4.037Y-3.622
X4.137Y-3.622
X4.237Y-3.622
X3.3071Y-2.4803
X3.4071Y-2.4803
X3.5071Y-2.4803
X3.6071Y-2.4803
X3.7071Y-2.4803
X3.8071Y-2.4803
X3.9071Y-2.4803
X4.0071Y-2.4803
X4.1071Y-2.4803
X4.2071Y-2.4803
X2.874Y-2.8102
X2.874Y-2.9102
X2.874Y-3.0102
X2.874Y-3.1102
X2.874Y-3.2102
X2.874Y-3.3102
T2
X4.5276Y-3.4646
X4.5276Y-3.6417
X4.7835Y-3.4646
X4.7835Y-3.6417
T0
M30
