G04 #@! TF.GenerationSoftware,KiCad,Pcbnew,5.0.2+dfsg1-1*
G04 #@! TF.CreationDate,2019-09-12T15:21:08-03:00*
G04 #@! TF.ProjectId,projeto1,70726f6a-6574-46f3-912e-6b696361645f,rev?*
G04 #@! TF.SameCoordinates,Original*
G04 #@! TF.FileFunction,Copper,L1,Top*
G04 #@! TF.FilePolarity,Positive*
%FSLAX46Y46*%
G04 Gerber Fmt 4.6, Leading zero omitted, Abs format (unit mm)*
G04 Created by KiCad (PCBNEW 5.0.2+dfsg1-1) date qui 12 set 2019 15:21:08 -03*
%MOMM*%
%LPD*%
G01*
G04 APERTURE LIST*
G04 #@! TA.AperFunction,ComponentPad*
%ADD10C,2.000000*%
G04 #@! TD*
G04 #@! TA.AperFunction,Conductor*
%ADD11C,0.100000*%
G04 #@! TD*
G04 #@! TA.AperFunction,SMDPad,CuDef*
%ADD12C,1.150000*%
G04 #@! TD*
G04 #@! TA.AperFunction,ComponentPad*
%ADD13R,1.700000X1.700000*%
G04 #@! TD*
G04 #@! TA.AperFunction,ComponentPad*
%ADD14O,1.700000X1.700000*%
G04 #@! TD*
G04 #@! TA.AperFunction,SMDPad,CuDef*
%ADD15R,1.500000X0.500000*%
G04 #@! TD*
G04 #@! TA.AperFunction,SMDPad,CuDef*
%ADD16R,1.800000X3.000000*%
G04 #@! TD*
G04 #@! TA.AperFunction,SMDPad,CuDef*
%ADD17R,3.500000X2.400000*%
G04 #@! TD*
G04 #@! TA.AperFunction,SMDPad,CuDef*
%ADD18R,0.550000X1.500000*%
G04 #@! TD*
G04 #@! TA.AperFunction,SMDPad,CuDef*
%ADD19R,1.500000X0.550000*%
G04 #@! TD*
G04 #@! TA.AperFunction,SMDPad,CuDef*
%ADD20C,1.425000*%
G04 #@! TD*
G04 #@! TA.AperFunction,Conductor*
%ADD21C,0.250000*%
G04 #@! TD*
G04 #@! TA.AperFunction,Conductor*
%ADD22C,0.200000*%
G04 #@! TD*
G04 APERTURE END LIST*
D10*
G04 #@! TO.P,SW1,2*
G04 #@! TO.N,Net-(C1-Pad1)*
X115000000Y-92500000D03*
G04 #@! TO.P,SW1,1*
G04 #@! TO.N,GND*
X115000000Y-88000000D03*
G04 #@! TO.P,SW1,2*
G04 #@! TO.N,Net-(C1-Pad1)*
X121500000Y-92500000D03*
G04 #@! TO.P,SW1,1*
G04 #@! TO.N,GND*
X121500000Y-88000000D03*
G04 #@! TD*
D11*
G04 #@! TO.N,GND*
G04 #@! TO.C,C2*
G36*
X83474505Y-75426204D02*
X83498773Y-75429804D01*
X83522572Y-75435765D01*
X83545671Y-75444030D01*
X83567850Y-75454520D01*
X83588893Y-75467132D01*
X83608599Y-75481747D01*
X83626777Y-75498223D01*
X83643253Y-75516401D01*
X83657868Y-75536107D01*
X83670480Y-75557150D01*
X83680970Y-75579329D01*
X83689235Y-75602428D01*
X83695196Y-75626227D01*
X83698796Y-75650495D01*
X83700000Y-75674999D01*
X83700000Y-76325001D01*
X83698796Y-76349505D01*
X83695196Y-76373773D01*
X83689235Y-76397572D01*
X83680970Y-76420671D01*
X83670480Y-76442850D01*
X83657868Y-76463893D01*
X83643253Y-76483599D01*
X83626777Y-76501777D01*
X83608599Y-76518253D01*
X83588893Y-76532868D01*
X83567850Y-76545480D01*
X83545671Y-76555970D01*
X83522572Y-76564235D01*
X83498773Y-76570196D01*
X83474505Y-76573796D01*
X83450001Y-76575000D01*
X82549999Y-76575000D01*
X82525495Y-76573796D01*
X82501227Y-76570196D01*
X82477428Y-76564235D01*
X82454329Y-76555970D01*
X82432150Y-76545480D01*
X82411107Y-76532868D01*
X82391401Y-76518253D01*
X82373223Y-76501777D01*
X82356747Y-76483599D01*
X82342132Y-76463893D01*
X82329520Y-76442850D01*
X82319030Y-76420671D01*
X82310765Y-76397572D01*
X82304804Y-76373773D01*
X82301204Y-76349505D01*
X82300000Y-76325001D01*
X82300000Y-75674999D01*
X82301204Y-75650495D01*
X82304804Y-75626227D01*
X82310765Y-75602428D01*
X82319030Y-75579329D01*
X82329520Y-75557150D01*
X82342132Y-75536107D01*
X82356747Y-75516401D01*
X82373223Y-75498223D01*
X82391401Y-75481747D01*
X82411107Y-75467132D01*
X82432150Y-75454520D01*
X82454329Y-75444030D01*
X82477428Y-75435765D01*
X82501227Y-75429804D01*
X82525495Y-75426204D01*
X82549999Y-75425000D01*
X83450001Y-75425000D01*
X83474505Y-75426204D01*
X83474505Y-75426204D01*
G37*
D12*
G04 #@! TD*
G04 #@! TO.P,C2,1*
G04 #@! TO.N,GND*
X83000000Y-76000000D03*
D11*
G04 #@! TO.N,Net-(C2-Pad2)*
G04 #@! TO.C,C2*
G36*
X83474505Y-77476204D02*
X83498773Y-77479804D01*
X83522572Y-77485765D01*
X83545671Y-77494030D01*
X83567850Y-77504520D01*
X83588893Y-77517132D01*
X83608599Y-77531747D01*
X83626777Y-77548223D01*
X83643253Y-77566401D01*
X83657868Y-77586107D01*
X83670480Y-77607150D01*
X83680970Y-77629329D01*
X83689235Y-77652428D01*
X83695196Y-77676227D01*
X83698796Y-77700495D01*
X83700000Y-77724999D01*
X83700000Y-78375001D01*
X83698796Y-78399505D01*
X83695196Y-78423773D01*
X83689235Y-78447572D01*
X83680970Y-78470671D01*
X83670480Y-78492850D01*
X83657868Y-78513893D01*
X83643253Y-78533599D01*
X83626777Y-78551777D01*
X83608599Y-78568253D01*
X83588893Y-78582868D01*
X83567850Y-78595480D01*
X83545671Y-78605970D01*
X83522572Y-78614235D01*
X83498773Y-78620196D01*
X83474505Y-78623796D01*
X83450001Y-78625000D01*
X82549999Y-78625000D01*
X82525495Y-78623796D01*
X82501227Y-78620196D01*
X82477428Y-78614235D01*
X82454329Y-78605970D01*
X82432150Y-78595480D01*
X82411107Y-78582868D01*
X82391401Y-78568253D01*
X82373223Y-78551777D01*
X82356747Y-78533599D01*
X82342132Y-78513893D01*
X82329520Y-78492850D01*
X82319030Y-78470671D01*
X82310765Y-78447572D01*
X82304804Y-78423773D01*
X82301204Y-78399505D01*
X82300000Y-78375001D01*
X82300000Y-77724999D01*
X82301204Y-77700495D01*
X82304804Y-77676227D01*
X82310765Y-77652428D01*
X82319030Y-77629329D01*
X82329520Y-77607150D01*
X82342132Y-77586107D01*
X82356747Y-77566401D01*
X82373223Y-77548223D01*
X82391401Y-77531747D01*
X82411107Y-77517132D01*
X82432150Y-77504520D01*
X82454329Y-77494030D01*
X82477428Y-77485765D01*
X82501227Y-77479804D01*
X82525495Y-77476204D01*
X82549999Y-77475000D01*
X83450001Y-77475000D01*
X83474505Y-77476204D01*
X83474505Y-77476204D01*
G37*
D12*
G04 #@! TD*
G04 #@! TO.P,C2,2*
G04 #@! TO.N,Net-(C2-Pad2)*
X83000000Y-78050000D03*
D11*
G04 #@! TO.N,GND*
G04 #@! TO.C,C3*
G36*
X112324505Y-72301204D02*
X112348773Y-72304804D01*
X112372572Y-72310765D01*
X112395671Y-72319030D01*
X112417850Y-72329520D01*
X112438893Y-72342132D01*
X112458599Y-72356747D01*
X112476777Y-72373223D01*
X112493253Y-72391401D01*
X112507868Y-72411107D01*
X112520480Y-72432150D01*
X112530970Y-72454329D01*
X112539235Y-72477428D01*
X112545196Y-72501227D01*
X112548796Y-72525495D01*
X112550000Y-72549999D01*
X112550000Y-73450001D01*
X112548796Y-73474505D01*
X112545196Y-73498773D01*
X112539235Y-73522572D01*
X112530970Y-73545671D01*
X112520480Y-73567850D01*
X112507868Y-73588893D01*
X112493253Y-73608599D01*
X112476777Y-73626777D01*
X112458599Y-73643253D01*
X112438893Y-73657868D01*
X112417850Y-73670480D01*
X112395671Y-73680970D01*
X112372572Y-73689235D01*
X112348773Y-73695196D01*
X112324505Y-73698796D01*
X112300001Y-73700000D01*
X111649999Y-73700000D01*
X111625495Y-73698796D01*
X111601227Y-73695196D01*
X111577428Y-73689235D01*
X111554329Y-73680970D01*
X111532150Y-73670480D01*
X111511107Y-73657868D01*
X111491401Y-73643253D01*
X111473223Y-73626777D01*
X111456747Y-73608599D01*
X111442132Y-73588893D01*
X111429520Y-73567850D01*
X111419030Y-73545671D01*
X111410765Y-73522572D01*
X111404804Y-73498773D01*
X111401204Y-73474505D01*
X111400000Y-73450001D01*
X111400000Y-72549999D01*
X111401204Y-72525495D01*
X111404804Y-72501227D01*
X111410765Y-72477428D01*
X111419030Y-72454329D01*
X111429520Y-72432150D01*
X111442132Y-72411107D01*
X111456747Y-72391401D01*
X111473223Y-72373223D01*
X111491401Y-72356747D01*
X111511107Y-72342132D01*
X111532150Y-72329520D01*
X111554329Y-72319030D01*
X111577428Y-72310765D01*
X111601227Y-72304804D01*
X111625495Y-72301204D01*
X111649999Y-72300000D01*
X112300001Y-72300000D01*
X112324505Y-72301204D01*
X112324505Y-72301204D01*
G37*
D12*
G04 #@! TD*
G04 #@! TO.P,C3,2*
G04 #@! TO.N,GND*
X111975000Y-73000000D03*
D11*
G04 #@! TO.N,Net-(C3-Pad1)*
G04 #@! TO.C,C3*
G36*
X114374505Y-72301204D02*
X114398773Y-72304804D01*
X114422572Y-72310765D01*
X114445671Y-72319030D01*
X114467850Y-72329520D01*
X114488893Y-72342132D01*
X114508599Y-72356747D01*
X114526777Y-72373223D01*
X114543253Y-72391401D01*
X114557868Y-72411107D01*
X114570480Y-72432150D01*
X114580970Y-72454329D01*
X114589235Y-72477428D01*
X114595196Y-72501227D01*
X114598796Y-72525495D01*
X114600000Y-72549999D01*
X114600000Y-73450001D01*
X114598796Y-73474505D01*
X114595196Y-73498773D01*
X114589235Y-73522572D01*
X114580970Y-73545671D01*
X114570480Y-73567850D01*
X114557868Y-73588893D01*
X114543253Y-73608599D01*
X114526777Y-73626777D01*
X114508599Y-73643253D01*
X114488893Y-73657868D01*
X114467850Y-73670480D01*
X114445671Y-73680970D01*
X114422572Y-73689235D01*
X114398773Y-73695196D01*
X114374505Y-73698796D01*
X114350001Y-73700000D01*
X113699999Y-73700000D01*
X113675495Y-73698796D01*
X113651227Y-73695196D01*
X113627428Y-73689235D01*
X113604329Y-73680970D01*
X113582150Y-73670480D01*
X113561107Y-73657868D01*
X113541401Y-73643253D01*
X113523223Y-73626777D01*
X113506747Y-73608599D01*
X113492132Y-73588893D01*
X113479520Y-73567850D01*
X113469030Y-73545671D01*
X113460765Y-73522572D01*
X113454804Y-73498773D01*
X113451204Y-73474505D01*
X113450000Y-73450001D01*
X113450000Y-72549999D01*
X113451204Y-72525495D01*
X113454804Y-72501227D01*
X113460765Y-72477428D01*
X113469030Y-72454329D01*
X113479520Y-72432150D01*
X113492132Y-72411107D01*
X113506747Y-72391401D01*
X113523223Y-72373223D01*
X113541401Y-72356747D01*
X113561107Y-72342132D01*
X113582150Y-72329520D01*
X113604329Y-72319030D01*
X113627428Y-72310765D01*
X113651227Y-72304804D01*
X113675495Y-72301204D01*
X113699999Y-72300000D01*
X114350001Y-72300000D01*
X114374505Y-72301204D01*
X114374505Y-72301204D01*
G37*
D12*
G04 #@! TD*
G04 #@! TO.P,C3,1*
G04 #@! TO.N,Net-(C3-Pad1)*
X114025000Y-73000000D03*
D11*
G04 #@! TO.N,Net-(C4-Pad1)*
G04 #@! TO.C,C4*
G36*
X82299505Y-67301204D02*
X82323773Y-67304804D01*
X82347572Y-67310765D01*
X82370671Y-67319030D01*
X82392850Y-67329520D01*
X82413893Y-67342132D01*
X82433599Y-67356747D01*
X82451777Y-67373223D01*
X82468253Y-67391401D01*
X82482868Y-67411107D01*
X82495480Y-67432150D01*
X82505970Y-67454329D01*
X82514235Y-67477428D01*
X82520196Y-67501227D01*
X82523796Y-67525495D01*
X82525000Y-67549999D01*
X82525000Y-68450001D01*
X82523796Y-68474505D01*
X82520196Y-68498773D01*
X82514235Y-68522572D01*
X82505970Y-68545671D01*
X82495480Y-68567850D01*
X82482868Y-68588893D01*
X82468253Y-68608599D01*
X82451777Y-68626777D01*
X82433599Y-68643253D01*
X82413893Y-68657868D01*
X82392850Y-68670480D01*
X82370671Y-68680970D01*
X82347572Y-68689235D01*
X82323773Y-68695196D01*
X82299505Y-68698796D01*
X82275001Y-68700000D01*
X81624999Y-68700000D01*
X81600495Y-68698796D01*
X81576227Y-68695196D01*
X81552428Y-68689235D01*
X81529329Y-68680970D01*
X81507150Y-68670480D01*
X81486107Y-68657868D01*
X81466401Y-68643253D01*
X81448223Y-68626777D01*
X81431747Y-68608599D01*
X81417132Y-68588893D01*
X81404520Y-68567850D01*
X81394030Y-68545671D01*
X81385765Y-68522572D01*
X81379804Y-68498773D01*
X81376204Y-68474505D01*
X81375000Y-68450001D01*
X81375000Y-67549999D01*
X81376204Y-67525495D01*
X81379804Y-67501227D01*
X81385765Y-67477428D01*
X81394030Y-67454329D01*
X81404520Y-67432150D01*
X81417132Y-67411107D01*
X81431747Y-67391401D01*
X81448223Y-67373223D01*
X81466401Y-67356747D01*
X81486107Y-67342132D01*
X81507150Y-67329520D01*
X81529329Y-67319030D01*
X81552428Y-67310765D01*
X81576227Y-67304804D01*
X81600495Y-67301204D01*
X81624999Y-67300000D01*
X82275001Y-67300000D01*
X82299505Y-67301204D01*
X82299505Y-67301204D01*
G37*
D12*
G04 #@! TD*
G04 #@! TO.P,C4,1*
G04 #@! TO.N,Net-(C4-Pad1)*
X81950000Y-68000000D03*
D11*
G04 #@! TO.N,GND*
G04 #@! TO.C,C4*
G36*
X84349505Y-67301204D02*
X84373773Y-67304804D01*
X84397572Y-67310765D01*
X84420671Y-67319030D01*
X84442850Y-67329520D01*
X84463893Y-67342132D01*
X84483599Y-67356747D01*
X84501777Y-67373223D01*
X84518253Y-67391401D01*
X84532868Y-67411107D01*
X84545480Y-67432150D01*
X84555970Y-67454329D01*
X84564235Y-67477428D01*
X84570196Y-67501227D01*
X84573796Y-67525495D01*
X84575000Y-67549999D01*
X84575000Y-68450001D01*
X84573796Y-68474505D01*
X84570196Y-68498773D01*
X84564235Y-68522572D01*
X84555970Y-68545671D01*
X84545480Y-68567850D01*
X84532868Y-68588893D01*
X84518253Y-68608599D01*
X84501777Y-68626777D01*
X84483599Y-68643253D01*
X84463893Y-68657868D01*
X84442850Y-68670480D01*
X84420671Y-68680970D01*
X84397572Y-68689235D01*
X84373773Y-68695196D01*
X84349505Y-68698796D01*
X84325001Y-68700000D01*
X83674999Y-68700000D01*
X83650495Y-68698796D01*
X83626227Y-68695196D01*
X83602428Y-68689235D01*
X83579329Y-68680970D01*
X83557150Y-68670480D01*
X83536107Y-68657868D01*
X83516401Y-68643253D01*
X83498223Y-68626777D01*
X83481747Y-68608599D01*
X83467132Y-68588893D01*
X83454520Y-68567850D01*
X83444030Y-68545671D01*
X83435765Y-68522572D01*
X83429804Y-68498773D01*
X83426204Y-68474505D01*
X83425000Y-68450001D01*
X83425000Y-67549999D01*
X83426204Y-67525495D01*
X83429804Y-67501227D01*
X83435765Y-67477428D01*
X83444030Y-67454329D01*
X83454520Y-67432150D01*
X83467132Y-67411107D01*
X83481747Y-67391401D01*
X83498223Y-67373223D01*
X83516401Y-67356747D01*
X83536107Y-67342132D01*
X83557150Y-67329520D01*
X83579329Y-67319030D01*
X83602428Y-67310765D01*
X83626227Y-67304804D01*
X83650495Y-67301204D01*
X83674999Y-67300000D01*
X84325001Y-67300000D01*
X84349505Y-67301204D01*
X84349505Y-67301204D01*
G37*
D12*
G04 #@! TD*
G04 #@! TO.P,C4,2*
G04 #@! TO.N,GND*
X84000000Y-68000000D03*
D11*
G04 #@! TO.N,GND*
G04 #@! TO.C,C5*
G36*
X88474505Y-75426204D02*
X88498773Y-75429804D01*
X88522572Y-75435765D01*
X88545671Y-75444030D01*
X88567850Y-75454520D01*
X88588893Y-75467132D01*
X88608599Y-75481747D01*
X88626777Y-75498223D01*
X88643253Y-75516401D01*
X88657868Y-75536107D01*
X88670480Y-75557150D01*
X88680970Y-75579329D01*
X88689235Y-75602428D01*
X88695196Y-75626227D01*
X88698796Y-75650495D01*
X88700000Y-75674999D01*
X88700000Y-76325001D01*
X88698796Y-76349505D01*
X88695196Y-76373773D01*
X88689235Y-76397572D01*
X88680970Y-76420671D01*
X88670480Y-76442850D01*
X88657868Y-76463893D01*
X88643253Y-76483599D01*
X88626777Y-76501777D01*
X88608599Y-76518253D01*
X88588893Y-76532868D01*
X88567850Y-76545480D01*
X88545671Y-76555970D01*
X88522572Y-76564235D01*
X88498773Y-76570196D01*
X88474505Y-76573796D01*
X88450001Y-76575000D01*
X87549999Y-76575000D01*
X87525495Y-76573796D01*
X87501227Y-76570196D01*
X87477428Y-76564235D01*
X87454329Y-76555970D01*
X87432150Y-76545480D01*
X87411107Y-76532868D01*
X87391401Y-76518253D01*
X87373223Y-76501777D01*
X87356747Y-76483599D01*
X87342132Y-76463893D01*
X87329520Y-76442850D01*
X87319030Y-76420671D01*
X87310765Y-76397572D01*
X87304804Y-76373773D01*
X87301204Y-76349505D01*
X87300000Y-76325001D01*
X87300000Y-75674999D01*
X87301204Y-75650495D01*
X87304804Y-75626227D01*
X87310765Y-75602428D01*
X87319030Y-75579329D01*
X87329520Y-75557150D01*
X87342132Y-75536107D01*
X87356747Y-75516401D01*
X87373223Y-75498223D01*
X87391401Y-75481747D01*
X87411107Y-75467132D01*
X87432150Y-75454520D01*
X87454329Y-75444030D01*
X87477428Y-75435765D01*
X87501227Y-75429804D01*
X87525495Y-75426204D01*
X87549999Y-75425000D01*
X88450001Y-75425000D01*
X88474505Y-75426204D01*
X88474505Y-75426204D01*
G37*
D12*
G04 #@! TD*
G04 #@! TO.P,C5,2*
G04 #@! TO.N,GND*
X88000000Y-76000000D03*
D11*
G04 #@! TO.N,+5V*
G04 #@! TO.C,C5*
G36*
X88474505Y-77476204D02*
X88498773Y-77479804D01*
X88522572Y-77485765D01*
X88545671Y-77494030D01*
X88567850Y-77504520D01*
X88588893Y-77517132D01*
X88608599Y-77531747D01*
X88626777Y-77548223D01*
X88643253Y-77566401D01*
X88657868Y-77586107D01*
X88670480Y-77607150D01*
X88680970Y-77629329D01*
X88689235Y-77652428D01*
X88695196Y-77676227D01*
X88698796Y-77700495D01*
X88700000Y-77724999D01*
X88700000Y-78375001D01*
X88698796Y-78399505D01*
X88695196Y-78423773D01*
X88689235Y-78447572D01*
X88680970Y-78470671D01*
X88670480Y-78492850D01*
X88657868Y-78513893D01*
X88643253Y-78533599D01*
X88626777Y-78551777D01*
X88608599Y-78568253D01*
X88588893Y-78582868D01*
X88567850Y-78595480D01*
X88545671Y-78605970D01*
X88522572Y-78614235D01*
X88498773Y-78620196D01*
X88474505Y-78623796D01*
X88450001Y-78625000D01*
X87549999Y-78625000D01*
X87525495Y-78623796D01*
X87501227Y-78620196D01*
X87477428Y-78614235D01*
X87454329Y-78605970D01*
X87432150Y-78595480D01*
X87411107Y-78582868D01*
X87391401Y-78568253D01*
X87373223Y-78551777D01*
X87356747Y-78533599D01*
X87342132Y-78513893D01*
X87329520Y-78492850D01*
X87319030Y-78470671D01*
X87310765Y-78447572D01*
X87304804Y-78423773D01*
X87301204Y-78399505D01*
X87300000Y-78375001D01*
X87300000Y-77724999D01*
X87301204Y-77700495D01*
X87304804Y-77676227D01*
X87310765Y-77652428D01*
X87319030Y-77629329D01*
X87329520Y-77607150D01*
X87342132Y-77586107D01*
X87356747Y-77566401D01*
X87373223Y-77548223D01*
X87391401Y-77531747D01*
X87411107Y-77517132D01*
X87432150Y-77504520D01*
X87454329Y-77494030D01*
X87477428Y-77485765D01*
X87501227Y-77479804D01*
X87525495Y-77476204D01*
X87549999Y-77475000D01*
X88450001Y-77475000D01*
X88474505Y-77476204D01*
X88474505Y-77476204D01*
G37*
D12*
G04 #@! TD*
G04 #@! TO.P,C5,1*
G04 #@! TO.N,+5V*
X88000000Y-78050000D03*
D11*
G04 #@! TO.N,+5V*
G04 #@! TO.C,C6*
G36*
X78474505Y-77476204D02*
X78498773Y-77479804D01*
X78522572Y-77485765D01*
X78545671Y-77494030D01*
X78567850Y-77504520D01*
X78588893Y-77517132D01*
X78608599Y-77531747D01*
X78626777Y-77548223D01*
X78643253Y-77566401D01*
X78657868Y-77586107D01*
X78670480Y-77607150D01*
X78680970Y-77629329D01*
X78689235Y-77652428D01*
X78695196Y-77676227D01*
X78698796Y-77700495D01*
X78700000Y-77724999D01*
X78700000Y-78375001D01*
X78698796Y-78399505D01*
X78695196Y-78423773D01*
X78689235Y-78447572D01*
X78680970Y-78470671D01*
X78670480Y-78492850D01*
X78657868Y-78513893D01*
X78643253Y-78533599D01*
X78626777Y-78551777D01*
X78608599Y-78568253D01*
X78588893Y-78582868D01*
X78567850Y-78595480D01*
X78545671Y-78605970D01*
X78522572Y-78614235D01*
X78498773Y-78620196D01*
X78474505Y-78623796D01*
X78450001Y-78625000D01*
X77549999Y-78625000D01*
X77525495Y-78623796D01*
X77501227Y-78620196D01*
X77477428Y-78614235D01*
X77454329Y-78605970D01*
X77432150Y-78595480D01*
X77411107Y-78582868D01*
X77391401Y-78568253D01*
X77373223Y-78551777D01*
X77356747Y-78533599D01*
X77342132Y-78513893D01*
X77329520Y-78492850D01*
X77319030Y-78470671D01*
X77310765Y-78447572D01*
X77304804Y-78423773D01*
X77301204Y-78399505D01*
X77300000Y-78375001D01*
X77300000Y-77724999D01*
X77301204Y-77700495D01*
X77304804Y-77676227D01*
X77310765Y-77652428D01*
X77319030Y-77629329D01*
X77329520Y-77607150D01*
X77342132Y-77586107D01*
X77356747Y-77566401D01*
X77373223Y-77548223D01*
X77391401Y-77531747D01*
X77411107Y-77517132D01*
X77432150Y-77504520D01*
X77454329Y-77494030D01*
X77477428Y-77485765D01*
X77501227Y-77479804D01*
X77525495Y-77476204D01*
X77549999Y-77475000D01*
X78450001Y-77475000D01*
X78474505Y-77476204D01*
X78474505Y-77476204D01*
G37*
D12*
G04 #@! TD*
G04 #@! TO.P,C6,1*
G04 #@! TO.N,+5V*
X78000000Y-78050000D03*
D11*
G04 #@! TO.N,GND*
G04 #@! TO.C,C6*
G36*
X78474505Y-75426204D02*
X78498773Y-75429804D01*
X78522572Y-75435765D01*
X78545671Y-75444030D01*
X78567850Y-75454520D01*
X78588893Y-75467132D01*
X78608599Y-75481747D01*
X78626777Y-75498223D01*
X78643253Y-75516401D01*
X78657868Y-75536107D01*
X78670480Y-75557150D01*
X78680970Y-75579329D01*
X78689235Y-75602428D01*
X78695196Y-75626227D01*
X78698796Y-75650495D01*
X78700000Y-75674999D01*
X78700000Y-76325001D01*
X78698796Y-76349505D01*
X78695196Y-76373773D01*
X78689235Y-76397572D01*
X78680970Y-76420671D01*
X78670480Y-76442850D01*
X78657868Y-76463893D01*
X78643253Y-76483599D01*
X78626777Y-76501777D01*
X78608599Y-76518253D01*
X78588893Y-76532868D01*
X78567850Y-76545480D01*
X78545671Y-76555970D01*
X78522572Y-76564235D01*
X78498773Y-76570196D01*
X78474505Y-76573796D01*
X78450001Y-76575000D01*
X77549999Y-76575000D01*
X77525495Y-76573796D01*
X77501227Y-76570196D01*
X77477428Y-76564235D01*
X77454329Y-76555970D01*
X77432150Y-76545480D01*
X77411107Y-76532868D01*
X77391401Y-76518253D01*
X77373223Y-76501777D01*
X77356747Y-76483599D01*
X77342132Y-76463893D01*
X77329520Y-76442850D01*
X77319030Y-76420671D01*
X77310765Y-76397572D01*
X77304804Y-76373773D01*
X77301204Y-76349505D01*
X77300000Y-76325001D01*
X77300000Y-75674999D01*
X77301204Y-75650495D01*
X77304804Y-75626227D01*
X77310765Y-75602428D01*
X77319030Y-75579329D01*
X77329520Y-75557150D01*
X77342132Y-75536107D01*
X77356747Y-75516401D01*
X77373223Y-75498223D01*
X77391401Y-75481747D01*
X77411107Y-75467132D01*
X77432150Y-75454520D01*
X77454329Y-75444030D01*
X77477428Y-75435765D01*
X77501227Y-75429804D01*
X77525495Y-75426204D01*
X77549999Y-75425000D01*
X78450001Y-75425000D01*
X78474505Y-75426204D01*
X78474505Y-75426204D01*
G37*
D12*
G04 #@! TD*
G04 #@! TO.P,C6,2*
G04 #@! TO.N,GND*
X78000000Y-76000000D03*
D11*
G04 #@! TO.N,GND*
G04 #@! TO.C,C7*
G36*
X113474505Y-75401204D02*
X113498773Y-75404804D01*
X113522572Y-75410765D01*
X113545671Y-75419030D01*
X113567850Y-75429520D01*
X113588893Y-75442132D01*
X113608599Y-75456747D01*
X113626777Y-75473223D01*
X113643253Y-75491401D01*
X113657868Y-75511107D01*
X113670480Y-75532150D01*
X113680970Y-75554329D01*
X113689235Y-75577428D01*
X113695196Y-75601227D01*
X113698796Y-75625495D01*
X113700000Y-75649999D01*
X113700000Y-76300001D01*
X113698796Y-76324505D01*
X113695196Y-76348773D01*
X113689235Y-76372572D01*
X113680970Y-76395671D01*
X113670480Y-76417850D01*
X113657868Y-76438893D01*
X113643253Y-76458599D01*
X113626777Y-76476777D01*
X113608599Y-76493253D01*
X113588893Y-76507868D01*
X113567850Y-76520480D01*
X113545671Y-76530970D01*
X113522572Y-76539235D01*
X113498773Y-76545196D01*
X113474505Y-76548796D01*
X113450001Y-76550000D01*
X112549999Y-76550000D01*
X112525495Y-76548796D01*
X112501227Y-76545196D01*
X112477428Y-76539235D01*
X112454329Y-76530970D01*
X112432150Y-76520480D01*
X112411107Y-76507868D01*
X112391401Y-76493253D01*
X112373223Y-76476777D01*
X112356747Y-76458599D01*
X112342132Y-76438893D01*
X112329520Y-76417850D01*
X112319030Y-76395671D01*
X112310765Y-76372572D01*
X112304804Y-76348773D01*
X112301204Y-76324505D01*
X112300000Y-76300001D01*
X112300000Y-75649999D01*
X112301204Y-75625495D01*
X112304804Y-75601227D01*
X112310765Y-75577428D01*
X112319030Y-75554329D01*
X112329520Y-75532150D01*
X112342132Y-75511107D01*
X112356747Y-75491401D01*
X112373223Y-75473223D01*
X112391401Y-75456747D01*
X112411107Y-75442132D01*
X112432150Y-75429520D01*
X112454329Y-75419030D01*
X112477428Y-75410765D01*
X112501227Y-75404804D01*
X112525495Y-75401204D01*
X112549999Y-75400000D01*
X113450001Y-75400000D01*
X113474505Y-75401204D01*
X113474505Y-75401204D01*
G37*
D12*
G04 #@! TD*
G04 #@! TO.P,C7,2*
G04 #@! TO.N,GND*
X113000000Y-75975000D03*
D11*
G04 #@! TO.N,+5V*
G04 #@! TO.C,C7*
G36*
X113474505Y-77451204D02*
X113498773Y-77454804D01*
X113522572Y-77460765D01*
X113545671Y-77469030D01*
X113567850Y-77479520D01*
X113588893Y-77492132D01*
X113608599Y-77506747D01*
X113626777Y-77523223D01*
X113643253Y-77541401D01*
X113657868Y-77561107D01*
X113670480Y-77582150D01*
X113680970Y-77604329D01*
X113689235Y-77627428D01*
X113695196Y-77651227D01*
X113698796Y-77675495D01*
X113700000Y-77699999D01*
X113700000Y-78350001D01*
X113698796Y-78374505D01*
X113695196Y-78398773D01*
X113689235Y-78422572D01*
X113680970Y-78445671D01*
X113670480Y-78467850D01*
X113657868Y-78488893D01*
X113643253Y-78508599D01*
X113626777Y-78526777D01*
X113608599Y-78543253D01*
X113588893Y-78557868D01*
X113567850Y-78570480D01*
X113545671Y-78580970D01*
X113522572Y-78589235D01*
X113498773Y-78595196D01*
X113474505Y-78598796D01*
X113450001Y-78600000D01*
X112549999Y-78600000D01*
X112525495Y-78598796D01*
X112501227Y-78595196D01*
X112477428Y-78589235D01*
X112454329Y-78580970D01*
X112432150Y-78570480D01*
X112411107Y-78557868D01*
X112391401Y-78543253D01*
X112373223Y-78526777D01*
X112356747Y-78508599D01*
X112342132Y-78488893D01*
X112329520Y-78467850D01*
X112319030Y-78445671D01*
X112310765Y-78422572D01*
X112304804Y-78398773D01*
X112301204Y-78374505D01*
X112300000Y-78350001D01*
X112300000Y-77699999D01*
X112301204Y-77675495D01*
X112304804Y-77651227D01*
X112310765Y-77627428D01*
X112319030Y-77604329D01*
X112329520Y-77582150D01*
X112342132Y-77561107D01*
X112356747Y-77541401D01*
X112373223Y-77523223D01*
X112391401Y-77506747D01*
X112411107Y-77492132D01*
X112432150Y-77479520D01*
X112454329Y-77469030D01*
X112477428Y-77460765D01*
X112501227Y-77454804D01*
X112525495Y-77451204D01*
X112549999Y-77450000D01*
X113450001Y-77450000D01*
X113474505Y-77451204D01*
X113474505Y-77451204D01*
G37*
D12*
G04 #@! TD*
G04 #@! TO.P,C7,1*
G04 #@! TO.N,+5V*
X113000000Y-78025000D03*
D11*
G04 #@! TO.N,Net-(C1-Pad1)*
G04 #@! TO.C,C1*
G36*
X108299505Y-82301204D02*
X108323773Y-82304804D01*
X108347572Y-82310765D01*
X108370671Y-82319030D01*
X108392850Y-82329520D01*
X108413893Y-82342132D01*
X108433599Y-82356747D01*
X108451777Y-82373223D01*
X108468253Y-82391401D01*
X108482868Y-82411107D01*
X108495480Y-82432150D01*
X108505970Y-82454329D01*
X108514235Y-82477428D01*
X108520196Y-82501227D01*
X108523796Y-82525495D01*
X108525000Y-82549999D01*
X108525000Y-83450001D01*
X108523796Y-83474505D01*
X108520196Y-83498773D01*
X108514235Y-83522572D01*
X108505970Y-83545671D01*
X108495480Y-83567850D01*
X108482868Y-83588893D01*
X108468253Y-83608599D01*
X108451777Y-83626777D01*
X108433599Y-83643253D01*
X108413893Y-83657868D01*
X108392850Y-83670480D01*
X108370671Y-83680970D01*
X108347572Y-83689235D01*
X108323773Y-83695196D01*
X108299505Y-83698796D01*
X108275001Y-83700000D01*
X107624999Y-83700000D01*
X107600495Y-83698796D01*
X107576227Y-83695196D01*
X107552428Y-83689235D01*
X107529329Y-83680970D01*
X107507150Y-83670480D01*
X107486107Y-83657868D01*
X107466401Y-83643253D01*
X107448223Y-83626777D01*
X107431747Y-83608599D01*
X107417132Y-83588893D01*
X107404520Y-83567850D01*
X107394030Y-83545671D01*
X107385765Y-83522572D01*
X107379804Y-83498773D01*
X107376204Y-83474505D01*
X107375000Y-83450001D01*
X107375000Y-82549999D01*
X107376204Y-82525495D01*
X107379804Y-82501227D01*
X107385765Y-82477428D01*
X107394030Y-82454329D01*
X107404520Y-82432150D01*
X107417132Y-82411107D01*
X107431747Y-82391401D01*
X107448223Y-82373223D01*
X107466401Y-82356747D01*
X107486107Y-82342132D01*
X107507150Y-82329520D01*
X107529329Y-82319030D01*
X107552428Y-82310765D01*
X107576227Y-82304804D01*
X107600495Y-82301204D01*
X107624999Y-82300000D01*
X108275001Y-82300000D01*
X108299505Y-82301204D01*
X108299505Y-82301204D01*
G37*
D12*
G04 #@! TD*
G04 #@! TO.P,C1,1*
G04 #@! TO.N,Net-(C1-Pad1)*
X107950000Y-83000000D03*
D11*
G04 #@! TO.N,GND*
G04 #@! TO.C,C1*
G36*
X110349505Y-82301204D02*
X110373773Y-82304804D01*
X110397572Y-82310765D01*
X110420671Y-82319030D01*
X110442850Y-82329520D01*
X110463893Y-82342132D01*
X110483599Y-82356747D01*
X110501777Y-82373223D01*
X110518253Y-82391401D01*
X110532868Y-82411107D01*
X110545480Y-82432150D01*
X110555970Y-82454329D01*
X110564235Y-82477428D01*
X110570196Y-82501227D01*
X110573796Y-82525495D01*
X110575000Y-82549999D01*
X110575000Y-83450001D01*
X110573796Y-83474505D01*
X110570196Y-83498773D01*
X110564235Y-83522572D01*
X110555970Y-83545671D01*
X110545480Y-83567850D01*
X110532868Y-83588893D01*
X110518253Y-83608599D01*
X110501777Y-83626777D01*
X110483599Y-83643253D01*
X110463893Y-83657868D01*
X110442850Y-83670480D01*
X110420671Y-83680970D01*
X110397572Y-83689235D01*
X110373773Y-83695196D01*
X110349505Y-83698796D01*
X110325001Y-83700000D01*
X109674999Y-83700000D01*
X109650495Y-83698796D01*
X109626227Y-83695196D01*
X109602428Y-83689235D01*
X109579329Y-83680970D01*
X109557150Y-83670480D01*
X109536107Y-83657868D01*
X109516401Y-83643253D01*
X109498223Y-83626777D01*
X109481747Y-83608599D01*
X109467132Y-83588893D01*
X109454520Y-83567850D01*
X109444030Y-83545671D01*
X109435765Y-83522572D01*
X109429804Y-83498773D01*
X109426204Y-83474505D01*
X109425000Y-83450001D01*
X109425000Y-82549999D01*
X109426204Y-82525495D01*
X109429804Y-82501227D01*
X109435765Y-82477428D01*
X109444030Y-82454329D01*
X109454520Y-82432150D01*
X109467132Y-82411107D01*
X109481747Y-82391401D01*
X109498223Y-82373223D01*
X109516401Y-82356747D01*
X109536107Y-82342132D01*
X109557150Y-82329520D01*
X109579329Y-82319030D01*
X109602428Y-82310765D01*
X109626227Y-82304804D01*
X109650495Y-82301204D01*
X109674999Y-82300000D01*
X110325001Y-82300000D01*
X110349505Y-82301204D01*
X110349505Y-82301204D01*
G37*
D12*
G04 #@! TD*
G04 #@! TO.P,C1,2*
G04 #@! TO.N,GND*
X110000000Y-83000000D03*
D13*
G04 #@! TO.P,J4,1*
G04 #@! TO.N,Pino11*
X73000000Y-71380000D03*
D14*
G04 #@! TO.P,J4,2*
G04 #@! TO.N,Pino12*
X73000000Y-73920000D03*
G04 #@! TO.P,J4,3*
G04 #@! TO.N,Pino18*
X73000000Y-76460000D03*
G04 #@! TO.P,J4,4*
G04 #@! TO.N,Pino19*
X73000000Y-79000000D03*
G04 #@! TO.P,J4,5*
G04 #@! TO.N,Pino20*
X73000000Y-81540000D03*
G04 #@! TO.P,J4,6*
G04 #@! TO.N,Pino21*
X73000000Y-84080000D03*
G04 #@! TD*
G04 #@! TO.P,J3,10*
G04 #@! TO.N,Pino33*
X107620000Y-92000000D03*
G04 #@! TO.P,J3,9*
G04 #@! TO.N,Pino32*
X105080000Y-92000000D03*
G04 #@! TO.P,J3,8*
G04 #@! TO.N,Pino31*
X102540000Y-92000000D03*
G04 #@! TO.P,J3,7*
G04 #@! TO.N,Pino30*
X100000000Y-92000000D03*
G04 #@! TO.P,J3,6*
G04 #@! TO.N,Pino29*
X97460000Y-92000000D03*
G04 #@! TO.P,J3,5*
G04 #@! TO.N,Pino28*
X94920000Y-92000000D03*
G04 #@! TO.P,J3,4*
G04 #@! TO.N,Pino27*
X92380000Y-92000000D03*
G04 #@! TO.P,J3,3*
G04 #@! TO.N,Pino26*
X89840000Y-92000000D03*
G04 #@! TO.P,J3,2*
G04 #@! TO.N,Pino25*
X87300000Y-92000000D03*
D13*
G04 #@! TO.P,J3,1*
G04 #@! TO.N,Pino22*
X84760000Y-92000000D03*
G04 #@! TD*
G04 #@! TO.P,J2,1*
G04 #@! TO.N,Pino10*
X84000000Y-63000000D03*
D14*
G04 #@! TO.P,J2,2*
G04 #@! TO.N,Pino9*
X86540000Y-63000000D03*
G04 #@! TO.P,J2,3*
G04 #@! TO.N,Pino8*
X89080000Y-63000000D03*
G04 #@! TO.P,J2,4*
G04 #@! TO.N,Pino41*
X91620000Y-63000000D03*
G04 #@! TO.P,J2,5*
G04 #@! TO.N,Pino40*
X94160000Y-63000000D03*
G04 #@! TO.P,J2,6*
G04 #@! TO.N,Pino39*
X96700000Y-63000000D03*
G04 #@! TO.P,J2,7*
G04 #@! TO.N,Pino38*
X99240000Y-63000000D03*
G04 #@! TO.P,J2,8*
G04 #@! TO.N,Pino37*
X101780000Y-63000000D03*
G04 #@! TO.P,J2,9*
G04 #@! TO.N,Pino36*
X104320000Y-63000000D03*
G04 #@! TO.P,J2,10*
G04 #@! TO.N,Pino1*
X106860000Y-63000000D03*
G04 #@! TD*
D15*
G04 #@! TO.P,J1,5*
G04 #@! TO.N,GND*
X119400000Y-78600000D03*
G04 #@! TO.P,J1,4*
G04 #@! TO.N,Net-(J1-Pad4)*
X119400000Y-77800000D03*
G04 #@! TO.P,J1,3*
G04 #@! TO.N,Net-(J1-Pad3)*
X119400000Y-77000000D03*
G04 #@! TO.P,J1,2*
G04 #@! TO.N,Net-(J1-Pad2)*
X119400000Y-76200000D03*
G04 #@! TO.P,J1,1*
G04 #@! TO.N,+5V*
X119400000Y-75400000D03*
D16*
G04 #@! TO.P,J1,6*
G04 #@! TO.N,Net-(J1-Pad6)*
X120550000Y-81750000D03*
X120550000Y-72250000D03*
G04 #@! TD*
D17*
G04 #@! TO.P,Y1,1*
G04 #@! TO.N,Net-(C2-Pad2)*
X108800000Y-68000000D03*
G04 #@! TO.P,Y1,2*
G04 #@! TO.N,Net-(C3-Pad1)*
X114000000Y-68000000D03*
G04 #@! TD*
D18*
G04 #@! TO.P,U1,1*
G04 #@! TO.N,Pino1*
X102000000Y-74300000D03*
G04 #@! TO.P,U1,2*
G04 #@! TO.N,+5V*
X101200000Y-74300000D03*
G04 #@! TO.P,U1,3*
G04 #@! TO.N,Net-(R2-Pad1)*
X100400000Y-74300000D03*
G04 #@! TO.P,U1,4*
G04 #@! TO.N,Net-(R1-Pad1)*
X99600000Y-74300000D03*
G04 #@! TO.P,U1,5*
G04 #@! TO.N,GND*
X98800000Y-74300000D03*
G04 #@! TO.P,U1,6*
G04 #@! TO.N,Net-(C4-Pad1)*
X98000000Y-74300000D03*
G04 #@! TO.P,U1,7*
G04 #@! TO.N,+5V*
X97200000Y-74300000D03*
G04 #@! TO.P,U1,8*
G04 #@! TO.N,Pino8*
X96400000Y-74300000D03*
G04 #@! TO.P,U1,9*
G04 #@! TO.N,Pino9*
X95600000Y-74300000D03*
G04 #@! TO.P,U1,10*
G04 #@! TO.N,Pino10*
X94800000Y-74300000D03*
G04 #@! TO.P,U1,11*
G04 #@! TO.N,Pino11*
X94000000Y-74300000D03*
D19*
G04 #@! TO.P,U1,12*
G04 #@! TO.N,Pino12*
X92300000Y-76000000D03*
G04 #@! TO.P,U1,13*
G04 #@! TO.N,Net-(C1-Pad1)*
X92300000Y-76800000D03*
G04 #@! TO.P,U1,14*
G04 #@! TO.N,+5V*
X92300000Y-77600000D03*
G04 #@! TO.P,U1,15*
G04 #@! TO.N,GND*
X92300000Y-78400000D03*
G04 #@! TO.P,U1,16*
G04 #@! TO.N,Net-(C3-Pad1)*
X92300000Y-79200000D03*
G04 #@! TO.P,U1,17*
G04 #@! TO.N,Net-(C2-Pad2)*
X92300000Y-80000000D03*
G04 #@! TO.P,U1,18*
G04 #@! TO.N,Pino18*
X92300000Y-80800000D03*
G04 #@! TO.P,U1,19*
G04 #@! TO.N,Pino19*
X92300000Y-81600000D03*
G04 #@! TO.P,U1,20*
G04 #@! TO.N,Pino20*
X92300000Y-82400000D03*
G04 #@! TO.P,U1,21*
G04 #@! TO.N,Pino21*
X92300000Y-83200000D03*
G04 #@! TO.P,U1,22*
G04 #@! TO.N,Pino22*
X92300000Y-84000000D03*
D18*
G04 #@! TO.P,U1,23*
G04 #@! TO.N,GND*
X94000000Y-85700000D03*
G04 #@! TO.P,U1,24*
G04 #@! TO.N,+5V*
X94800000Y-85700000D03*
G04 #@! TO.P,U1,25*
G04 #@! TO.N,Pino25*
X95600000Y-85700000D03*
G04 #@! TO.P,U1,26*
G04 #@! TO.N,Pino26*
X96400000Y-85700000D03*
G04 #@! TO.P,U1,27*
G04 #@! TO.N,Pino27*
X97200000Y-85700000D03*
G04 #@! TO.P,U1,28*
G04 #@! TO.N,Pino28*
X98000000Y-85700000D03*
G04 #@! TO.P,U1,29*
G04 #@! TO.N,Pino29*
X98800000Y-85700000D03*
G04 #@! TO.P,U1,30*
G04 #@! TO.N,Pino30*
X99600000Y-85700000D03*
G04 #@! TO.P,U1,31*
G04 #@! TO.N,Pino31*
X100400000Y-85700000D03*
G04 #@! TO.P,U1,32*
G04 #@! TO.N,Pino32*
X101200000Y-85700000D03*
G04 #@! TO.P,U1,33*
G04 #@! TO.N,Pino33*
X102000000Y-85700000D03*
D19*
G04 #@! TO.P,U1,34*
G04 #@! TO.N,+5V*
X103700000Y-84000000D03*
G04 #@! TO.P,U1,35*
G04 #@! TO.N,GND*
X103700000Y-83200000D03*
G04 #@! TO.P,U1,36*
G04 #@! TO.N,Pino36*
X103700000Y-82400000D03*
G04 #@! TO.P,U1,37*
G04 #@! TO.N,Pino37*
X103700000Y-81600000D03*
G04 #@! TO.P,U1,38*
G04 #@! TO.N,Pino38*
X103700000Y-80800000D03*
G04 #@! TO.P,U1,39*
G04 #@! TO.N,Pino39*
X103700000Y-80000000D03*
G04 #@! TO.P,U1,40*
G04 #@! TO.N,Pino40*
X103700000Y-79200000D03*
G04 #@! TO.P,U1,41*
G04 #@! TO.N,Pino41*
X103700000Y-78400000D03*
G04 #@! TO.P,U1,42*
G04 #@! TO.N,Net-(U1-Pad42)*
X103700000Y-77600000D03*
G04 #@! TO.P,U1,43*
G04 #@! TO.N,GND*
X103700000Y-76800000D03*
G04 #@! TO.P,U1,44*
G04 #@! TO.N,+5V*
X103700000Y-76000000D03*
G04 #@! TD*
D11*
G04 #@! TO.N,+5V*
G04 #@! TO.C,R3*
G36*
X111487004Y-86126204D02*
X111511273Y-86129804D01*
X111535071Y-86135765D01*
X111558171Y-86144030D01*
X111580349Y-86154520D01*
X111601393Y-86167133D01*
X111621098Y-86181747D01*
X111639277Y-86198223D01*
X111655753Y-86216402D01*
X111670367Y-86236107D01*
X111682980Y-86257151D01*
X111693470Y-86279329D01*
X111701735Y-86302429D01*
X111707696Y-86326227D01*
X111711296Y-86350496D01*
X111712500Y-86375000D01*
X111712500Y-87625000D01*
X111711296Y-87649504D01*
X111707696Y-87673773D01*
X111701735Y-87697571D01*
X111693470Y-87720671D01*
X111682980Y-87742849D01*
X111670367Y-87763893D01*
X111655753Y-87783598D01*
X111639277Y-87801777D01*
X111621098Y-87818253D01*
X111601393Y-87832867D01*
X111580349Y-87845480D01*
X111558171Y-87855970D01*
X111535071Y-87864235D01*
X111511273Y-87870196D01*
X111487004Y-87873796D01*
X111462500Y-87875000D01*
X110537500Y-87875000D01*
X110512996Y-87873796D01*
X110488727Y-87870196D01*
X110464929Y-87864235D01*
X110441829Y-87855970D01*
X110419651Y-87845480D01*
X110398607Y-87832867D01*
X110378902Y-87818253D01*
X110360723Y-87801777D01*
X110344247Y-87783598D01*
X110329633Y-87763893D01*
X110317020Y-87742849D01*
X110306530Y-87720671D01*
X110298265Y-87697571D01*
X110292304Y-87673773D01*
X110288704Y-87649504D01*
X110287500Y-87625000D01*
X110287500Y-86375000D01*
X110288704Y-86350496D01*
X110292304Y-86326227D01*
X110298265Y-86302429D01*
X110306530Y-86279329D01*
X110317020Y-86257151D01*
X110329633Y-86236107D01*
X110344247Y-86216402D01*
X110360723Y-86198223D01*
X110378902Y-86181747D01*
X110398607Y-86167133D01*
X110419651Y-86154520D01*
X110441829Y-86144030D01*
X110464929Y-86135765D01*
X110488727Y-86129804D01*
X110512996Y-86126204D01*
X110537500Y-86125000D01*
X111462500Y-86125000D01*
X111487004Y-86126204D01*
X111487004Y-86126204D01*
G37*
D20*
G04 #@! TD*
G04 #@! TO.P,R3,1*
G04 #@! TO.N,+5V*
X111000000Y-87000000D03*
D11*
G04 #@! TO.N,Net-(C1-Pad1)*
G04 #@! TO.C,R3*
G36*
X108512004Y-86126204D02*
X108536273Y-86129804D01*
X108560071Y-86135765D01*
X108583171Y-86144030D01*
X108605349Y-86154520D01*
X108626393Y-86167133D01*
X108646098Y-86181747D01*
X108664277Y-86198223D01*
X108680753Y-86216402D01*
X108695367Y-86236107D01*
X108707980Y-86257151D01*
X108718470Y-86279329D01*
X108726735Y-86302429D01*
X108732696Y-86326227D01*
X108736296Y-86350496D01*
X108737500Y-86375000D01*
X108737500Y-87625000D01*
X108736296Y-87649504D01*
X108732696Y-87673773D01*
X108726735Y-87697571D01*
X108718470Y-87720671D01*
X108707980Y-87742849D01*
X108695367Y-87763893D01*
X108680753Y-87783598D01*
X108664277Y-87801777D01*
X108646098Y-87818253D01*
X108626393Y-87832867D01*
X108605349Y-87845480D01*
X108583171Y-87855970D01*
X108560071Y-87864235D01*
X108536273Y-87870196D01*
X108512004Y-87873796D01*
X108487500Y-87875000D01*
X107562500Y-87875000D01*
X107537996Y-87873796D01*
X107513727Y-87870196D01*
X107489929Y-87864235D01*
X107466829Y-87855970D01*
X107444651Y-87845480D01*
X107423607Y-87832867D01*
X107403902Y-87818253D01*
X107385723Y-87801777D01*
X107369247Y-87783598D01*
X107354633Y-87763893D01*
X107342020Y-87742849D01*
X107331530Y-87720671D01*
X107323265Y-87697571D01*
X107317304Y-87673773D01*
X107313704Y-87649504D01*
X107312500Y-87625000D01*
X107312500Y-86375000D01*
X107313704Y-86350496D01*
X107317304Y-86326227D01*
X107323265Y-86302429D01*
X107331530Y-86279329D01*
X107342020Y-86257151D01*
X107354633Y-86236107D01*
X107369247Y-86216402D01*
X107385723Y-86198223D01*
X107403902Y-86181747D01*
X107423607Y-86167133D01*
X107444651Y-86154520D01*
X107466829Y-86144030D01*
X107489929Y-86135765D01*
X107513727Y-86129804D01*
X107537996Y-86126204D01*
X107562500Y-86125000D01*
X108487500Y-86125000D01*
X108512004Y-86126204D01*
X108512004Y-86126204D01*
G37*
D20*
G04 #@! TD*
G04 #@! TO.P,R3,2*
G04 #@! TO.N,Net-(C1-Pad1)*
X108025000Y-87000000D03*
D11*
G04 #@! TO.N,Net-(J1-Pad3)*
G04 #@! TO.C,R1*
G36*
X115462004Y-81126204D02*
X115486273Y-81129804D01*
X115510071Y-81135765D01*
X115533171Y-81144030D01*
X115555349Y-81154520D01*
X115576393Y-81167133D01*
X115596098Y-81181747D01*
X115614277Y-81198223D01*
X115630753Y-81216402D01*
X115645367Y-81236107D01*
X115657980Y-81257151D01*
X115668470Y-81279329D01*
X115676735Y-81302429D01*
X115682696Y-81326227D01*
X115686296Y-81350496D01*
X115687500Y-81375000D01*
X115687500Y-82625000D01*
X115686296Y-82649504D01*
X115682696Y-82673773D01*
X115676735Y-82697571D01*
X115668470Y-82720671D01*
X115657980Y-82742849D01*
X115645367Y-82763893D01*
X115630753Y-82783598D01*
X115614277Y-82801777D01*
X115596098Y-82818253D01*
X115576393Y-82832867D01*
X115555349Y-82845480D01*
X115533171Y-82855970D01*
X115510071Y-82864235D01*
X115486273Y-82870196D01*
X115462004Y-82873796D01*
X115437500Y-82875000D01*
X114512500Y-82875000D01*
X114487996Y-82873796D01*
X114463727Y-82870196D01*
X114439929Y-82864235D01*
X114416829Y-82855970D01*
X114394651Y-82845480D01*
X114373607Y-82832867D01*
X114353902Y-82818253D01*
X114335723Y-82801777D01*
X114319247Y-82783598D01*
X114304633Y-82763893D01*
X114292020Y-82742849D01*
X114281530Y-82720671D01*
X114273265Y-82697571D01*
X114267304Y-82673773D01*
X114263704Y-82649504D01*
X114262500Y-82625000D01*
X114262500Y-81375000D01*
X114263704Y-81350496D01*
X114267304Y-81326227D01*
X114273265Y-81302429D01*
X114281530Y-81279329D01*
X114292020Y-81257151D01*
X114304633Y-81236107D01*
X114319247Y-81216402D01*
X114335723Y-81198223D01*
X114353902Y-81181747D01*
X114373607Y-81167133D01*
X114394651Y-81154520D01*
X114416829Y-81144030D01*
X114439929Y-81135765D01*
X114463727Y-81129804D01*
X114487996Y-81126204D01*
X114512500Y-81125000D01*
X115437500Y-81125000D01*
X115462004Y-81126204D01*
X115462004Y-81126204D01*
G37*
D20*
G04 #@! TD*
G04 #@! TO.P,R1,2*
G04 #@! TO.N,Net-(J1-Pad3)*
X114975000Y-82000000D03*
D11*
G04 #@! TO.N,Net-(R1-Pad1)*
G04 #@! TO.C,R1*
G36*
X112487004Y-81126204D02*
X112511273Y-81129804D01*
X112535071Y-81135765D01*
X112558171Y-81144030D01*
X112580349Y-81154520D01*
X112601393Y-81167133D01*
X112621098Y-81181747D01*
X112639277Y-81198223D01*
X112655753Y-81216402D01*
X112670367Y-81236107D01*
X112682980Y-81257151D01*
X112693470Y-81279329D01*
X112701735Y-81302429D01*
X112707696Y-81326227D01*
X112711296Y-81350496D01*
X112712500Y-81375000D01*
X112712500Y-82625000D01*
X112711296Y-82649504D01*
X112707696Y-82673773D01*
X112701735Y-82697571D01*
X112693470Y-82720671D01*
X112682980Y-82742849D01*
X112670367Y-82763893D01*
X112655753Y-82783598D01*
X112639277Y-82801777D01*
X112621098Y-82818253D01*
X112601393Y-82832867D01*
X112580349Y-82845480D01*
X112558171Y-82855970D01*
X112535071Y-82864235D01*
X112511273Y-82870196D01*
X112487004Y-82873796D01*
X112462500Y-82875000D01*
X111537500Y-82875000D01*
X111512996Y-82873796D01*
X111488727Y-82870196D01*
X111464929Y-82864235D01*
X111441829Y-82855970D01*
X111419651Y-82845480D01*
X111398607Y-82832867D01*
X111378902Y-82818253D01*
X111360723Y-82801777D01*
X111344247Y-82783598D01*
X111329633Y-82763893D01*
X111317020Y-82742849D01*
X111306530Y-82720671D01*
X111298265Y-82697571D01*
X111292304Y-82673773D01*
X111288704Y-82649504D01*
X111287500Y-82625000D01*
X111287500Y-81375000D01*
X111288704Y-81350496D01*
X111292304Y-81326227D01*
X111298265Y-81302429D01*
X111306530Y-81279329D01*
X111317020Y-81257151D01*
X111329633Y-81236107D01*
X111344247Y-81216402D01*
X111360723Y-81198223D01*
X111378902Y-81181747D01*
X111398607Y-81167133D01*
X111419651Y-81154520D01*
X111441829Y-81144030D01*
X111464929Y-81135765D01*
X111488727Y-81129804D01*
X111512996Y-81126204D01*
X111537500Y-81125000D01*
X112462500Y-81125000D01*
X112487004Y-81126204D01*
X112487004Y-81126204D01*
G37*
D20*
G04 #@! TD*
G04 #@! TO.P,R1,1*
G04 #@! TO.N,Net-(R1-Pad1)*
X112000000Y-82000000D03*
D11*
G04 #@! TO.N,Net-(R2-Pad1)*
G04 #@! TO.C,R2*
G36*
X108649504Y-75313704D02*
X108673773Y-75317304D01*
X108697571Y-75323265D01*
X108720671Y-75331530D01*
X108742849Y-75342020D01*
X108763893Y-75354633D01*
X108783598Y-75369247D01*
X108801777Y-75385723D01*
X108818253Y-75403902D01*
X108832867Y-75423607D01*
X108845480Y-75444651D01*
X108855970Y-75466829D01*
X108864235Y-75489929D01*
X108870196Y-75513727D01*
X108873796Y-75537996D01*
X108875000Y-75562500D01*
X108875000Y-76487500D01*
X108873796Y-76512004D01*
X108870196Y-76536273D01*
X108864235Y-76560071D01*
X108855970Y-76583171D01*
X108845480Y-76605349D01*
X108832867Y-76626393D01*
X108818253Y-76646098D01*
X108801777Y-76664277D01*
X108783598Y-76680753D01*
X108763893Y-76695367D01*
X108742849Y-76707980D01*
X108720671Y-76718470D01*
X108697571Y-76726735D01*
X108673773Y-76732696D01*
X108649504Y-76736296D01*
X108625000Y-76737500D01*
X107375000Y-76737500D01*
X107350496Y-76736296D01*
X107326227Y-76732696D01*
X107302429Y-76726735D01*
X107279329Y-76718470D01*
X107257151Y-76707980D01*
X107236107Y-76695367D01*
X107216402Y-76680753D01*
X107198223Y-76664277D01*
X107181747Y-76646098D01*
X107167133Y-76626393D01*
X107154520Y-76605349D01*
X107144030Y-76583171D01*
X107135765Y-76560071D01*
X107129804Y-76536273D01*
X107126204Y-76512004D01*
X107125000Y-76487500D01*
X107125000Y-75562500D01*
X107126204Y-75537996D01*
X107129804Y-75513727D01*
X107135765Y-75489929D01*
X107144030Y-75466829D01*
X107154520Y-75444651D01*
X107167133Y-75423607D01*
X107181747Y-75403902D01*
X107198223Y-75385723D01*
X107216402Y-75369247D01*
X107236107Y-75354633D01*
X107257151Y-75342020D01*
X107279329Y-75331530D01*
X107302429Y-75323265D01*
X107326227Y-75317304D01*
X107350496Y-75313704D01*
X107375000Y-75312500D01*
X108625000Y-75312500D01*
X108649504Y-75313704D01*
X108649504Y-75313704D01*
G37*
D20*
G04 #@! TD*
G04 #@! TO.P,R2,1*
G04 #@! TO.N,Net-(R2-Pad1)*
X108000000Y-76025000D03*
D11*
G04 #@! TO.N,Net-(J1-Pad2)*
G04 #@! TO.C,R2*
G36*
X108649504Y-78288704D02*
X108673773Y-78292304D01*
X108697571Y-78298265D01*
X108720671Y-78306530D01*
X108742849Y-78317020D01*
X108763893Y-78329633D01*
X108783598Y-78344247D01*
X108801777Y-78360723D01*
X108818253Y-78378902D01*
X108832867Y-78398607D01*
X108845480Y-78419651D01*
X108855970Y-78441829D01*
X108864235Y-78464929D01*
X108870196Y-78488727D01*
X108873796Y-78512996D01*
X108875000Y-78537500D01*
X108875000Y-79462500D01*
X108873796Y-79487004D01*
X108870196Y-79511273D01*
X108864235Y-79535071D01*
X108855970Y-79558171D01*
X108845480Y-79580349D01*
X108832867Y-79601393D01*
X108818253Y-79621098D01*
X108801777Y-79639277D01*
X108783598Y-79655753D01*
X108763893Y-79670367D01*
X108742849Y-79682980D01*
X108720671Y-79693470D01*
X108697571Y-79701735D01*
X108673773Y-79707696D01*
X108649504Y-79711296D01*
X108625000Y-79712500D01*
X107375000Y-79712500D01*
X107350496Y-79711296D01*
X107326227Y-79707696D01*
X107302429Y-79701735D01*
X107279329Y-79693470D01*
X107257151Y-79682980D01*
X107236107Y-79670367D01*
X107216402Y-79655753D01*
X107198223Y-79639277D01*
X107181747Y-79621098D01*
X107167133Y-79601393D01*
X107154520Y-79580349D01*
X107144030Y-79558171D01*
X107135765Y-79535071D01*
X107129804Y-79511273D01*
X107126204Y-79487004D01*
X107125000Y-79462500D01*
X107125000Y-78537500D01*
X107126204Y-78512996D01*
X107129804Y-78488727D01*
X107135765Y-78464929D01*
X107144030Y-78441829D01*
X107154520Y-78419651D01*
X107167133Y-78398607D01*
X107181747Y-78378902D01*
X107198223Y-78360723D01*
X107216402Y-78344247D01*
X107236107Y-78329633D01*
X107257151Y-78317020D01*
X107279329Y-78306530D01*
X107302429Y-78298265D01*
X107326227Y-78292304D01*
X107350496Y-78288704D01*
X107375000Y-78287500D01*
X108625000Y-78287500D01*
X108649504Y-78288704D01*
X108649504Y-78288704D01*
G37*
D20*
G04 #@! TD*
G04 #@! TO.P,R2,2*
G04 #@! TO.N,Net-(J1-Pad2)*
X108000000Y-79000000D03*
D21*
G04 #@! TO.N,Net-(C1-Pad1)*
X115000000Y-92500000D02*
X121500000Y-92500000D01*
G04 #@! TO.N,Pino8*
X96050010Y-72950010D02*
X96050010Y-69970010D01*
X89929999Y-63849999D02*
X89080000Y-63000000D01*
X96400000Y-73300000D02*
X96050010Y-72950010D01*
X96050010Y-69970010D02*
X89929999Y-63849999D01*
X96400000Y-74300000D02*
X96400000Y-73300000D01*
G04 #@! TO.N,Pino9*
X87389999Y-63849999D02*
X86540000Y-63000000D01*
X87438189Y-63849999D02*
X87389999Y-63849999D01*
X95600000Y-72011810D02*
X87438189Y-63849999D01*
X95600000Y-74300000D02*
X95600000Y-72011810D01*
G04 #@! TO.N,Pino10*
X84000000Y-65638190D02*
X84000000Y-64100000D01*
X87386820Y-69025010D02*
X84000000Y-65638190D01*
X84000000Y-64100000D02*
X84000000Y-63000000D01*
X90525010Y-69025010D02*
X87386820Y-69025010D01*
X94800000Y-73300000D02*
X90525010Y-69025010D01*
X94800000Y-74300000D02*
X94800000Y-73300000D01*
G04 #@! TO.N,Pino11*
X94000000Y-74300000D02*
X91300000Y-74300000D01*
X88380000Y-71380000D02*
X73000000Y-71380000D01*
X91300000Y-74300000D02*
X88380000Y-71380000D01*
G04 #@! TO.N,Pino12*
X74202081Y-73920000D02*
X73000000Y-73920000D01*
X89745000Y-73920000D02*
X74202081Y-73920000D01*
X91825000Y-76000000D02*
X89745000Y-73920000D01*
X92300000Y-76000000D02*
X91825000Y-76000000D01*
G04 #@! TO.N,Pino18*
X77340000Y-80800000D02*
X73000000Y-76460000D01*
X92300000Y-80800000D02*
X77340000Y-80800000D01*
G04 #@! TO.N,Pino19*
X75600000Y-81600000D02*
X73000000Y-79000000D01*
X92300000Y-81600000D02*
X75600000Y-81600000D01*
G04 #@! TO.N,Pino20*
X73860000Y-82400000D02*
X73000000Y-81540000D01*
X92300000Y-82400000D02*
X73860000Y-82400000D01*
G04 #@! TO.N,Pino21*
X73880000Y-83200000D02*
X73000000Y-84080000D01*
X92300000Y-83200000D02*
X73880000Y-83200000D01*
G04 #@! TO.N,Pino22*
X84760000Y-90900000D02*
X84760000Y-92000000D01*
X91660000Y-84000000D02*
X84760000Y-90900000D01*
X92300000Y-84000000D02*
X91660000Y-84000000D01*
G04 #@! TO.N,Pino25*
X95600000Y-86700000D02*
X95300000Y-87000000D01*
X95600000Y-85700000D02*
X95600000Y-86700000D01*
X92300000Y-87000000D02*
X87300000Y-92000000D01*
X95300000Y-87000000D02*
X92300000Y-87000000D01*
G04 #@! TO.N,Pino26*
X96400000Y-86700000D02*
X94100000Y-89000000D01*
X96400000Y-85700000D02*
X96400000Y-86700000D01*
X92840000Y-89000000D02*
X89840000Y-92000000D01*
X94100000Y-89000000D02*
X92840000Y-89000000D01*
G04 #@! TO.N,Pino27*
X97200000Y-87180000D02*
X92380000Y-92000000D01*
X97200000Y-85700000D02*
X97200000Y-87180000D01*
G04 #@! TO.N,Pino28*
X98000000Y-88920000D02*
X94920000Y-92000000D01*
X98000000Y-85700000D02*
X98000000Y-88920000D01*
G04 #@! TO.N,Pino29*
X98800000Y-90660000D02*
X97460000Y-92000000D01*
X98800000Y-85700000D02*
X98800000Y-90660000D01*
G04 #@! TO.N,Pino30*
X99600000Y-91600000D02*
X100000000Y-92000000D01*
X99600000Y-85700000D02*
X99600000Y-91600000D01*
G04 #@! TO.N,Pino31*
X100400000Y-89860000D02*
X102540000Y-92000000D01*
X100400000Y-85700000D02*
X100400000Y-89860000D01*
G04 #@! TO.N,Pino32*
X101200000Y-88120000D02*
X105080000Y-92000000D01*
X101200000Y-85700000D02*
X101200000Y-88120000D01*
G04 #@! TO.N,Pino33*
X107620000Y-91795000D02*
X107620000Y-92000000D01*
X102000000Y-86175000D02*
X107620000Y-91795000D01*
X102000000Y-85700000D02*
X102000000Y-86175000D01*
G04 #@! TD*
D22*
G04 #@! TO.N,GND*
G36*
X124625001Y-94625000D02*
X70375000Y-94625000D01*
X70375000Y-91150000D01*
X83604123Y-91150000D01*
X83604123Y-92850000D01*
X83627407Y-92967054D01*
X83693712Y-93066288D01*
X83792946Y-93132593D01*
X83910000Y-93155877D01*
X85610000Y-93155877D01*
X85727054Y-93132593D01*
X85826288Y-93066288D01*
X85892593Y-92967054D01*
X85915877Y-92850000D01*
X85915877Y-92000000D01*
X86127471Y-92000000D01*
X86216724Y-92448707D01*
X86470897Y-92829103D01*
X86851293Y-93083276D01*
X87186739Y-93150000D01*
X87413261Y-93150000D01*
X87748707Y-93083276D01*
X88129103Y-92829103D01*
X88383276Y-92448707D01*
X88472529Y-92000000D01*
X88667471Y-92000000D01*
X88756724Y-92448707D01*
X89010897Y-92829103D01*
X89391293Y-93083276D01*
X89726739Y-93150000D01*
X89953261Y-93150000D01*
X90288707Y-93083276D01*
X90669103Y-92829103D01*
X90923276Y-92448707D01*
X91012529Y-92000000D01*
X91207471Y-92000000D01*
X91296724Y-92448707D01*
X91550897Y-92829103D01*
X91931293Y-93083276D01*
X92266739Y-93150000D01*
X92493261Y-93150000D01*
X92828707Y-93083276D01*
X93209103Y-92829103D01*
X93463276Y-92448707D01*
X93552529Y-92000000D01*
X93747471Y-92000000D01*
X93836724Y-92448707D01*
X94090897Y-92829103D01*
X94471293Y-93083276D01*
X94806739Y-93150000D01*
X95033261Y-93150000D01*
X95368707Y-93083276D01*
X95749103Y-92829103D01*
X96003276Y-92448707D01*
X96092529Y-92000000D01*
X96287471Y-92000000D01*
X96376724Y-92448707D01*
X96630897Y-92829103D01*
X97011293Y-93083276D01*
X97346739Y-93150000D01*
X97573261Y-93150000D01*
X97908707Y-93083276D01*
X98289103Y-92829103D01*
X98543276Y-92448707D01*
X98632529Y-92000000D01*
X98827471Y-92000000D01*
X98916724Y-92448707D01*
X99170897Y-92829103D01*
X99551293Y-93083276D01*
X99886739Y-93150000D01*
X100113261Y-93150000D01*
X100448707Y-93083276D01*
X100829103Y-92829103D01*
X101083276Y-92448707D01*
X101172529Y-92000000D01*
X101367471Y-92000000D01*
X101456724Y-92448707D01*
X101710897Y-92829103D01*
X102091293Y-93083276D01*
X102426739Y-93150000D01*
X102653261Y-93150000D01*
X102988707Y-93083276D01*
X103369103Y-92829103D01*
X103623276Y-92448707D01*
X103712529Y-92000000D01*
X103907471Y-92000000D01*
X103996724Y-92448707D01*
X104250897Y-92829103D01*
X104631293Y-93083276D01*
X104966739Y-93150000D01*
X105193261Y-93150000D01*
X105528707Y-93083276D01*
X105909103Y-92829103D01*
X106163276Y-92448707D01*
X106252529Y-92000000D01*
X106447471Y-92000000D01*
X106536724Y-92448707D01*
X106790897Y-92829103D01*
X107171293Y-93083276D01*
X107506739Y-93150000D01*
X107733261Y-93150000D01*
X108068707Y-93083276D01*
X108449103Y-92829103D01*
X108703276Y-92448707D01*
X108744508Y-92241414D01*
X113700000Y-92241414D01*
X113700000Y-92758586D01*
X113897913Y-93236391D01*
X114263609Y-93602087D01*
X114741414Y-93800000D01*
X115258586Y-93800000D01*
X115736391Y-93602087D01*
X116102087Y-93236391D01*
X116300000Y-92758586D01*
X116300000Y-92241414D01*
X120200000Y-92241414D01*
X120200000Y-92758586D01*
X120397913Y-93236391D01*
X120763609Y-93602087D01*
X121241414Y-93800000D01*
X121758586Y-93800000D01*
X122236391Y-93602087D01*
X122602087Y-93236391D01*
X122800000Y-92758586D01*
X122800000Y-92241414D01*
X122602087Y-91763609D01*
X122236391Y-91397913D01*
X121758586Y-91200000D01*
X121241414Y-91200000D01*
X120763609Y-91397913D01*
X120397913Y-91763609D01*
X120200000Y-92241414D01*
X116300000Y-92241414D01*
X116102087Y-91763609D01*
X115736391Y-91397913D01*
X115258586Y-91200000D01*
X114741414Y-91200000D01*
X114263609Y-91397913D01*
X113897913Y-91763609D01*
X113700000Y-92241414D01*
X108744508Y-92241414D01*
X108792529Y-92000000D01*
X108703276Y-91551293D01*
X108449103Y-91170897D01*
X108068707Y-90916724D01*
X107733261Y-90850000D01*
X107506739Y-90850000D01*
X107171293Y-90916724D01*
X106790897Y-91170897D01*
X106536724Y-91551293D01*
X106447471Y-92000000D01*
X106252529Y-92000000D01*
X106163276Y-91551293D01*
X105909103Y-91170897D01*
X105528707Y-90916724D01*
X105193261Y-90850000D01*
X104966739Y-90850000D01*
X104631293Y-90916724D01*
X104250897Y-91170897D01*
X103996724Y-91551293D01*
X103907471Y-92000000D01*
X103712529Y-92000000D01*
X103623276Y-91551293D01*
X103369103Y-91170897D01*
X102988707Y-90916724D01*
X102653261Y-90850000D01*
X102426739Y-90850000D01*
X102091293Y-90916724D01*
X101710897Y-91170897D01*
X101456724Y-91551293D01*
X101367471Y-92000000D01*
X101172529Y-92000000D01*
X101083276Y-91551293D01*
X100829103Y-91170897D01*
X100448707Y-90916724D01*
X100113261Y-90850000D01*
X99886739Y-90850000D01*
X99551293Y-90916724D01*
X99170897Y-91170897D01*
X98916724Y-91551293D01*
X98827471Y-92000000D01*
X98632529Y-92000000D01*
X98543276Y-91551293D01*
X98289103Y-91170897D01*
X97908707Y-90916724D01*
X97573261Y-90850000D01*
X97346739Y-90850000D01*
X97011293Y-90916724D01*
X96630897Y-91170897D01*
X96376724Y-91551293D01*
X96287471Y-92000000D01*
X96092529Y-92000000D01*
X96003276Y-91551293D01*
X95749103Y-91170897D01*
X95368707Y-90916724D01*
X95033261Y-90850000D01*
X94806739Y-90850000D01*
X94471293Y-90916724D01*
X94090897Y-91170897D01*
X93836724Y-91551293D01*
X93747471Y-92000000D01*
X93552529Y-92000000D01*
X93463276Y-91551293D01*
X93209103Y-91170897D01*
X92828707Y-90916724D01*
X92493261Y-90850000D01*
X92266739Y-90850000D01*
X91931293Y-90916724D01*
X91550897Y-91170897D01*
X91296724Y-91551293D01*
X91207471Y-92000000D01*
X91012529Y-92000000D01*
X90923276Y-91551293D01*
X90669103Y-91170897D01*
X90288707Y-90916724D01*
X89953261Y-90850000D01*
X89726739Y-90850000D01*
X89391293Y-90916724D01*
X89010897Y-91170897D01*
X88756724Y-91551293D01*
X88667471Y-92000000D01*
X88472529Y-92000000D01*
X88383276Y-91551293D01*
X88129103Y-91170897D01*
X87748707Y-90916724D01*
X87413261Y-90850000D01*
X87186739Y-90850000D01*
X86851293Y-90916724D01*
X86470897Y-91170897D01*
X86216724Y-91551293D01*
X86127471Y-92000000D01*
X85915877Y-92000000D01*
X85915877Y-91150000D01*
X85892593Y-91032946D01*
X85826288Y-90933712D01*
X85727054Y-90867407D01*
X85610000Y-90844123D01*
X83910000Y-90844123D01*
X83792946Y-90867407D01*
X83693712Y-90933712D01*
X83627407Y-91032946D01*
X83604123Y-91150000D01*
X70375000Y-91150000D01*
X70375000Y-87549999D01*
X85094123Y-87549999D01*
X85094123Y-88450001D01*
X85136437Y-88662726D01*
X85256935Y-88843065D01*
X85437274Y-88963563D01*
X85649999Y-89005877D01*
X86300001Y-89005877D01*
X86512726Y-88963563D01*
X86693065Y-88843065D01*
X86813563Y-88662726D01*
X86842000Y-88519765D01*
X86842000Y-88820938D01*
X86934562Y-89044404D01*
X87105595Y-89215437D01*
X87329061Y-89308000D01*
X87719000Y-89308000D01*
X87871000Y-89156000D01*
X87871000Y-88154000D01*
X88179000Y-88154000D01*
X88179000Y-89156000D01*
X88331000Y-89308000D01*
X88720939Y-89308000D01*
X88944405Y-89215437D01*
X89115438Y-89044404D01*
X89208000Y-88820938D01*
X89208000Y-88375000D01*
X91006623Y-88375000D01*
X91006623Y-89625000D01*
X91048937Y-89837725D01*
X91169436Y-90018064D01*
X91349775Y-90138563D01*
X91562500Y-90180877D01*
X92487500Y-90180877D01*
X92700225Y-90138563D01*
X92880564Y-90018064D01*
X93001063Y-89837725D01*
X93043377Y-89625000D01*
X93043377Y-88375000D01*
X93981623Y-88375000D01*
X93981623Y-89625000D01*
X94023937Y-89837725D01*
X94144436Y-90018064D01*
X94324775Y-90138563D01*
X94537500Y-90180877D01*
X95462500Y-90180877D01*
X95675225Y-90138563D01*
X95855564Y-90018064D01*
X95976063Y-89837725D01*
X96018377Y-89625000D01*
X96018377Y-88375000D01*
X96981623Y-88375000D01*
X96981623Y-89625000D01*
X97023937Y-89837725D01*
X97144436Y-90018064D01*
X97324775Y-90138563D01*
X97537500Y-90180877D01*
X98462500Y-90180877D01*
X98675225Y-90138563D01*
X98855564Y-90018064D01*
X98976063Y-89837725D01*
X99018377Y-89625000D01*
X99018377Y-88375000D01*
X99956623Y-88375000D01*
X99956623Y-89625000D01*
X99998937Y-89837725D01*
X100119436Y-90018064D01*
X100299775Y-90138563D01*
X100512500Y-90180877D01*
X101437500Y-90180877D01*
X101650225Y-90138563D01*
X101830564Y-90018064D01*
X101951063Y-89837725D01*
X101993377Y-89625000D01*
X101993377Y-89155066D01*
X114062723Y-89155066D01*
X114165174Y-89411040D01*
X114768703Y-89623105D01*
X115407445Y-89588067D01*
X115834826Y-89411040D01*
X115937277Y-89155066D01*
X120562723Y-89155066D01*
X120665174Y-89411040D01*
X121268703Y-89623105D01*
X121907445Y-89588067D01*
X122334826Y-89411040D01*
X122437277Y-89155066D01*
X121500000Y-88217789D01*
X120562723Y-89155066D01*
X115937277Y-89155066D01*
X115000000Y-88217789D01*
X114062723Y-89155066D01*
X101993377Y-89155066D01*
X101993377Y-88375000D01*
X101951063Y-88162275D01*
X101830564Y-87981936D01*
X101650225Y-87861437D01*
X101437500Y-87819123D01*
X100512500Y-87819123D01*
X100299775Y-87861437D01*
X100119436Y-87981936D01*
X99998937Y-88162275D01*
X99956623Y-88375000D01*
X99018377Y-88375000D01*
X98976063Y-88162275D01*
X98855564Y-87981936D01*
X98675225Y-87861437D01*
X98462500Y-87819123D01*
X97537500Y-87819123D01*
X97324775Y-87861437D01*
X97144436Y-87981936D01*
X97023937Y-88162275D01*
X96981623Y-88375000D01*
X96018377Y-88375000D01*
X95976063Y-88162275D01*
X95855564Y-87981936D01*
X95675225Y-87861437D01*
X95462500Y-87819123D01*
X94537500Y-87819123D01*
X94324775Y-87861437D01*
X94144436Y-87981936D01*
X94023937Y-88162275D01*
X93981623Y-88375000D01*
X93043377Y-88375000D01*
X93001063Y-88162275D01*
X92880564Y-87981936D01*
X92700225Y-87861437D01*
X92487500Y-87819123D01*
X91562500Y-87819123D01*
X91349775Y-87861437D01*
X91169436Y-87981936D01*
X91048937Y-88162275D01*
X91006623Y-88375000D01*
X89208000Y-88375000D01*
X89208000Y-88306000D01*
X89056000Y-88154000D01*
X88179000Y-88154000D01*
X87871000Y-88154000D01*
X87851000Y-88154000D01*
X87851000Y-87846000D01*
X87871000Y-87846000D01*
X87871000Y-86844000D01*
X88179000Y-86844000D01*
X88179000Y-87846000D01*
X89056000Y-87846000D01*
X89208000Y-87694000D01*
X89208000Y-87179062D01*
X89115438Y-86955596D01*
X88944405Y-86784563D01*
X88720939Y-86692000D01*
X88331000Y-86692000D01*
X88179000Y-86844000D01*
X87871000Y-86844000D01*
X87719000Y-86692000D01*
X87329061Y-86692000D01*
X87105595Y-86784563D01*
X86934562Y-86955596D01*
X86842000Y-87179062D01*
X86842000Y-87480235D01*
X86813563Y-87337274D01*
X86693065Y-87156935D01*
X86512726Y-87036437D01*
X86300001Y-86994123D01*
X85649999Y-86994123D01*
X85437274Y-87036437D01*
X85256935Y-87156935D01*
X85136437Y-87337274D01*
X85094123Y-87549999D01*
X70375000Y-87549999D01*
X70375000Y-86006000D01*
X93117000Y-86006000D01*
X93117000Y-86570939D01*
X93209563Y-86794405D01*
X93380596Y-86965438D01*
X93604062Y-87058000D01*
X93710500Y-87058000D01*
X93862500Y-86906000D01*
X93862500Y-85854000D01*
X93269000Y-85854000D01*
X93117000Y-86006000D01*
X70375000Y-86006000D01*
X70375000Y-84080000D01*
X71827471Y-84080000D01*
X71916724Y-84528707D01*
X72170897Y-84909103D01*
X72551293Y-85163276D01*
X72886739Y-85230000D01*
X73113261Y-85230000D01*
X73448707Y-85163276D01*
X73829103Y-84909103D01*
X73882585Y-84829061D01*
X93117000Y-84829061D01*
X93117000Y-85394000D01*
X93269000Y-85546000D01*
X93862500Y-85546000D01*
X93862500Y-84494000D01*
X94137500Y-84494000D01*
X94137500Y-85546000D01*
X94174000Y-85546000D01*
X94174000Y-85854000D01*
X94137500Y-85854000D01*
X94137500Y-86906000D01*
X94289500Y-87058000D01*
X94395938Y-87058000D01*
X94619404Y-86965438D01*
X94790437Y-86794405D01*
X94806396Y-86755877D01*
X95075000Y-86755877D01*
X95192054Y-86732593D01*
X95200000Y-86727284D01*
X95207946Y-86732593D01*
X95325000Y-86755877D01*
X95875000Y-86755877D01*
X95992054Y-86732593D01*
X96000000Y-86727284D01*
X96007946Y-86732593D01*
X96125000Y-86755877D01*
X96675000Y-86755877D01*
X96792054Y-86732593D01*
X96800000Y-86727284D01*
X96807946Y-86732593D01*
X96925000Y-86755877D01*
X97475000Y-86755877D01*
X97592054Y-86732593D01*
X97600000Y-86727284D01*
X97607946Y-86732593D01*
X97725000Y-86755877D01*
X98275000Y-86755877D01*
X98392054Y-86732593D01*
X98400000Y-86727284D01*
X98407946Y-86732593D01*
X98525000Y-86755877D01*
X99075000Y-86755877D01*
X99192054Y-86732593D01*
X99200000Y-86727284D01*
X99207946Y-86732593D01*
X99325000Y-86755877D01*
X99875000Y-86755877D01*
X99992054Y-86732593D01*
X100000000Y-86727284D01*
X100007946Y-86732593D01*
X100125000Y-86755877D01*
X100675000Y-86755877D01*
X100792054Y-86732593D01*
X100800000Y-86727284D01*
X100807946Y-86732593D01*
X100925000Y-86755877D01*
X101475000Y-86755877D01*
X101592054Y-86732593D01*
X101600000Y-86727284D01*
X101607946Y-86732593D01*
X101725000Y-86755877D01*
X102275000Y-86755877D01*
X102392054Y-86732593D01*
X102491288Y-86666288D01*
X102557593Y-86567054D01*
X102580877Y-86450000D01*
X102580877Y-86375000D01*
X107006623Y-86375000D01*
X107006623Y-87625000D01*
X107048937Y-87837725D01*
X107169436Y-88018064D01*
X107349775Y-88138563D01*
X107562500Y-88180877D01*
X108487500Y-88180877D01*
X108700225Y-88138563D01*
X108880564Y-88018064D01*
X109001063Y-87837725D01*
X109043377Y-87625000D01*
X109043377Y-86375000D01*
X109981623Y-86375000D01*
X109981623Y-87625000D01*
X110023937Y-87837725D01*
X110144436Y-88018064D01*
X110324775Y-88138563D01*
X110537500Y-88180877D01*
X111462500Y-88180877D01*
X111675225Y-88138563D01*
X111855564Y-88018064D01*
X111976063Y-87837725D01*
X111989792Y-87768703D01*
X113376895Y-87768703D01*
X113411933Y-88407445D01*
X113588960Y-88834826D01*
X113844934Y-88937277D01*
X114782211Y-88000000D01*
X115217789Y-88000000D01*
X116155066Y-88937277D01*
X116411040Y-88834826D01*
X116623105Y-88231297D01*
X116597730Y-87768703D01*
X119876895Y-87768703D01*
X119911933Y-88407445D01*
X120088960Y-88834826D01*
X120344934Y-88937277D01*
X121282211Y-88000000D01*
X121717789Y-88000000D01*
X122655066Y-88937277D01*
X122911040Y-88834826D01*
X123123105Y-88231297D01*
X123088067Y-87592555D01*
X122911040Y-87165174D01*
X122655066Y-87062723D01*
X121717789Y-88000000D01*
X121282211Y-88000000D01*
X120344934Y-87062723D01*
X120088960Y-87165174D01*
X119876895Y-87768703D01*
X116597730Y-87768703D01*
X116588067Y-87592555D01*
X116411040Y-87165174D01*
X116155066Y-87062723D01*
X115217789Y-88000000D01*
X114782211Y-88000000D01*
X113844934Y-87062723D01*
X113588960Y-87165174D01*
X113376895Y-87768703D01*
X111989792Y-87768703D01*
X112018377Y-87625000D01*
X112018377Y-86844934D01*
X114062723Y-86844934D01*
X115000000Y-87782211D01*
X115937277Y-86844934D01*
X120562723Y-86844934D01*
X121500000Y-87782211D01*
X122437277Y-86844934D01*
X122334826Y-86588960D01*
X121731297Y-86376895D01*
X121092555Y-86411933D01*
X120665174Y-86588960D01*
X120562723Y-86844934D01*
X115937277Y-86844934D01*
X115834826Y-86588960D01*
X115231297Y-86376895D01*
X114592555Y-86411933D01*
X114165174Y-86588960D01*
X114062723Y-86844934D01*
X112018377Y-86844934D01*
X112018377Y-86375000D01*
X111976063Y-86162275D01*
X111855564Y-85981936D01*
X111675225Y-85861437D01*
X111462500Y-85819123D01*
X110537500Y-85819123D01*
X110324775Y-85861437D01*
X110144436Y-85981936D01*
X110023937Y-86162275D01*
X109981623Y-86375000D01*
X109043377Y-86375000D01*
X109001063Y-86162275D01*
X108880564Y-85981936D01*
X108700225Y-85861437D01*
X108487500Y-85819123D01*
X107562500Y-85819123D01*
X107349775Y-85861437D01*
X107169436Y-85981936D01*
X107048937Y-86162275D01*
X107006623Y-86375000D01*
X102580877Y-86375000D01*
X102580877Y-84950000D01*
X102557593Y-84832946D01*
X102491288Y-84733712D01*
X102392054Y-84667407D01*
X102275000Y-84644123D01*
X101725000Y-84644123D01*
X101607946Y-84667407D01*
X101600000Y-84672716D01*
X101592054Y-84667407D01*
X101475000Y-84644123D01*
X100925000Y-84644123D01*
X100807946Y-84667407D01*
X100800000Y-84672716D01*
X100792054Y-84667407D01*
X100675000Y-84644123D01*
X100125000Y-84644123D01*
X100007946Y-84667407D01*
X100000000Y-84672716D01*
X99992054Y-84667407D01*
X99875000Y-84644123D01*
X99325000Y-84644123D01*
X99207946Y-84667407D01*
X99200000Y-84672716D01*
X99192054Y-84667407D01*
X99075000Y-84644123D01*
X98525000Y-84644123D01*
X98407946Y-84667407D01*
X98400000Y-84672716D01*
X98392054Y-84667407D01*
X98275000Y-84644123D01*
X97725000Y-84644123D01*
X97607946Y-84667407D01*
X97600000Y-84672716D01*
X97592054Y-84667407D01*
X97475000Y-84644123D01*
X96925000Y-84644123D01*
X96807946Y-84667407D01*
X96800000Y-84672716D01*
X96792054Y-84667407D01*
X96675000Y-84644123D01*
X96125000Y-84644123D01*
X96007946Y-84667407D01*
X96000000Y-84672716D01*
X95992054Y-84667407D01*
X95875000Y-84644123D01*
X95325000Y-84644123D01*
X95207946Y-84667407D01*
X95200000Y-84672716D01*
X95192054Y-84667407D01*
X95075000Y-84644123D01*
X94806396Y-84644123D01*
X94790437Y-84605595D01*
X94619404Y-84434562D01*
X94395938Y-84342000D01*
X94289500Y-84342000D01*
X94137500Y-84494000D01*
X93862500Y-84494000D01*
X93710500Y-84342000D01*
X93604062Y-84342000D01*
X93380596Y-84434562D01*
X93209563Y-84605595D01*
X93117000Y-84829061D01*
X73882585Y-84829061D01*
X74083276Y-84528707D01*
X74172529Y-84080000D01*
X74083276Y-83631293D01*
X73829103Y-83250897D01*
X73448707Y-82996724D01*
X73113261Y-82930000D01*
X72886739Y-82930000D01*
X72551293Y-82996724D01*
X72170897Y-83250897D01*
X71916724Y-83631293D01*
X71827471Y-84080000D01*
X70375000Y-84080000D01*
X70375000Y-81540000D01*
X71827471Y-81540000D01*
X71916724Y-81988707D01*
X72170897Y-82369103D01*
X72551293Y-82623276D01*
X72886739Y-82690000D01*
X73113261Y-82690000D01*
X73448707Y-82623276D01*
X73829103Y-82369103D01*
X74083276Y-81988707D01*
X74172529Y-81540000D01*
X74083276Y-81091293D01*
X73829103Y-80710897D01*
X73448707Y-80456724D01*
X73113261Y-80390000D01*
X72886739Y-80390000D01*
X72551293Y-80456724D01*
X72170897Y-80710897D01*
X71916724Y-81091293D01*
X71827471Y-81540000D01*
X70375000Y-81540000D01*
X70375000Y-79000000D01*
X71827471Y-79000000D01*
X71916724Y-79448707D01*
X72170897Y-79829103D01*
X72551293Y-80083276D01*
X72886739Y-80150000D01*
X73113261Y-80150000D01*
X73448707Y-80083276D01*
X73829103Y-79829103D01*
X74083276Y-79448707D01*
X74172529Y-79000000D01*
X74110767Y-78689500D01*
X90942000Y-78689500D01*
X90942000Y-78795938D01*
X91034562Y-79019404D01*
X91205595Y-79190437D01*
X91244123Y-79206396D01*
X91244123Y-79475000D01*
X91267407Y-79592054D01*
X91272716Y-79600000D01*
X91267407Y-79607946D01*
X91244123Y-79725000D01*
X91244123Y-80275000D01*
X91267407Y-80392054D01*
X91272716Y-80400000D01*
X91267407Y-80407946D01*
X91244123Y-80525000D01*
X91244123Y-81075000D01*
X91267407Y-81192054D01*
X91272716Y-81200000D01*
X91267407Y-81207946D01*
X91244123Y-81325000D01*
X91244123Y-81875000D01*
X91267407Y-81992054D01*
X91272716Y-82000000D01*
X91267407Y-82007946D01*
X91244123Y-82125000D01*
X91244123Y-82675000D01*
X91267407Y-82792054D01*
X91272716Y-82800000D01*
X91267407Y-82807946D01*
X91244123Y-82925000D01*
X91244123Y-83475000D01*
X91267407Y-83592054D01*
X91272716Y-83600000D01*
X91267407Y-83607946D01*
X91244123Y-83725000D01*
X91244123Y-84275000D01*
X91267407Y-84392054D01*
X91333712Y-84491288D01*
X91432946Y-84557593D01*
X91550000Y-84580877D01*
X93050000Y-84580877D01*
X93167054Y-84557593D01*
X93266288Y-84491288D01*
X93332593Y-84392054D01*
X93355877Y-84275000D01*
X93355877Y-83725000D01*
X93332593Y-83607946D01*
X93327284Y-83600000D01*
X93332593Y-83592054D01*
X93352992Y-83489500D01*
X102342000Y-83489500D01*
X102342000Y-83595938D01*
X102434562Y-83819404D01*
X102605595Y-83990437D01*
X102644123Y-84006396D01*
X102644123Y-84275000D01*
X102667407Y-84392054D01*
X102733712Y-84491288D01*
X102832946Y-84557593D01*
X102950000Y-84580877D01*
X104450000Y-84580877D01*
X104567054Y-84557593D01*
X104666288Y-84491288D01*
X104732593Y-84392054D01*
X104755877Y-84275000D01*
X104755877Y-84006396D01*
X104794405Y-83990437D01*
X104965438Y-83819404D01*
X105058000Y-83595938D01*
X105058000Y-83489500D01*
X104906000Y-83337500D01*
X103854000Y-83337500D01*
X103854000Y-83374000D01*
X103546000Y-83374000D01*
X103546000Y-83337500D01*
X102494000Y-83337500D01*
X102342000Y-83489500D01*
X93352992Y-83489500D01*
X93355877Y-83475000D01*
X93355877Y-82925000D01*
X93332593Y-82807946D01*
X93327284Y-82800000D01*
X93332593Y-82792054D01*
X93355877Y-82675000D01*
X93355877Y-82125000D01*
X93332593Y-82007946D01*
X93327284Y-82000000D01*
X93332593Y-81992054D01*
X93355877Y-81875000D01*
X93355877Y-81325000D01*
X93332593Y-81207946D01*
X93327284Y-81200000D01*
X93332593Y-81192054D01*
X93355877Y-81075000D01*
X93355877Y-80525000D01*
X93332593Y-80407946D01*
X93327284Y-80400000D01*
X93332593Y-80392054D01*
X93355877Y-80275000D01*
X93355877Y-79725000D01*
X93332593Y-79607946D01*
X93327284Y-79600000D01*
X93332593Y-79592054D01*
X93355877Y-79475000D01*
X93355877Y-79206396D01*
X93394405Y-79190437D01*
X93565438Y-79019404D01*
X93658000Y-78795938D01*
X93658000Y-78689500D01*
X93506000Y-78537500D01*
X92454000Y-78537500D01*
X92454000Y-78574000D01*
X92146000Y-78574000D01*
X92146000Y-78537500D01*
X91094000Y-78537500D01*
X90942000Y-78689500D01*
X74110767Y-78689500D01*
X74083276Y-78551293D01*
X73829103Y-78170897D01*
X73579418Y-78004062D01*
X90942000Y-78004062D01*
X90942000Y-78110500D01*
X91094000Y-78262500D01*
X92146000Y-78262500D01*
X92146000Y-78226000D01*
X92454000Y-78226000D01*
X92454000Y-78262500D01*
X93506000Y-78262500D01*
X93658000Y-78110500D01*
X93658000Y-78004062D01*
X93565438Y-77780596D01*
X93394405Y-77609563D01*
X93355877Y-77593604D01*
X93355877Y-77325000D01*
X93332593Y-77207946D01*
X93327284Y-77200000D01*
X93332593Y-77192054D01*
X93352992Y-77089500D01*
X102342000Y-77089500D01*
X102342000Y-77195938D01*
X102434562Y-77419404D01*
X102605595Y-77590437D01*
X102644123Y-77606396D01*
X102644123Y-77875000D01*
X102667407Y-77992054D01*
X102672716Y-78000000D01*
X102667407Y-78007946D01*
X102644123Y-78125000D01*
X102644123Y-78675000D01*
X102667407Y-78792054D01*
X102672716Y-78800000D01*
X102667407Y-78807946D01*
X102644123Y-78925000D01*
X102644123Y-79475000D01*
X102667407Y-79592054D01*
X102672716Y-79600000D01*
X102667407Y-79607946D01*
X102644123Y-79725000D01*
X102644123Y-80275000D01*
X102667407Y-80392054D01*
X102672716Y-80400000D01*
X102667407Y-80407946D01*
X102644123Y-80525000D01*
X102644123Y-81075000D01*
X102667407Y-81192054D01*
X102672716Y-81200000D01*
X102667407Y-81207946D01*
X102644123Y-81325000D01*
X102644123Y-81875000D01*
X102667407Y-81992054D01*
X102672716Y-82000000D01*
X102667407Y-82007946D01*
X102644123Y-82125000D01*
X102644123Y-82393604D01*
X102605595Y-82409563D01*
X102434562Y-82580596D01*
X102342000Y-82804062D01*
X102342000Y-82910500D01*
X102494000Y-83062500D01*
X103546000Y-83062500D01*
X103546000Y-83026000D01*
X103854000Y-83026000D01*
X103854000Y-83062500D01*
X104906000Y-83062500D01*
X105058000Y-82910500D01*
X105058000Y-82804062D01*
X104965438Y-82580596D01*
X104934841Y-82549999D01*
X108069123Y-82549999D01*
X108069123Y-83450001D01*
X108111437Y-83662726D01*
X108231935Y-83843065D01*
X108412274Y-83963563D01*
X108624999Y-84005877D01*
X109275001Y-84005877D01*
X109487726Y-83963563D01*
X109668065Y-83843065D01*
X109788563Y-83662726D01*
X109817000Y-83519765D01*
X109817000Y-83820938D01*
X109909562Y-84044404D01*
X110080595Y-84215437D01*
X110304061Y-84308000D01*
X110694000Y-84308000D01*
X110846000Y-84156000D01*
X110846000Y-83154000D01*
X111154000Y-83154000D01*
X111154000Y-84156000D01*
X111306000Y-84308000D01*
X111695939Y-84308000D01*
X111919405Y-84215437D01*
X112090438Y-84044404D01*
X112183000Y-83820938D01*
X112183000Y-83306000D01*
X112031000Y-83154000D01*
X111154000Y-83154000D01*
X110846000Y-83154000D01*
X110826000Y-83154000D01*
X110826000Y-82846000D01*
X110846000Y-82846000D01*
X110846000Y-81844000D01*
X111154000Y-81844000D01*
X111154000Y-82846000D01*
X112031000Y-82846000D01*
X112183000Y-82694000D01*
X112183000Y-82179062D01*
X112090438Y-81955596D01*
X111919405Y-81784563D01*
X111695939Y-81692000D01*
X111306000Y-81692000D01*
X111154000Y-81844000D01*
X110846000Y-81844000D01*
X110694000Y-81692000D01*
X110304061Y-81692000D01*
X110080595Y-81784563D01*
X109909562Y-81955596D01*
X109817000Y-82179062D01*
X109817000Y-82480235D01*
X109788563Y-82337274D01*
X109668065Y-82156935D01*
X109487726Y-82036437D01*
X109275001Y-81994123D01*
X108624999Y-81994123D01*
X108412274Y-82036437D01*
X108231935Y-82156935D01*
X108111437Y-82337274D01*
X108069123Y-82549999D01*
X104934841Y-82549999D01*
X104794405Y-82409563D01*
X104755877Y-82393604D01*
X104755877Y-82125000D01*
X104732593Y-82007946D01*
X104727284Y-82000000D01*
X104732593Y-81992054D01*
X104755877Y-81875000D01*
X104755877Y-81325000D01*
X104732593Y-81207946D01*
X104727284Y-81200000D01*
X104732593Y-81192054D01*
X104755877Y-81075000D01*
X104755877Y-80525000D01*
X104732593Y-80407946D01*
X104727284Y-80400000D01*
X104732593Y-80392054D01*
X104755877Y-80275000D01*
X104755877Y-79725000D01*
X104732593Y-79607946D01*
X104727284Y-79600000D01*
X104732593Y-79592054D01*
X104755877Y-79475000D01*
X104755877Y-78925000D01*
X104732593Y-78807946D01*
X104727284Y-78800000D01*
X104732593Y-78792054D01*
X104755877Y-78675000D01*
X104755877Y-78549999D01*
X108119123Y-78549999D01*
X108119123Y-79450001D01*
X108161437Y-79662726D01*
X108281935Y-79843065D01*
X108462274Y-79963563D01*
X108674999Y-80005877D01*
X109325001Y-80005877D01*
X109537726Y-79963563D01*
X109718065Y-79843065D01*
X109838563Y-79662726D01*
X109867000Y-79519765D01*
X109867000Y-79820938D01*
X109959562Y-80044404D01*
X110130595Y-80215437D01*
X110354061Y-80308000D01*
X110744000Y-80308000D01*
X110896000Y-80156000D01*
X110896000Y-79154000D01*
X111204000Y-79154000D01*
X111204000Y-80156000D01*
X111356000Y-80308000D01*
X111745939Y-80308000D01*
X111885962Y-80250000D01*
X119344123Y-80250000D01*
X119344123Y-83250000D01*
X119367407Y-83367054D01*
X119433712Y-83466288D01*
X119532946Y-83532593D01*
X119650000Y-83555877D01*
X121450000Y-83555877D01*
X121567054Y-83532593D01*
X121666288Y-83466288D01*
X121732593Y-83367054D01*
X121755877Y-83250000D01*
X121755877Y-80250000D01*
X121732593Y-80132946D01*
X121666288Y-80033712D01*
X121567054Y-79967407D01*
X121450000Y-79944123D01*
X119650000Y-79944123D01*
X119532946Y-79967407D01*
X119433712Y-80033712D01*
X119367407Y-80132946D01*
X119344123Y-80250000D01*
X111885962Y-80250000D01*
X111969405Y-80215437D01*
X112140438Y-80044404D01*
X112224743Y-79840870D01*
X122050000Y-79840870D01*
X122050000Y-80159130D01*
X122171793Y-80453164D01*
X122396836Y-80678207D01*
X122690870Y-80800000D01*
X123009130Y-80800000D01*
X123303164Y-80678207D01*
X123528207Y-80453164D01*
X123650000Y-80159130D01*
X123650000Y-79840870D01*
X123528207Y-79546836D01*
X123303164Y-79321793D01*
X123009130Y-79200000D01*
X122690870Y-79200000D01*
X122396836Y-79321793D01*
X122171793Y-79546836D01*
X122050000Y-79840870D01*
X112224743Y-79840870D01*
X112233000Y-79820938D01*
X112233000Y-79306000D01*
X112081000Y-79154000D01*
X111204000Y-79154000D01*
X110896000Y-79154000D01*
X110876000Y-79154000D01*
X110876000Y-78877000D01*
X118042000Y-78877000D01*
X118042000Y-78970939D01*
X118134563Y-79194405D01*
X118305596Y-79365438D01*
X118529062Y-79458000D01*
X119094000Y-79458000D01*
X119246000Y-79306000D01*
X119246000Y-78725000D01*
X119554000Y-78725000D01*
X119554000Y-79306000D01*
X119706000Y-79458000D01*
X120270938Y-79458000D01*
X120494404Y-79365438D01*
X120665437Y-79194405D01*
X120758000Y-78970939D01*
X120758000Y-78877000D01*
X120606000Y-78725000D01*
X119554000Y-78725000D01*
X119246000Y-78725000D01*
X118194000Y-78725000D01*
X118042000Y-78877000D01*
X110876000Y-78877000D01*
X110876000Y-78846000D01*
X110896000Y-78846000D01*
X110896000Y-77844000D01*
X111204000Y-77844000D01*
X111204000Y-78846000D01*
X112081000Y-78846000D01*
X112233000Y-78694000D01*
X112233000Y-78229061D01*
X118042000Y-78229061D01*
X118042000Y-78323000D01*
X118194000Y-78475000D01*
X119246000Y-78475000D01*
X119246000Y-78426000D01*
X119554000Y-78426000D01*
X119554000Y-78475000D01*
X120606000Y-78475000D01*
X120758000Y-78323000D01*
X120758000Y-78229061D01*
X120665437Y-78005595D01*
X120494404Y-77834562D01*
X120455877Y-77818604D01*
X120455877Y-77550000D01*
X120432593Y-77432946D01*
X120410580Y-77400000D01*
X120432593Y-77367054D01*
X120455877Y-77250000D01*
X120455877Y-76750000D01*
X120432593Y-76632946D01*
X120410580Y-76600000D01*
X120432593Y-76567054D01*
X120455877Y-76450000D01*
X120455877Y-75950000D01*
X120432593Y-75832946D01*
X120410580Y-75800000D01*
X120432593Y-75767054D01*
X120455877Y-75650000D01*
X120455877Y-75150000D01*
X120432593Y-75032946D01*
X120366288Y-74933712D01*
X120267054Y-74867407D01*
X120150000Y-74844123D01*
X118650000Y-74844123D01*
X118532946Y-74867407D01*
X118433712Y-74933712D01*
X118367407Y-75032946D01*
X118344123Y-75150000D01*
X118344123Y-75650000D01*
X118367407Y-75767054D01*
X118389420Y-75800000D01*
X118367407Y-75832946D01*
X118344123Y-75950000D01*
X118344123Y-76450000D01*
X118367407Y-76567054D01*
X118389420Y-76600000D01*
X118367407Y-76632946D01*
X118344123Y-76750000D01*
X118344123Y-77250000D01*
X118367407Y-77367054D01*
X118389420Y-77400000D01*
X118367407Y-77432946D01*
X118344123Y-77550000D01*
X118344123Y-77818604D01*
X118305596Y-77834562D01*
X118134563Y-78005595D01*
X118042000Y-78229061D01*
X112233000Y-78229061D01*
X112233000Y-78179062D01*
X112140438Y-77955596D01*
X111969405Y-77784563D01*
X111745939Y-77692000D01*
X111356000Y-77692000D01*
X111204000Y-77844000D01*
X110896000Y-77844000D01*
X110744000Y-77692000D01*
X110354061Y-77692000D01*
X110130595Y-77784563D01*
X109959562Y-77955596D01*
X109867000Y-78179062D01*
X109867000Y-78480235D01*
X109838563Y-78337274D01*
X109718065Y-78156935D01*
X109537726Y-78036437D01*
X109325001Y-77994123D01*
X108674999Y-77994123D01*
X108462274Y-78036437D01*
X108281935Y-78156935D01*
X108161437Y-78337274D01*
X108119123Y-78549999D01*
X104755877Y-78549999D01*
X104755877Y-78125000D01*
X104732593Y-78007946D01*
X104727284Y-78000000D01*
X104732593Y-77992054D01*
X104755877Y-77875000D01*
X104755877Y-77606396D01*
X104794405Y-77590437D01*
X104965438Y-77419404D01*
X105058000Y-77195938D01*
X105058000Y-77089500D01*
X104906000Y-76937500D01*
X103854000Y-76937500D01*
X103854000Y-76974000D01*
X103546000Y-76974000D01*
X103546000Y-76937500D01*
X102494000Y-76937500D01*
X102342000Y-77089500D01*
X93352992Y-77089500D01*
X93355877Y-77075000D01*
X93355877Y-76525000D01*
X93332593Y-76407946D01*
X93329998Y-76404062D01*
X102342000Y-76404062D01*
X102342000Y-76510500D01*
X102494000Y-76662500D01*
X103546000Y-76662500D01*
X103546000Y-76626000D01*
X103854000Y-76626000D01*
X103854000Y-76662500D01*
X104906000Y-76662500D01*
X105058000Y-76510500D01*
X105058000Y-76404062D01*
X104965438Y-76180596D01*
X104794405Y-76009563D01*
X104755877Y-75993604D01*
X104755877Y-75725000D01*
X104732593Y-75607946D01*
X104666288Y-75508712D01*
X104567054Y-75442407D01*
X104450000Y-75419123D01*
X102950000Y-75419123D01*
X102832946Y-75442407D01*
X102733712Y-75508712D01*
X102667407Y-75607946D01*
X102644123Y-75725000D01*
X102644123Y-75993604D01*
X102605595Y-76009563D01*
X102434562Y-76180596D01*
X102342000Y-76404062D01*
X93329998Y-76404062D01*
X93327284Y-76400000D01*
X93332593Y-76392054D01*
X93355877Y-76275000D01*
X93355877Y-75725000D01*
X93332593Y-75607946D01*
X93266288Y-75508712D01*
X93167054Y-75442407D01*
X93050000Y-75419123D01*
X91550000Y-75419123D01*
X91432946Y-75442407D01*
X91333712Y-75508712D01*
X91267407Y-75607946D01*
X91244123Y-75725000D01*
X91244123Y-76275000D01*
X91267407Y-76392054D01*
X91272716Y-76400000D01*
X91267407Y-76407946D01*
X91244123Y-76525000D01*
X91244123Y-77075000D01*
X91267407Y-77192054D01*
X91272716Y-77200000D01*
X91267407Y-77207946D01*
X91244123Y-77325000D01*
X91244123Y-77593604D01*
X91205595Y-77609563D01*
X91034562Y-77780596D01*
X90942000Y-78004062D01*
X73579418Y-78004062D01*
X73448707Y-77916724D01*
X73113261Y-77850000D01*
X72886739Y-77850000D01*
X72551293Y-77916724D01*
X72170897Y-78170897D01*
X71916724Y-78551293D01*
X71827471Y-79000000D01*
X70375000Y-79000000D01*
X70375000Y-76460000D01*
X71827471Y-76460000D01*
X71916724Y-76908707D01*
X72170897Y-77289103D01*
X72551293Y-77543276D01*
X72886739Y-77610000D01*
X73113261Y-77610000D01*
X73448707Y-77543276D01*
X73829103Y-77289103D01*
X74083276Y-76908707D01*
X74172529Y-76460000D01*
X74083276Y-76011293D01*
X73829103Y-75630897D01*
X73448707Y-75376724D01*
X73113261Y-75310000D01*
X72886739Y-75310000D01*
X72551293Y-75376724D01*
X72170897Y-75630897D01*
X71916724Y-76011293D01*
X71827471Y-76460000D01*
X70375000Y-76460000D01*
X70375000Y-73920000D01*
X71827471Y-73920000D01*
X71916724Y-74368707D01*
X72170897Y-74749103D01*
X72551293Y-75003276D01*
X72886739Y-75070000D01*
X73113261Y-75070000D01*
X73448707Y-75003276D01*
X73829103Y-74749103D01*
X74083276Y-74368707D01*
X74172529Y-73920000D01*
X74098932Y-73550000D01*
X93419123Y-73550000D01*
X93419123Y-75050000D01*
X93442407Y-75167054D01*
X93508712Y-75266288D01*
X93607946Y-75332593D01*
X93725000Y-75355877D01*
X94275000Y-75355877D01*
X94392054Y-75332593D01*
X94400000Y-75327284D01*
X94407946Y-75332593D01*
X94525000Y-75355877D01*
X95075000Y-75355877D01*
X95192054Y-75332593D01*
X95200000Y-75327284D01*
X95207946Y-75332593D01*
X95325000Y-75355877D01*
X95875000Y-75355877D01*
X95992054Y-75332593D01*
X96000000Y-75327284D01*
X96007946Y-75332593D01*
X96125000Y-75355877D01*
X96675000Y-75355877D01*
X96792054Y-75332593D01*
X96800000Y-75327284D01*
X96807946Y-75332593D01*
X96925000Y-75355877D01*
X97475000Y-75355877D01*
X97592054Y-75332593D01*
X97600000Y-75327284D01*
X97607946Y-75332593D01*
X97725000Y-75355877D01*
X97993604Y-75355877D01*
X98009563Y-75394405D01*
X98180596Y-75565438D01*
X98404062Y-75658000D01*
X98510500Y-75658000D01*
X98662500Y-75506000D01*
X98662500Y-74454000D01*
X98626000Y-74454000D01*
X98626000Y-74146000D01*
X98662500Y-74146000D01*
X98662500Y-73094000D01*
X98937500Y-73094000D01*
X98937500Y-74146000D01*
X98974000Y-74146000D01*
X98974000Y-74454000D01*
X98937500Y-74454000D01*
X98937500Y-75506000D01*
X99089500Y-75658000D01*
X99195938Y-75658000D01*
X99419404Y-75565438D01*
X99590437Y-75394405D01*
X99606396Y-75355877D01*
X99875000Y-75355877D01*
X99992054Y-75332593D01*
X100000000Y-75327284D01*
X100007946Y-75332593D01*
X100125000Y-75355877D01*
X100675000Y-75355877D01*
X100792054Y-75332593D01*
X100800000Y-75327284D01*
X100807946Y-75332593D01*
X100925000Y-75355877D01*
X101475000Y-75355877D01*
X101592054Y-75332593D01*
X101600000Y-75327284D01*
X101607946Y-75332593D01*
X101725000Y-75355877D01*
X102275000Y-75355877D01*
X102392054Y-75332593D01*
X102491288Y-75266288D01*
X102557593Y-75167054D01*
X102580877Y-75050000D01*
X102580877Y-73550000D01*
X102557593Y-73432946D01*
X102491288Y-73333712D01*
X102392054Y-73267407D01*
X102275000Y-73244123D01*
X101725000Y-73244123D01*
X101607946Y-73267407D01*
X101600000Y-73272716D01*
X101592054Y-73267407D01*
X101475000Y-73244123D01*
X100925000Y-73244123D01*
X100807946Y-73267407D01*
X100800000Y-73272716D01*
X100792054Y-73267407D01*
X100675000Y-73244123D01*
X100125000Y-73244123D01*
X100007946Y-73267407D01*
X100000000Y-73272716D01*
X99992054Y-73267407D01*
X99875000Y-73244123D01*
X99606396Y-73244123D01*
X99590437Y-73205595D01*
X99419404Y-73034562D01*
X99195938Y-72942000D01*
X99089500Y-72942000D01*
X98937500Y-73094000D01*
X98662500Y-73094000D01*
X98510500Y-72942000D01*
X98404062Y-72942000D01*
X98180596Y-73034562D01*
X98009563Y-73205595D01*
X97993604Y-73244123D01*
X97850151Y-73244123D01*
X97919405Y-73215437D01*
X98090438Y-73044404D01*
X98183000Y-72820938D01*
X98183000Y-72306000D01*
X98031000Y-72154000D01*
X97154000Y-72154000D01*
X97154000Y-72174000D01*
X96846000Y-72174000D01*
X96846000Y-72154000D01*
X96826000Y-72154000D01*
X96826000Y-71846000D01*
X96846000Y-71846000D01*
X96846000Y-70844000D01*
X97154000Y-70844000D01*
X97154000Y-71846000D01*
X98031000Y-71846000D01*
X98183000Y-71694000D01*
X98183000Y-71179062D01*
X98090438Y-70955596D01*
X97919405Y-70784563D01*
X97835963Y-70750000D01*
X119344123Y-70750000D01*
X119344123Y-73750000D01*
X119367407Y-73867054D01*
X119433712Y-73966288D01*
X119532946Y-74032593D01*
X119650000Y-74055877D01*
X121450000Y-74055877D01*
X121567054Y-74032593D01*
X121666288Y-73966288D01*
X121732593Y-73867054D01*
X121737801Y-73840870D01*
X122050000Y-73840870D01*
X122050000Y-74159130D01*
X122171793Y-74453164D01*
X122396836Y-74678207D01*
X122690870Y-74800000D01*
X123009130Y-74800000D01*
X123303164Y-74678207D01*
X123528207Y-74453164D01*
X123650000Y-74159130D01*
X123650000Y-73840870D01*
X123528207Y-73546836D01*
X123303164Y-73321793D01*
X123009130Y-73200000D01*
X122690870Y-73200000D01*
X122396836Y-73321793D01*
X122171793Y-73546836D01*
X122050000Y-73840870D01*
X121737801Y-73840870D01*
X121755877Y-73750000D01*
X121755877Y-70750000D01*
X121732593Y-70632946D01*
X121666288Y-70533712D01*
X121567054Y-70467407D01*
X121450000Y-70444123D01*
X119650000Y-70444123D01*
X119532946Y-70467407D01*
X119433712Y-70533712D01*
X119367407Y-70632946D01*
X119344123Y-70750000D01*
X97835963Y-70750000D01*
X97695939Y-70692000D01*
X97306000Y-70692000D01*
X97154000Y-70844000D01*
X96846000Y-70844000D01*
X96694000Y-70692000D01*
X96304061Y-70692000D01*
X96080595Y-70784563D01*
X95909562Y-70955596D01*
X95817000Y-71179062D01*
X95817000Y-71480235D01*
X95788563Y-71337274D01*
X95668065Y-71156935D01*
X95487726Y-71036437D01*
X95275001Y-70994123D01*
X94624999Y-70994123D01*
X94412274Y-71036437D01*
X94231935Y-71156935D01*
X94111437Y-71337274D01*
X94069123Y-71549999D01*
X94069123Y-72450001D01*
X94111437Y-72662726D01*
X94231935Y-72843065D01*
X94412274Y-72963563D01*
X94624999Y-73005877D01*
X95275001Y-73005877D01*
X95487726Y-72963563D01*
X95668065Y-72843065D01*
X95788563Y-72662726D01*
X95817000Y-72519765D01*
X95817000Y-72820938D01*
X95909562Y-73044404D01*
X96080595Y-73215437D01*
X96149849Y-73244123D01*
X96125000Y-73244123D01*
X96007946Y-73267407D01*
X96000000Y-73272716D01*
X95992054Y-73267407D01*
X95875000Y-73244123D01*
X95325000Y-73244123D01*
X95207946Y-73267407D01*
X95200000Y-73272716D01*
X95192054Y-73267407D01*
X95075000Y-73244123D01*
X94525000Y-73244123D01*
X94407946Y-73267407D01*
X94400000Y-73272716D01*
X94392054Y-73267407D01*
X94275000Y-73244123D01*
X93725000Y-73244123D01*
X93607946Y-73267407D01*
X93508712Y-73333712D01*
X93442407Y-73432946D01*
X93419123Y-73550000D01*
X74098932Y-73550000D01*
X74083276Y-73471293D01*
X73829103Y-73090897D01*
X73448707Y-72836724D01*
X73113261Y-72770000D01*
X72886739Y-72770000D01*
X72551293Y-72836724D01*
X72170897Y-73090897D01*
X71916724Y-73471293D01*
X71827471Y-73920000D01*
X70375000Y-73920000D01*
X70375000Y-70530000D01*
X71844123Y-70530000D01*
X71844123Y-72230000D01*
X71867407Y-72347054D01*
X71933712Y-72446288D01*
X72032946Y-72512593D01*
X72150000Y-72535877D01*
X73850000Y-72535877D01*
X73967054Y-72512593D01*
X74066288Y-72446288D01*
X74132593Y-72347054D01*
X74155877Y-72230000D01*
X74155877Y-70530000D01*
X74132593Y-70412946D01*
X74066288Y-70313712D01*
X73967054Y-70247407D01*
X73850000Y-70224123D01*
X72150000Y-70224123D01*
X72032946Y-70247407D01*
X71933712Y-70313712D01*
X71867407Y-70412946D01*
X71844123Y-70530000D01*
X70375000Y-70530000D01*
X70375000Y-67549999D01*
X81069123Y-67549999D01*
X81069123Y-68450001D01*
X81111437Y-68662726D01*
X81231935Y-68843065D01*
X81412274Y-68963563D01*
X81624999Y-69005877D01*
X82275001Y-69005877D01*
X82487726Y-68963563D01*
X82668065Y-68843065D01*
X82788563Y-68662726D01*
X82817000Y-68519765D01*
X82817000Y-68820938D01*
X82909562Y-69044404D01*
X83080595Y-69215437D01*
X83304061Y-69308000D01*
X83694000Y-69308000D01*
X83846000Y-69156000D01*
X83846000Y-68154000D01*
X84154000Y-68154000D01*
X84154000Y-69156000D01*
X84306000Y-69308000D01*
X84695939Y-69308000D01*
X84919405Y-69215437D01*
X85090438Y-69044404D01*
X85183000Y-68820938D01*
X85183000Y-68306000D01*
X85031000Y-68154000D01*
X84154000Y-68154000D01*
X83846000Y-68154000D01*
X83826000Y-68154000D01*
X83826000Y-67846000D01*
X83846000Y-67846000D01*
X83846000Y-66844000D01*
X84154000Y-66844000D01*
X84154000Y-67846000D01*
X85031000Y-67846000D01*
X85183000Y-67694000D01*
X85183000Y-67549999D01*
X87069123Y-67549999D01*
X87069123Y-68450001D01*
X87111437Y-68662726D01*
X87231935Y-68843065D01*
X87412274Y-68963563D01*
X87624999Y-69005877D01*
X88275001Y-69005877D01*
X88487726Y-68963563D01*
X88668065Y-68843065D01*
X88788563Y-68662726D01*
X88817000Y-68519765D01*
X88817000Y-68820938D01*
X88909562Y-69044404D01*
X89080595Y-69215437D01*
X89304061Y-69308000D01*
X89694000Y-69308000D01*
X89846000Y-69156000D01*
X89846000Y-68154000D01*
X90154000Y-68154000D01*
X90154000Y-69156000D01*
X90306000Y-69308000D01*
X90695939Y-69308000D01*
X90919405Y-69215437D01*
X91090438Y-69044404D01*
X91183000Y-68820938D01*
X91183000Y-68306000D01*
X93767000Y-68306000D01*
X93767000Y-68820938D01*
X93859562Y-69044404D01*
X94030595Y-69215437D01*
X94254061Y-69308000D01*
X94644000Y-69308000D01*
X94796000Y-69156000D01*
X94796000Y-68154000D01*
X93919000Y-68154000D01*
X93767000Y-68306000D01*
X91183000Y-68306000D01*
X91031000Y-68154000D01*
X90154000Y-68154000D01*
X89846000Y-68154000D01*
X89826000Y-68154000D01*
X89826000Y-67846000D01*
X89846000Y-67846000D01*
X89846000Y-66844000D01*
X90154000Y-66844000D01*
X90154000Y-67846000D01*
X91031000Y-67846000D01*
X91183000Y-67694000D01*
X91183000Y-67179062D01*
X93767000Y-67179062D01*
X93767000Y-67694000D01*
X93919000Y-67846000D01*
X94796000Y-67846000D01*
X94796000Y-66844000D01*
X95104000Y-66844000D01*
X95104000Y-67846000D01*
X95124000Y-67846000D01*
X95124000Y-68154000D01*
X95104000Y-68154000D01*
X95104000Y-69156000D01*
X95256000Y-69308000D01*
X95645939Y-69308000D01*
X95869405Y-69215437D01*
X96040438Y-69044404D01*
X96133000Y-68820938D01*
X96133000Y-68519765D01*
X96161437Y-68662726D01*
X96281935Y-68843065D01*
X96462274Y-68963563D01*
X96674999Y-69005877D01*
X97325001Y-69005877D01*
X97537726Y-68963563D01*
X97718065Y-68843065D01*
X97838563Y-68662726D01*
X97880877Y-68450001D01*
X97880877Y-67549999D01*
X97838563Y-67337274D01*
X97718065Y-67156935D01*
X97537726Y-67036437D01*
X97325001Y-66994123D01*
X96674999Y-66994123D01*
X96462274Y-67036437D01*
X96281935Y-67156935D01*
X96161437Y-67337274D01*
X96133000Y-67480235D01*
X96133000Y-67179062D01*
X96040438Y-66955596D01*
X95884842Y-66800000D01*
X99744123Y-66800000D01*
X99744123Y-69200000D01*
X99767407Y-69317054D01*
X99833712Y-69416288D01*
X99932946Y-69482593D01*
X100050000Y-69505877D01*
X103550000Y-69505877D01*
X103667054Y-69482593D01*
X103766288Y-69416288D01*
X103832593Y-69317054D01*
X103855877Y-69200000D01*
X103855877Y-66800000D01*
X104944123Y-66800000D01*
X104944123Y-69200000D01*
X104967407Y-69317054D01*
X105033712Y-69416288D01*
X105132946Y-69482593D01*
X105250000Y-69505877D01*
X108750000Y-69505877D01*
X108867054Y-69482593D01*
X108966288Y-69416288D01*
X109032593Y-69317054D01*
X109055877Y-69200000D01*
X109055877Y-66800000D01*
X109032593Y-66682946D01*
X108966288Y-66583712D01*
X108867054Y-66517407D01*
X108750000Y-66494123D01*
X105250000Y-66494123D01*
X105132946Y-66517407D01*
X105033712Y-66583712D01*
X104967407Y-66682946D01*
X104944123Y-66800000D01*
X103855877Y-66800000D01*
X103832593Y-66682946D01*
X103766288Y-66583712D01*
X103667054Y-66517407D01*
X103550000Y-66494123D01*
X100050000Y-66494123D01*
X99932946Y-66517407D01*
X99833712Y-66583712D01*
X99767407Y-66682946D01*
X99744123Y-66800000D01*
X95884842Y-66800000D01*
X95869405Y-66784563D01*
X95645939Y-66692000D01*
X95256000Y-66692000D01*
X95104000Y-66844000D01*
X94796000Y-66844000D01*
X94644000Y-66692000D01*
X94254061Y-66692000D01*
X94030595Y-66784563D01*
X93859562Y-66955596D01*
X93767000Y-67179062D01*
X91183000Y-67179062D01*
X91090438Y-66955596D01*
X90919405Y-66784563D01*
X90695939Y-66692000D01*
X90306000Y-66692000D01*
X90154000Y-66844000D01*
X89846000Y-66844000D01*
X89694000Y-66692000D01*
X89304061Y-66692000D01*
X89080595Y-66784563D01*
X88909562Y-66955596D01*
X88817000Y-67179062D01*
X88817000Y-67480235D01*
X88788563Y-67337274D01*
X88668065Y-67156935D01*
X88487726Y-67036437D01*
X88275001Y-66994123D01*
X87624999Y-66994123D01*
X87412274Y-67036437D01*
X87231935Y-67156935D01*
X87111437Y-67337274D01*
X87069123Y-67549999D01*
X85183000Y-67549999D01*
X85183000Y-67179062D01*
X85090438Y-66955596D01*
X84919405Y-66784563D01*
X84695939Y-66692000D01*
X84306000Y-66692000D01*
X84154000Y-66844000D01*
X83846000Y-66844000D01*
X83694000Y-66692000D01*
X83304061Y-66692000D01*
X83080595Y-66784563D01*
X82909562Y-66955596D01*
X82817000Y-67179062D01*
X82817000Y-67480235D01*
X82788563Y-67337274D01*
X82668065Y-67156935D01*
X82487726Y-67036437D01*
X82275001Y-66994123D01*
X81624999Y-66994123D01*
X81412274Y-67036437D01*
X81231935Y-67156935D01*
X81111437Y-67337274D01*
X81069123Y-67549999D01*
X70375000Y-67549999D01*
X70375000Y-62150000D01*
X82844123Y-62150000D01*
X82844123Y-63850000D01*
X82867407Y-63967054D01*
X82933712Y-64066288D01*
X83032946Y-64132593D01*
X83150000Y-64155877D01*
X84850000Y-64155877D01*
X84967054Y-64132593D01*
X85066288Y-64066288D01*
X85132593Y-63967054D01*
X85155877Y-63850000D01*
X85155877Y-63000000D01*
X85367471Y-63000000D01*
X85456724Y-63448707D01*
X85710897Y-63829103D01*
X86091293Y-64083276D01*
X86426739Y-64150000D01*
X86653261Y-64150000D01*
X86988707Y-64083276D01*
X87369103Y-63829103D01*
X87623276Y-63448707D01*
X87712529Y-63000000D01*
X87907471Y-63000000D01*
X87996724Y-63448707D01*
X88250897Y-63829103D01*
X88631293Y-64083276D01*
X88966739Y-64150000D01*
X89193261Y-64150000D01*
X89528707Y-64083276D01*
X89909103Y-63829103D01*
X90163276Y-63448707D01*
X90252529Y-63000000D01*
X90447471Y-63000000D01*
X90536724Y-63448707D01*
X90790897Y-63829103D01*
X91171293Y-64083276D01*
X91506739Y-64150000D01*
X91733261Y-64150000D01*
X92068707Y-64083276D01*
X92449103Y-63829103D01*
X92703276Y-63448707D01*
X92792529Y-63000000D01*
X92987471Y-63000000D01*
X93076724Y-63448707D01*
X93330897Y-63829103D01*
X93711293Y-64083276D01*
X94046739Y-64150000D01*
X94273261Y-64150000D01*
X94608707Y-64083276D01*
X94989103Y-63829103D01*
X95243276Y-63448707D01*
X95332529Y-63000000D01*
X95527471Y-63000000D01*
X95616724Y-63448707D01*
X95870897Y-63829103D01*
X96251293Y-64083276D01*
X96586739Y-64150000D01*
X96813261Y-64150000D01*
X97148707Y-64083276D01*
X97529103Y-63829103D01*
X97783276Y-63448707D01*
X97872529Y-63000000D01*
X98067471Y-63000000D01*
X98156724Y-63448707D01*
X98410897Y-63829103D01*
X98791293Y-64083276D01*
X99126739Y-64150000D01*
X99353261Y-64150000D01*
X99688707Y-64083276D01*
X100069103Y-63829103D01*
X100323276Y-63448707D01*
X100412529Y-63000000D01*
X100607471Y-63000000D01*
X100696724Y-63448707D01*
X100950897Y-63829103D01*
X101331293Y-64083276D01*
X101666739Y-64150000D01*
X101893261Y-64150000D01*
X102228707Y-64083276D01*
X102609103Y-63829103D01*
X102863276Y-63448707D01*
X102952529Y-63000000D01*
X103147471Y-63000000D01*
X103236724Y-63448707D01*
X103490897Y-63829103D01*
X103871293Y-64083276D01*
X104206739Y-64150000D01*
X104433261Y-64150000D01*
X104768707Y-64083276D01*
X105149103Y-63829103D01*
X105403276Y-63448707D01*
X105492529Y-63000000D01*
X105687471Y-63000000D01*
X105776724Y-63448707D01*
X106030897Y-63829103D01*
X106411293Y-64083276D01*
X106746739Y-64150000D01*
X106973261Y-64150000D01*
X107308707Y-64083276D01*
X107689103Y-63829103D01*
X107943276Y-63448707D01*
X108032529Y-63000000D01*
X107943276Y-62551293D01*
X107689103Y-62170897D01*
X107308707Y-61916724D01*
X106973261Y-61850000D01*
X106746739Y-61850000D01*
X106411293Y-61916724D01*
X106030897Y-62170897D01*
X105776724Y-62551293D01*
X105687471Y-63000000D01*
X105492529Y-63000000D01*
X105403276Y-62551293D01*
X105149103Y-62170897D01*
X104768707Y-61916724D01*
X104433261Y-61850000D01*
X104206739Y-61850000D01*
X103871293Y-61916724D01*
X103490897Y-62170897D01*
X103236724Y-62551293D01*
X103147471Y-63000000D01*
X102952529Y-63000000D01*
X102863276Y-62551293D01*
X102609103Y-62170897D01*
X102228707Y-61916724D01*
X101893261Y-61850000D01*
X101666739Y-61850000D01*
X101331293Y-61916724D01*
X100950897Y-62170897D01*
X100696724Y-62551293D01*
X100607471Y-63000000D01*
X100412529Y-63000000D01*
X100323276Y-62551293D01*
X100069103Y-62170897D01*
X99688707Y-61916724D01*
X99353261Y-61850000D01*
X99126739Y-61850000D01*
X98791293Y-61916724D01*
X98410897Y-62170897D01*
X98156724Y-62551293D01*
X98067471Y-63000000D01*
X97872529Y-63000000D01*
X97783276Y-62551293D01*
X97529103Y-62170897D01*
X97148707Y-61916724D01*
X96813261Y-61850000D01*
X96586739Y-61850000D01*
X96251293Y-61916724D01*
X95870897Y-62170897D01*
X95616724Y-62551293D01*
X95527471Y-63000000D01*
X95332529Y-63000000D01*
X95243276Y-62551293D01*
X94989103Y-62170897D01*
X94608707Y-61916724D01*
X94273261Y-61850000D01*
X94046739Y-61850000D01*
X93711293Y-61916724D01*
X93330897Y-62170897D01*
X93076724Y-62551293D01*
X92987471Y-63000000D01*
X92792529Y-63000000D01*
X92703276Y-62551293D01*
X92449103Y-62170897D01*
X92068707Y-61916724D01*
X91733261Y-61850000D01*
X91506739Y-61850000D01*
X91171293Y-61916724D01*
X90790897Y-62170897D01*
X90536724Y-62551293D01*
X90447471Y-63000000D01*
X90252529Y-63000000D01*
X90163276Y-62551293D01*
X89909103Y-62170897D01*
X89528707Y-61916724D01*
X89193261Y-61850000D01*
X88966739Y-61850000D01*
X88631293Y-61916724D01*
X88250897Y-62170897D01*
X87996724Y-62551293D01*
X87907471Y-63000000D01*
X87712529Y-63000000D01*
X87623276Y-62551293D01*
X87369103Y-62170897D01*
X86988707Y-61916724D01*
X86653261Y-61850000D01*
X86426739Y-61850000D01*
X86091293Y-61916724D01*
X85710897Y-62170897D01*
X85456724Y-62551293D01*
X85367471Y-63000000D01*
X85155877Y-63000000D01*
X85155877Y-62150000D01*
X85132593Y-62032946D01*
X85066288Y-61933712D01*
X84967054Y-61867407D01*
X84850000Y-61844123D01*
X83150000Y-61844123D01*
X83032946Y-61867407D01*
X82933712Y-61933712D01*
X82867407Y-62032946D01*
X82844123Y-62150000D01*
X70375000Y-62150000D01*
X70375000Y-60375000D01*
X124625000Y-60375000D01*
X124625001Y-94625000D01*
X124625001Y-94625000D01*
G37*
X124625001Y-94625000D02*
X70375000Y-94625000D01*
X70375000Y-91150000D01*
X83604123Y-91150000D01*
X83604123Y-92850000D01*
X83627407Y-92967054D01*
X83693712Y-93066288D01*
X83792946Y-93132593D01*
X83910000Y-93155877D01*
X85610000Y-93155877D01*
X85727054Y-93132593D01*
X85826288Y-93066288D01*
X85892593Y-92967054D01*
X85915877Y-92850000D01*
X85915877Y-92000000D01*
X86127471Y-92000000D01*
X86216724Y-92448707D01*
X86470897Y-92829103D01*
X86851293Y-93083276D01*
X87186739Y-93150000D01*
X87413261Y-93150000D01*
X87748707Y-93083276D01*
X88129103Y-92829103D01*
X88383276Y-92448707D01*
X88472529Y-92000000D01*
X88667471Y-92000000D01*
X88756724Y-92448707D01*
X89010897Y-92829103D01*
X89391293Y-93083276D01*
X89726739Y-93150000D01*
X89953261Y-93150000D01*
X90288707Y-93083276D01*
X90669103Y-92829103D01*
X90923276Y-92448707D01*
X91012529Y-92000000D01*
X91207471Y-92000000D01*
X91296724Y-92448707D01*
X91550897Y-92829103D01*
X91931293Y-93083276D01*
X92266739Y-93150000D01*
X92493261Y-93150000D01*
X92828707Y-93083276D01*
X93209103Y-92829103D01*
X93463276Y-92448707D01*
X93552529Y-92000000D01*
X93747471Y-92000000D01*
X93836724Y-92448707D01*
X94090897Y-92829103D01*
X94471293Y-93083276D01*
X94806739Y-93150000D01*
X95033261Y-93150000D01*
X95368707Y-93083276D01*
X95749103Y-92829103D01*
X96003276Y-92448707D01*
X96092529Y-92000000D01*
X96287471Y-92000000D01*
X96376724Y-92448707D01*
X96630897Y-92829103D01*
X97011293Y-93083276D01*
X97346739Y-93150000D01*
X97573261Y-93150000D01*
X97908707Y-93083276D01*
X98289103Y-92829103D01*
X98543276Y-92448707D01*
X98632529Y-92000000D01*
X98827471Y-92000000D01*
X98916724Y-92448707D01*
X99170897Y-92829103D01*
X99551293Y-93083276D01*
X99886739Y-93150000D01*
X100113261Y-93150000D01*
X100448707Y-93083276D01*
X100829103Y-92829103D01*
X101083276Y-92448707D01*
X101172529Y-92000000D01*
X101367471Y-92000000D01*
X101456724Y-92448707D01*
X101710897Y-92829103D01*
X102091293Y-93083276D01*
X102426739Y-93150000D01*
X102653261Y-93150000D01*
X102988707Y-93083276D01*
X103369103Y-92829103D01*
X103623276Y-92448707D01*
X103712529Y-92000000D01*
X103907471Y-92000000D01*
X103996724Y-92448707D01*
X104250897Y-92829103D01*
X104631293Y-93083276D01*
X104966739Y-93150000D01*
X105193261Y-93150000D01*
X105528707Y-93083276D01*
X105909103Y-92829103D01*
X106163276Y-92448707D01*
X106252529Y-92000000D01*
X106447471Y-92000000D01*
X106536724Y-92448707D01*
X106790897Y-92829103D01*
X107171293Y-93083276D01*
X107506739Y-93150000D01*
X107733261Y-93150000D01*
X108068707Y-93083276D01*
X108449103Y-92829103D01*
X108703276Y-92448707D01*
X108744508Y-92241414D01*
X113700000Y-92241414D01*
X113700000Y-92758586D01*
X113897913Y-93236391D01*
X114263609Y-93602087D01*
X114741414Y-93800000D01*
X115258586Y-93800000D01*
X115736391Y-93602087D01*
X116102087Y-93236391D01*
X116300000Y-92758586D01*
X116300000Y-92241414D01*
X120200000Y-92241414D01*
X120200000Y-92758586D01*
X120397913Y-93236391D01*
X120763609Y-93602087D01*
X121241414Y-93800000D01*
X121758586Y-93800000D01*
X122236391Y-93602087D01*
X122602087Y-93236391D01*
X122800000Y-92758586D01*
X122800000Y-92241414D01*
X122602087Y-91763609D01*
X122236391Y-91397913D01*
X121758586Y-91200000D01*
X121241414Y-91200000D01*
X120763609Y-91397913D01*
X120397913Y-91763609D01*
X120200000Y-92241414D01*
X116300000Y-92241414D01*
X116102087Y-91763609D01*
X115736391Y-91397913D01*
X115258586Y-91200000D01*
X114741414Y-91200000D01*
X114263609Y-91397913D01*
X113897913Y-91763609D01*
X113700000Y-92241414D01*
X108744508Y-92241414D01*
X108792529Y-92000000D01*
X108703276Y-91551293D01*
X108449103Y-91170897D01*
X108068707Y-90916724D01*
X107733261Y-90850000D01*
X107506739Y-90850000D01*
X107171293Y-90916724D01*
X106790897Y-91170897D01*
X106536724Y-91551293D01*
X106447471Y-92000000D01*
X106252529Y-92000000D01*
X106163276Y-91551293D01*
X105909103Y-91170897D01*
X105528707Y-90916724D01*
X105193261Y-90850000D01*
X104966739Y-90850000D01*
X104631293Y-90916724D01*
X104250897Y-91170897D01*
X103996724Y-91551293D01*
X103907471Y-92000000D01*
X103712529Y-92000000D01*
X103623276Y-91551293D01*
X103369103Y-91170897D01*
X102988707Y-90916724D01*
X102653261Y-90850000D01*
X102426739Y-90850000D01*
X102091293Y-90916724D01*
X101710897Y-91170897D01*
X101456724Y-91551293D01*
X101367471Y-92000000D01*
X101172529Y-92000000D01*
X101083276Y-91551293D01*
X100829103Y-91170897D01*
X100448707Y-90916724D01*
X100113261Y-90850000D01*
X99886739Y-90850000D01*
X99551293Y-90916724D01*
X99170897Y-91170897D01*
X98916724Y-91551293D01*
X98827471Y-92000000D01*
X98632529Y-92000000D01*
X98543276Y-91551293D01*
X98289103Y-91170897D01*
X97908707Y-90916724D01*
X97573261Y-90850000D01*
X97346739Y-90850000D01*
X97011293Y-90916724D01*
X96630897Y-91170897D01*
X96376724Y-91551293D01*
X96287471Y-92000000D01*
X96092529Y-92000000D01*
X96003276Y-91551293D01*
X95749103Y-91170897D01*
X95368707Y-90916724D01*
X95033261Y-90850000D01*
X94806739Y-90850000D01*
X94471293Y-90916724D01*
X94090897Y-91170897D01*
X93836724Y-91551293D01*
X93747471Y-92000000D01*
X93552529Y-92000000D01*
X93463276Y-91551293D01*
X93209103Y-91170897D01*
X92828707Y-90916724D01*
X92493261Y-90850000D01*
X92266739Y-90850000D01*
X91931293Y-90916724D01*
X91550897Y-91170897D01*
X91296724Y-91551293D01*
X91207471Y-92000000D01*
X91012529Y-92000000D01*
X90923276Y-91551293D01*
X90669103Y-91170897D01*
X90288707Y-90916724D01*
X89953261Y-90850000D01*
X89726739Y-90850000D01*
X89391293Y-90916724D01*
X89010897Y-91170897D01*
X88756724Y-91551293D01*
X88667471Y-92000000D01*
X88472529Y-92000000D01*
X88383276Y-91551293D01*
X88129103Y-91170897D01*
X87748707Y-90916724D01*
X87413261Y-90850000D01*
X87186739Y-90850000D01*
X86851293Y-90916724D01*
X86470897Y-91170897D01*
X86216724Y-91551293D01*
X86127471Y-92000000D01*
X85915877Y-92000000D01*
X85915877Y-91150000D01*
X85892593Y-91032946D01*
X85826288Y-90933712D01*
X85727054Y-90867407D01*
X85610000Y-90844123D01*
X83910000Y-90844123D01*
X83792946Y-90867407D01*
X83693712Y-90933712D01*
X83627407Y-91032946D01*
X83604123Y-91150000D01*
X70375000Y-91150000D01*
X70375000Y-87549999D01*
X85094123Y-87549999D01*
X85094123Y-88450001D01*
X85136437Y-88662726D01*
X85256935Y-88843065D01*
X85437274Y-88963563D01*
X85649999Y-89005877D01*
X86300001Y-89005877D01*
X86512726Y-88963563D01*
X86693065Y-88843065D01*
X86813563Y-88662726D01*
X86842000Y-88519765D01*
X86842000Y-88820938D01*
X86934562Y-89044404D01*
X87105595Y-89215437D01*
X87329061Y-89308000D01*
X87719000Y-89308000D01*
X87871000Y-89156000D01*
X87871000Y-88154000D01*
X88179000Y-88154000D01*
X88179000Y-89156000D01*
X88331000Y-89308000D01*
X88720939Y-89308000D01*
X88944405Y-89215437D01*
X89115438Y-89044404D01*
X89208000Y-88820938D01*
X89208000Y-88375000D01*
X91006623Y-88375000D01*
X91006623Y-89625000D01*
X91048937Y-89837725D01*
X91169436Y-90018064D01*
X91349775Y-90138563D01*
X91562500Y-90180877D01*
X92487500Y-90180877D01*
X92700225Y-90138563D01*
X92880564Y-90018064D01*
X93001063Y-89837725D01*
X93043377Y-89625000D01*
X93043377Y-88375000D01*
X93981623Y-88375000D01*
X93981623Y-89625000D01*
X94023937Y-89837725D01*
X94144436Y-90018064D01*
X94324775Y-90138563D01*
X94537500Y-90180877D01*
X95462500Y-90180877D01*
X95675225Y-90138563D01*
X95855564Y-90018064D01*
X95976063Y-89837725D01*
X96018377Y-89625000D01*
X96018377Y-88375000D01*
X96981623Y-88375000D01*
X96981623Y-89625000D01*
X97023937Y-89837725D01*
X97144436Y-90018064D01*
X97324775Y-90138563D01*
X97537500Y-90180877D01*
X98462500Y-90180877D01*
X98675225Y-90138563D01*
X98855564Y-90018064D01*
X98976063Y-89837725D01*
X99018377Y-89625000D01*
X99018377Y-88375000D01*
X99956623Y-88375000D01*
X99956623Y-89625000D01*
X99998937Y-89837725D01*
X100119436Y-90018064D01*
X100299775Y-90138563D01*
X100512500Y-90180877D01*
X101437500Y-90180877D01*
X101650225Y-90138563D01*
X101830564Y-90018064D01*
X101951063Y-89837725D01*
X101993377Y-89625000D01*
X101993377Y-89155066D01*
X114062723Y-89155066D01*
X114165174Y-89411040D01*
X114768703Y-89623105D01*
X115407445Y-89588067D01*
X115834826Y-89411040D01*
X115937277Y-89155066D01*
X120562723Y-89155066D01*
X120665174Y-89411040D01*
X121268703Y-89623105D01*
X121907445Y-89588067D01*
X122334826Y-89411040D01*
X122437277Y-89155066D01*
X121500000Y-88217789D01*
X120562723Y-89155066D01*
X115937277Y-89155066D01*
X115000000Y-88217789D01*
X114062723Y-89155066D01*
X101993377Y-89155066D01*
X101993377Y-88375000D01*
X101951063Y-88162275D01*
X101830564Y-87981936D01*
X101650225Y-87861437D01*
X101437500Y-87819123D01*
X100512500Y-87819123D01*
X100299775Y-87861437D01*
X100119436Y-87981936D01*
X99998937Y-88162275D01*
X99956623Y-88375000D01*
X99018377Y-88375000D01*
X98976063Y-88162275D01*
X98855564Y-87981936D01*
X98675225Y-87861437D01*
X98462500Y-87819123D01*
X97537500Y-87819123D01*
X97324775Y-87861437D01*
X97144436Y-87981936D01*
X97023937Y-88162275D01*
X96981623Y-88375000D01*
X96018377Y-88375000D01*
X95976063Y-88162275D01*
X95855564Y-87981936D01*
X95675225Y-87861437D01*
X95462500Y-87819123D01*
X94537500Y-87819123D01*
X94324775Y-87861437D01*
X94144436Y-87981936D01*
X94023937Y-88162275D01*
X93981623Y-88375000D01*
X93043377Y-88375000D01*
X93001063Y-88162275D01*
X92880564Y-87981936D01*
X92700225Y-87861437D01*
X92487500Y-87819123D01*
X91562500Y-87819123D01*
X91349775Y-87861437D01*
X91169436Y-87981936D01*
X91048937Y-88162275D01*
X91006623Y-88375000D01*
X89208000Y-88375000D01*
X89208000Y-88306000D01*
X89056000Y-88154000D01*
X88179000Y-88154000D01*
X87871000Y-88154000D01*
X87851000Y-88154000D01*
X87851000Y-87846000D01*
X87871000Y-87846000D01*
X87871000Y-86844000D01*
X88179000Y-86844000D01*
X88179000Y-87846000D01*
X89056000Y-87846000D01*
X89208000Y-87694000D01*
X89208000Y-87179062D01*
X89115438Y-86955596D01*
X88944405Y-86784563D01*
X88720939Y-86692000D01*
X88331000Y-86692000D01*
X88179000Y-86844000D01*
X87871000Y-86844000D01*
X87719000Y-86692000D01*
X87329061Y-86692000D01*
X87105595Y-86784563D01*
X86934562Y-86955596D01*
X86842000Y-87179062D01*
X86842000Y-87480235D01*
X86813563Y-87337274D01*
X86693065Y-87156935D01*
X86512726Y-87036437D01*
X86300001Y-86994123D01*
X85649999Y-86994123D01*
X85437274Y-87036437D01*
X85256935Y-87156935D01*
X85136437Y-87337274D01*
X85094123Y-87549999D01*
X70375000Y-87549999D01*
X70375000Y-86006000D01*
X93117000Y-86006000D01*
X93117000Y-86570939D01*
X93209563Y-86794405D01*
X93380596Y-86965438D01*
X93604062Y-87058000D01*
X93710500Y-87058000D01*
X93862500Y-86906000D01*
X93862500Y-85854000D01*
X93269000Y-85854000D01*
X93117000Y-86006000D01*
X70375000Y-86006000D01*
X70375000Y-84080000D01*
X71827471Y-84080000D01*
X71916724Y-84528707D01*
X72170897Y-84909103D01*
X72551293Y-85163276D01*
X72886739Y-85230000D01*
X73113261Y-85230000D01*
X73448707Y-85163276D01*
X73829103Y-84909103D01*
X73882585Y-84829061D01*
X93117000Y-84829061D01*
X93117000Y-85394000D01*
X93269000Y-85546000D01*
X93862500Y-85546000D01*
X93862500Y-84494000D01*
X94137500Y-84494000D01*
X94137500Y-85546000D01*
X94174000Y-85546000D01*
X94174000Y-85854000D01*
X94137500Y-85854000D01*
X94137500Y-86906000D01*
X94289500Y-87058000D01*
X94395938Y-87058000D01*
X94619404Y-86965438D01*
X94790437Y-86794405D01*
X94806396Y-86755877D01*
X95075000Y-86755877D01*
X95192054Y-86732593D01*
X95200000Y-86727284D01*
X95207946Y-86732593D01*
X95325000Y-86755877D01*
X95875000Y-86755877D01*
X95992054Y-86732593D01*
X96000000Y-86727284D01*
X96007946Y-86732593D01*
X96125000Y-86755877D01*
X96675000Y-86755877D01*
X96792054Y-86732593D01*
X96800000Y-86727284D01*
X96807946Y-86732593D01*
X96925000Y-86755877D01*
X97475000Y-86755877D01*
X97592054Y-86732593D01*
X97600000Y-86727284D01*
X97607946Y-86732593D01*
X97725000Y-86755877D01*
X98275000Y-86755877D01*
X98392054Y-86732593D01*
X98400000Y-86727284D01*
X98407946Y-86732593D01*
X98525000Y-86755877D01*
X99075000Y-86755877D01*
X99192054Y-86732593D01*
X99200000Y-86727284D01*
X99207946Y-86732593D01*
X99325000Y-86755877D01*
X99875000Y-86755877D01*
X99992054Y-86732593D01*
X100000000Y-86727284D01*
X100007946Y-86732593D01*
X100125000Y-86755877D01*
X100675000Y-86755877D01*
X100792054Y-86732593D01*
X100800000Y-86727284D01*
X100807946Y-86732593D01*
X100925000Y-86755877D01*
X101475000Y-86755877D01*
X101592054Y-86732593D01*
X101600000Y-86727284D01*
X101607946Y-86732593D01*
X101725000Y-86755877D01*
X102275000Y-86755877D01*
X102392054Y-86732593D01*
X102491288Y-86666288D01*
X102557593Y-86567054D01*
X102580877Y-86450000D01*
X102580877Y-86375000D01*
X107006623Y-86375000D01*
X107006623Y-87625000D01*
X107048937Y-87837725D01*
X107169436Y-88018064D01*
X107349775Y-88138563D01*
X107562500Y-88180877D01*
X108487500Y-88180877D01*
X108700225Y-88138563D01*
X108880564Y-88018064D01*
X109001063Y-87837725D01*
X109043377Y-87625000D01*
X109043377Y-86375000D01*
X109981623Y-86375000D01*
X109981623Y-87625000D01*
X110023937Y-87837725D01*
X110144436Y-88018064D01*
X110324775Y-88138563D01*
X110537500Y-88180877D01*
X111462500Y-88180877D01*
X111675225Y-88138563D01*
X111855564Y-88018064D01*
X111976063Y-87837725D01*
X111989792Y-87768703D01*
X113376895Y-87768703D01*
X113411933Y-88407445D01*
X113588960Y-88834826D01*
X113844934Y-88937277D01*
X114782211Y-88000000D01*
X115217789Y-88000000D01*
X116155066Y-88937277D01*
X116411040Y-88834826D01*
X116623105Y-88231297D01*
X116597730Y-87768703D01*
X119876895Y-87768703D01*
X119911933Y-88407445D01*
X120088960Y-88834826D01*
X120344934Y-88937277D01*
X121282211Y-88000000D01*
X121717789Y-88000000D01*
X122655066Y-88937277D01*
X122911040Y-88834826D01*
X123123105Y-88231297D01*
X123088067Y-87592555D01*
X122911040Y-87165174D01*
X122655066Y-87062723D01*
X121717789Y-88000000D01*
X121282211Y-88000000D01*
X120344934Y-87062723D01*
X120088960Y-87165174D01*
X119876895Y-87768703D01*
X116597730Y-87768703D01*
X116588067Y-87592555D01*
X116411040Y-87165174D01*
X116155066Y-87062723D01*
X115217789Y-88000000D01*
X114782211Y-88000000D01*
X113844934Y-87062723D01*
X113588960Y-87165174D01*
X113376895Y-87768703D01*
X111989792Y-87768703D01*
X112018377Y-87625000D01*
X112018377Y-86844934D01*
X114062723Y-86844934D01*
X115000000Y-87782211D01*
X115937277Y-86844934D01*
X120562723Y-86844934D01*
X121500000Y-87782211D01*
X122437277Y-86844934D01*
X122334826Y-86588960D01*
X121731297Y-86376895D01*
X121092555Y-86411933D01*
X120665174Y-86588960D01*
X120562723Y-86844934D01*
X115937277Y-86844934D01*
X115834826Y-86588960D01*
X115231297Y-86376895D01*
X114592555Y-86411933D01*
X114165174Y-86588960D01*
X114062723Y-86844934D01*
X112018377Y-86844934D01*
X112018377Y-86375000D01*
X111976063Y-86162275D01*
X111855564Y-85981936D01*
X111675225Y-85861437D01*
X111462500Y-85819123D01*
X110537500Y-85819123D01*
X110324775Y-85861437D01*
X110144436Y-85981936D01*
X110023937Y-86162275D01*
X109981623Y-86375000D01*
X109043377Y-86375000D01*
X109001063Y-86162275D01*
X108880564Y-85981936D01*
X108700225Y-85861437D01*
X108487500Y-85819123D01*
X107562500Y-85819123D01*
X107349775Y-85861437D01*
X107169436Y-85981936D01*
X107048937Y-86162275D01*
X107006623Y-86375000D01*
X102580877Y-86375000D01*
X102580877Y-84950000D01*
X102557593Y-84832946D01*
X102491288Y-84733712D01*
X102392054Y-84667407D01*
X102275000Y-84644123D01*
X101725000Y-84644123D01*
X101607946Y-84667407D01*
X101600000Y-84672716D01*
X101592054Y-84667407D01*
X101475000Y-84644123D01*
X100925000Y-84644123D01*
X100807946Y-84667407D01*
X100800000Y-84672716D01*
X100792054Y-84667407D01*
X100675000Y-84644123D01*
X100125000Y-84644123D01*
X100007946Y-84667407D01*
X100000000Y-84672716D01*
X99992054Y-84667407D01*
X99875000Y-84644123D01*
X99325000Y-84644123D01*
X99207946Y-84667407D01*
X99200000Y-84672716D01*
X99192054Y-84667407D01*
X99075000Y-84644123D01*
X98525000Y-84644123D01*
X98407946Y-84667407D01*
X98400000Y-84672716D01*
X98392054Y-84667407D01*
X98275000Y-84644123D01*
X97725000Y-84644123D01*
X97607946Y-84667407D01*
X97600000Y-84672716D01*
X97592054Y-84667407D01*
X97475000Y-84644123D01*
X96925000Y-84644123D01*
X96807946Y-84667407D01*
X96800000Y-84672716D01*
X96792054Y-84667407D01*
X96675000Y-84644123D01*
X96125000Y-84644123D01*
X96007946Y-84667407D01*
X96000000Y-84672716D01*
X95992054Y-84667407D01*
X95875000Y-84644123D01*
X95325000Y-84644123D01*
X95207946Y-84667407D01*
X95200000Y-84672716D01*
X95192054Y-84667407D01*
X95075000Y-84644123D01*
X94806396Y-84644123D01*
X94790437Y-84605595D01*
X94619404Y-84434562D01*
X94395938Y-84342000D01*
X94289500Y-84342000D01*
X94137500Y-84494000D01*
X93862500Y-84494000D01*
X93710500Y-84342000D01*
X93604062Y-84342000D01*
X93380596Y-84434562D01*
X93209563Y-84605595D01*
X93117000Y-84829061D01*
X73882585Y-84829061D01*
X74083276Y-84528707D01*
X74172529Y-84080000D01*
X74083276Y-83631293D01*
X73829103Y-83250897D01*
X73448707Y-82996724D01*
X73113261Y-82930000D01*
X72886739Y-82930000D01*
X72551293Y-82996724D01*
X72170897Y-83250897D01*
X71916724Y-83631293D01*
X71827471Y-84080000D01*
X70375000Y-84080000D01*
X70375000Y-81540000D01*
X71827471Y-81540000D01*
X71916724Y-81988707D01*
X72170897Y-82369103D01*
X72551293Y-82623276D01*
X72886739Y-82690000D01*
X73113261Y-82690000D01*
X73448707Y-82623276D01*
X73829103Y-82369103D01*
X74083276Y-81988707D01*
X74172529Y-81540000D01*
X74083276Y-81091293D01*
X73829103Y-80710897D01*
X73448707Y-80456724D01*
X73113261Y-80390000D01*
X72886739Y-80390000D01*
X72551293Y-80456724D01*
X72170897Y-80710897D01*
X71916724Y-81091293D01*
X71827471Y-81540000D01*
X70375000Y-81540000D01*
X70375000Y-79000000D01*
X71827471Y-79000000D01*
X71916724Y-79448707D01*
X72170897Y-79829103D01*
X72551293Y-80083276D01*
X72886739Y-80150000D01*
X73113261Y-80150000D01*
X73448707Y-80083276D01*
X73829103Y-79829103D01*
X74083276Y-79448707D01*
X74172529Y-79000000D01*
X74110767Y-78689500D01*
X90942000Y-78689500D01*
X90942000Y-78795938D01*
X91034562Y-79019404D01*
X91205595Y-79190437D01*
X91244123Y-79206396D01*
X91244123Y-79475000D01*
X91267407Y-79592054D01*
X91272716Y-79600000D01*
X91267407Y-79607946D01*
X91244123Y-79725000D01*
X91244123Y-80275000D01*
X91267407Y-80392054D01*
X91272716Y-80400000D01*
X91267407Y-80407946D01*
X91244123Y-80525000D01*
X91244123Y-81075000D01*
X91267407Y-81192054D01*
X91272716Y-81200000D01*
X91267407Y-81207946D01*
X91244123Y-81325000D01*
X91244123Y-81875000D01*
X91267407Y-81992054D01*
X91272716Y-82000000D01*
X91267407Y-82007946D01*
X91244123Y-82125000D01*
X91244123Y-82675000D01*
X91267407Y-82792054D01*
X91272716Y-82800000D01*
X91267407Y-82807946D01*
X91244123Y-82925000D01*
X91244123Y-83475000D01*
X91267407Y-83592054D01*
X91272716Y-83600000D01*
X91267407Y-83607946D01*
X91244123Y-83725000D01*
X91244123Y-84275000D01*
X91267407Y-84392054D01*
X91333712Y-84491288D01*
X91432946Y-84557593D01*
X91550000Y-84580877D01*
X93050000Y-84580877D01*
X93167054Y-84557593D01*
X93266288Y-84491288D01*
X93332593Y-84392054D01*
X93355877Y-84275000D01*
X93355877Y-83725000D01*
X93332593Y-83607946D01*
X93327284Y-83600000D01*
X93332593Y-83592054D01*
X93352992Y-83489500D01*
X102342000Y-83489500D01*
X102342000Y-83595938D01*
X102434562Y-83819404D01*
X102605595Y-83990437D01*
X102644123Y-84006396D01*
X102644123Y-84275000D01*
X102667407Y-84392054D01*
X102733712Y-84491288D01*
X102832946Y-84557593D01*
X102950000Y-84580877D01*
X104450000Y-84580877D01*
X104567054Y-84557593D01*
X104666288Y-84491288D01*
X104732593Y-84392054D01*
X104755877Y-84275000D01*
X104755877Y-84006396D01*
X104794405Y-83990437D01*
X104965438Y-83819404D01*
X105058000Y-83595938D01*
X105058000Y-83489500D01*
X104906000Y-83337500D01*
X103854000Y-83337500D01*
X103854000Y-83374000D01*
X103546000Y-83374000D01*
X103546000Y-83337500D01*
X102494000Y-83337500D01*
X102342000Y-83489500D01*
X93352992Y-83489500D01*
X93355877Y-83475000D01*
X93355877Y-82925000D01*
X93332593Y-82807946D01*
X93327284Y-82800000D01*
X93332593Y-82792054D01*
X93355877Y-82675000D01*
X93355877Y-82125000D01*
X93332593Y-82007946D01*
X93327284Y-82000000D01*
X93332593Y-81992054D01*
X93355877Y-81875000D01*
X93355877Y-81325000D01*
X93332593Y-81207946D01*
X93327284Y-81200000D01*
X93332593Y-81192054D01*
X93355877Y-81075000D01*
X93355877Y-80525000D01*
X93332593Y-80407946D01*
X93327284Y-80400000D01*
X93332593Y-80392054D01*
X93355877Y-80275000D01*
X93355877Y-79725000D01*
X93332593Y-79607946D01*
X93327284Y-79600000D01*
X93332593Y-79592054D01*
X93355877Y-79475000D01*
X93355877Y-79206396D01*
X93394405Y-79190437D01*
X93565438Y-79019404D01*
X93658000Y-78795938D01*
X93658000Y-78689500D01*
X93506000Y-78537500D01*
X92454000Y-78537500D01*
X92454000Y-78574000D01*
X92146000Y-78574000D01*
X92146000Y-78537500D01*
X91094000Y-78537500D01*
X90942000Y-78689500D01*
X74110767Y-78689500D01*
X74083276Y-78551293D01*
X73829103Y-78170897D01*
X73579418Y-78004062D01*
X90942000Y-78004062D01*
X90942000Y-78110500D01*
X91094000Y-78262500D01*
X92146000Y-78262500D01*
X92146000Y-78226000D01*
X92454000Y-78226000D01*
X92454000Y-78262500D01*
X93506000Y-78262500D01*
X93658000Y-78110500D01*
X93658000Y-78004062D01*
X93565438Y-77780596D01*
X93394405Y-77609563D01*
X93355877Y-77593604D01*
X93355877Y-77325000D01*
X93332593Y-77207946D01*
X93327284Y-77200000D01*
X93332593Y-77192054D01*
X93352992Y-77089500D01*
X102342000Y-77089500D01*
X102342000Y-77195938D01*
X102434562Y-77419404D01*
X102605595Y-77590437D01*
X102644123Y-77606396D01*
X102644123Y-77875000D01*
X102667407Y-77992054D01*
X102672716Y-78000000D01*
X102667407Y-78007946D01*
X102644123Y-78125000D01*
X102644123Y-78675000D01*
X102667407Y-78792054D01*
X102672716Y-78800000D01*
X102667407Y-78807946D01*
X102644123Y-78925000D01*
X102644123Y-79475000D01*
X102667407Y-79592054D01*
X102672716Y-79600000D01*
X102667407Y-79607946D01*
X102644123Y-79725000D01*
X102644123Y-80275000D01*
X102667407Y-80392054D01*
X102672716Y-80400000D01*
X102667407Y-80407946D01*
X102644123Y-80525000D01*
X102644123Y-81075000D01*
X102667407Y-81192054D01*
X102672716Y-81200000D01*
X102667407Y-81207946D01*
X102644123Y-81325000D01*
X102644123Y-81875000D01*
X102667407Y-81992054D01*
X102672716Y-82000000D01*
X102667407Y-82007946D01*
X102644123Y-82125000D01*
X102644123Y-82393604D01*
X102605595Y-82409563D01*
X102434562Y-82580596D01*
X102342000Y-82804062D01*
X102342000Y-82910500D01*
X102494000Y-83062500D01*
X103546000Y-83062500D01*
X103546000Y-83026000D01*
X103854000Y-83026000D01*
X103854000Y-83062500D01*
X104906000Y-83062500D01*
X105058000Y-82910500D01*
X105058000Y-82804062D01*
X104965438Y-82580596D01*
X104934841Y-82549999D01*
X108069123Y-82549999D01*
X108069123Y-83450001D01*
X108111437Y-83662726D01*
X108231935Y-83843065D01*
X108412274Y-83963563D01*
X108624999Y-84005877D01*
X109275001Y-84005877D01*
X109487726Y-83963563D01*
X109668065Y-83843065D01*
X109788563Y-83662726D01*
X109817000Y-83519765D01*
X109817000Y-83820938D01*
X109909562Y-84044404D01*
X110080595Y-84215437D01*
X110304061Y-84308000D01*
X110694000Y-84308000D01*
X110846000Y-84156000D01*
X110846000Y-83154000D01*
X111154000Y-83154000D01*
X111154000Y-84156000D01*
X111306000Y-84308000D01*
X111695939Y-84308000D01*
X111919405Y-84215437D01*
X112090438Y-84044404D01*
X112183000Y-83820938D01*
X112183000Y-83306000D01*
X112031000Y-83154000D01*
X111154000Y-83154000D01*
X110846000Y-83154000D01*
X110826000Y-83154000D01*
X110826000Y-82846000D01*
X110846000Y-82846000D01*
X110846000Y-81844000D01*
X111154000Y-81844000D01*
X111154000Y-82846000D01*
X112031000Y-82846000D01*
X112183000Y-82694000D01*
X112183000Y-82179062D01*
X112090438Y-81955596D01*
X111919405Y-81784563D01*
X111695939Y-81692000D01*
X111306000Y-81692000D01*
X111154000Y-81844000D01*
X110846000Y-81844000D01*
X110694000Y-81692000D01*
X110304061Y-81692000D01*
X110080595Y-81784563D01*
X109909562Y-81955596D01*
X109817000Y-82179062D01*
X109817000Y-82480235D01*
X109788563Y-82337274D01*
X109668065Y-82156935D01*
X109487726Y-82036437D01*
X109275001Y-81994123D01*
X108624999Y-81994123D01*
X108412274Y-82036437D01*
X108231935Y-82156935D01*
X108111437Y-82337274D01*
X108069123Y-82549999D01*
X104934841Y-82549999D01*
X104794405Y-82409563D01*
X104755877Y-82393604D01*
X104755877Y-82125000D01*
X104732593Y-82007946D01*
X104727284Y-82000000D01*
X104732593Y-81992054D01*
X104755877Y-81875000D01*
X104755877Y-81325000D01*
X104732593Y-81207946D01*
X104727284Y-81200000D01*
X104732593Y-81192054D01*
X104755877Y-81075000D01*
X104755877Y-80525000D01*
X104732593Y-80407946D01*
X104727284Y-80400000D01*
X104732593Y-80392054D01*
X104755877Y-80275000D01*
X104755877Y-79725000D01*
X104732593Y-79607946D01*
X104727284Y-79600000D01*
X104732593Y-79592054D01*
X104755877Y-79475000D01*
X104755877Y-78925000D01*
X104732593Y-78807946D01*
X104727284Y-78800000D01*
X104732593Y-78792054D01*
X104755877Y-78675000D01*
X104755877Y-78549999D01*
X108119123Y-78549999D01*
X108119123Y-79450001D01*
X108161437Y-79662726D01*
X108281935Y-79843065D01*
X108462274Y-79963563D01*
X108674999Y-80005877D01*
X109325001Y-80005877D01*
X109537726Y-79963563D01*
X109718065Y-79843065D01*
X109838563Y-79662726D01*
X109867000Y-79519765D01*
X109867000Y-79820938D01*
X109959562Y-80044404D01*
X110130595Y-80215437D01*
X110354061Y-80308000D01*
X110744000Y-80308000D01*
X110896000Y-80156000D01*
X110896000Y-79154000D01*
X111204000Y-79154000D01*
X111204000Y-80156000D01*
X111356000Y-80308000D01*
X111745939Y-80308000D01*
X111885962Y-80250000D01*
X119344123Y-80250000D01*
X119344123Y-83250000D01*
X119367407Y-83367054D01*
X119433712Y-83466288D01*
X119532946Y-83532593D01*
X119650000Y-83555877D01*
X121450000Y-83555877D01*
X121567054Y-83532593D01*
X121666288Y-83466288D01*
X121732593Y-83367054D01*
X121755877Y-83250000D01*
X121755877Y-80250000D01*
X121732593Y-80132946D01*
X121666288Y-80033712D01*
X121567054Y-79967407D01*
X121450000Y-79944123D01*
X119650000Y-79944123D01*
X119532946Y-79967407D01*
X119433712Y-80033712D01*
X119367407Y-80132946D01*
X119344123Y-80250000D01*
X111885962Y-80250000D01*
X111969405Y-80215437D01*
X112140438Y-80044404D01*
X112224743Y-79840870D01*
X122050000Y-79840870D01*
X122050000Y-80159130D01*
X122171793Y-80453164D01*
X122396836Y-80678207D01*
X122690870Y-80800000D01*
X123009130Y-80800000D01*
X123303164Y-80678207D01*
X123528207Y-80453164D01*
X123650000Y-80159130D01*
X123650000Y-79840870D01*
X123528207Y-79546836D01*
X123303164Y-79321793D01*
X123009130Y-79200000D01*
X122690870Y-79200000D01*
X122396836Y-79321793D01*
X122171793Y-79546836D01*
X122050000Y-79840870D01*
X112224743Y-79840870D01*
X112233000Y-79820938D01*
X112233000Y-79306000D01*
X112081000Y-79154000D01*
X111204000Y-79154000D01*
X110896000Y-79154000D01*
X110876000Y-79154000D01*
X110876000Y-78877000D01*
X118042000Y-78877000D01*
X118042000Y-78970939D01*
X118134563Y-79194405D01*
X118305596Y-79365438D01*
X118529062Y-79458000D01*
X119094000Y-79458000D01*
X119246000Y-79306000D01*
X119246000Y-78725000D01*
X119554000Y-78725000D01*
X119554000Y-79306000D01*
X119706000Y-79458000D01*
X120270938Y-79458000D01*
X120494404Y-79365438D01*
X120665437Y-79194405D01*
X120758000Y-78970939D01*
X120758000Y-78877000D01*
X120606000Y-78725000D01*
X119554000Y-78725000D01*
X119246000Y-78725000D01*
X118194000Y-78725000D01*
X118042000Y-78877000D01*
X110876000Y-78877000D01*
X110876000Y-78846000D01*
X110896000Y-78846000D01*
X110896000Y-77844000D01*
X111204000Y-77844000D01*
X111204000Y-78846000D01*
X112081000Y-78846000D01*
X112233000Y-78694000D01*
X112233000Y-78229061D01*
X118042000Y-78229061D01*
X118042000Y-78323000D01*
X118194000Y-78475000D01*
X119246000Y-78475000D01*
X119246000Y-78426000D01*
X119554000Y-78426000D01*
X119554000Y-78475000D01*
X120606000Y-78475000D01*
X120758000Y-78323000D01*
X120758000Y-78229061D01*
X120665437Y-78005595D01*
X120494404Y-77834562D01*
X120455877Y-77818604D01*
X120455877Y-77550000D01*
X120432593Y-77432946D01*
X120410580Y-77400000D01*
X120432593Y-77367054D01*
X120455877Y-77250000D01*
X120455877Y-76750000D01*
X120432593Y-76632946D01*
X120410580Y-76600000D01*
X120432593Y-76567054D01*
X120455877Y-76450000D01*
X120455877Y-75950000D01*
X120432593Y-75832946D01*
X120410580Y-75800000D01*
X120432593Y-75767054D01*
X120455877Y-75650000D01*
X120455877Y-75150000D01*
X120432593Y-75032946D01*
X120366288Y-74933712D01*
X120267054Y-74867407D01*
X120150000Y-74844123D01*
X118650000Y-74844123D01*
X118532946Y-74867407D01*
X118433712Y-74933712D01*
X118367407Y-75032946D01*
X118344123Y-75150000D01*
X118344123Y-75650000D01*
X118367407Y-75767054D01*
X118389420Y-75800000D01*
X118367407Y-75832946D01*
X118344123Y-75950000D01*
X118344123Y-76450000D01*
X118367407Y-76567054D01*
X118389420Y-76600000D01*
X118367407Y-76632946D01*
X118344123Y-76750000D01*
X118344123Y-77250000D01*
X118367407Y-77367054D01*
X118389420Y-77400000D01*
X118367407Y-77432946D01*
X118344123Y-77550000D01*
X118344123Y-77818604D01*
X118305596Y-77834562D01*
X118134563Y-78005595D01*
X118042000Y-78229061D01*
X112233000Y-78229061D01*
X112233000Y-78179062D01*
X112140438Y-77955596D01*
X111969405Y-77784563D01*
X111745939Y-77692000D01*
X111356000Y-77692000D01*
X111204000Y-77844000D01*
X110896000Y-77844000D01*
X110744000Y-77692000D01*
X110354061Y-77692000D01*
X110130595Y-77784563D01*
X109959562Y-77955596D01*
X109867000Y-78179062D01*
X109867000Y-78480235D01*
X109838563Y-78337274D01*
X109718065Y-78156935D01*
X109537726Y-78036437D01*
X109325001Y-77994123D01*
X108674999Y-77994123D01*
X108462274Y-78036437D01*
X108281935Y-78156935D01*
X108161437Y-78337274D01*
X108119123Y-78549999D01*
X104755877Y-78549999D01*
X104755877Y-78125000D01*
X104732593Y-78007946D01*
X104727284Y-78000000D01*
X104732593Y-77992054D01*
X104755877Y-77875000D01*
X104755877Y-77606396D01*
X104794405Y-77590437D01*
X104965438Y-77419404D01*
X105058000Y-77195938D01*
X105058000Y-77089500D01*
X104906000Y-76937500D01*
X103854000Y-76937500D01*
X103854000Y-76974000D01*
X103546000Y-76974000D01*
X103546000Y-76937500D01*
X102494000Y-76937500D01*
X102342000Y-77089500D01*
X93352992Y-77089500D01*
X93355877Y-77075000D01*
X93355877Y-76525000D01*
X93332593Y-76407946D01*
X93329998Y-76404062D01*
X102342000Y-76404062D01*
X102342000Y-76510500D01*
X102494000Y-76662500D01*
X103546000Y-76662500D01*
X103546000Y-76626000D01*
X103854000Y-76626000D01*
X103854000Y-76662500D01*
X104906000Y-76662500D01*
X105058000Y-76510500D01*
X105058000Y-76404062D01*
X104965438Y-76180596D01*
X104794405Y-76009563D01*
X104755877Y-75993604D01*
X104755877Y-75725000D01*
X104732593Y-75607946D01*
X104666288Y-75508712D01*
X104567054Y-75442407D01*
X104450000Y-75419123D01*
X102950000Y-75419123D01*
X102832946Y-75442407D01*
X102733712Y-75508712D01*
X102667407Y-75607946D01*
X102644123Y-75725000D01*
X102644123Y-75993604D01*
X102605595Y-76009563D01*
X102434562Y-76180596D01*
X102342000Y-76404062D01*
X93329998Y-76404062D01*
X93327284Y-76400000D01*
X93332593Y-76392054D01*
X93355877Y-76275000D01*
X93355877Y-75725000D01*
X93332593Y-75607946D01*
X93266288Y-75508712D01*
X93167054Y-75442407D01*
X93050000Y-75419123D01*
X91550000Y-75419123D01*
X91432946Y-75442407D01*
X91333712Y-75508712D01*
X91267407Y-75607946D01*
X91244123Y-75725000D01*
X91244123Y-76275000D01*
X91267407Y-76392054D01*
X91272716Y-76400000D01*
X91267407Y-76407946D01*
X91244123Y-76525000D01*
X91244123Y-77075000D01*
X91267407Y-77192054D01*
X91272716Y-77200000D01*
X91267407Y-77207946D01*
X91244123Y-77325000D01*
X91244123Y-77593604D01*
X91205595Y-77609563D01*
X91034562Y-77780596D01*
X90942000Y-78004062D01*
X73579418Y-78004062D01*
X73448707Y-77916724D01*
X73113261Y-77850000D01*
X72886739Y-77850000D01*
X72551293Y-77916724D01*
X72170897Y-78170897D01*
X71916724Y-78551293D01*
X71827471Y-79000000D01*
X70375000Y-79000000D01*
X70375000Y-76460000D01*
X71827471Y-76460000D01*
X71916724Y-76908707D01*
X72170897Y-77289103D01*
X72551293Y-77543276D01*
X72886739Y-77610000D01*
X73113261Y-77610000D01*
X73448707Y-77543276D01*
X73829103Y-77289103D01*
X74083276Y-76908707D01*
X74172529Y-76460000D01*
X74083276Y-76011293D01*
X73829103Y-75630897D01*
X73448707Y-75376724D01*
X73113261Y-75310000D01*
X72886739Y-75310000D01*
X72551293Y-75376724D01*
X72170897Y-75630897D01*
X71916724Y-76011293D01*
X71827471Y-76460000D01*
X70375000Y-76460000D01*
X70375000Y-73920000D01*
X71827471Y-73920000D01*
X71916724Y-74368707D01*
X72170897Y-74749103D01*
X72551293Y-75003276D01*
X72886739Y-75070000D01*
X73113261Y-75070000D01*
X73448707Y-75003276D01*
X73829103Y-74749103D01*
X74083276Y-74368707D01*
X74172529Y-73920000D01*
X74098932Y-73550000D01*
X93419123Y-73550000D01*
X93419123Y-75050000D01*
X93442407Y-75167054D01*
X93508712Y-75266288D01*
X93607946Y-75332593D01*
X93725000Y-75355877D01*
X94275000Y-75355877D01*
X94392054Y-75332593D01*
X94400000Y-75327284D01*
X94407946Y-75332593D01*
X94525000Y-75355877D01*
X95075000Y-75355877D01*
X95192054Y-75332593D01*
X95200000Y-75327284D01*
X95207946Y-75332593D01*
X95325000Y-75355877D01*
X95875000Y-75355877D01*
X95992054Y-75332593D01*
X96000000Y-75327284D01*
X96007946Y-75332593D01*
X96125000Y-75355877D01*
X96675000Y-75355877D01*
X96792054Y-75332593D01*
X96800000Y-75327284D01*
X96807946Y-75332593D01*
X96925000Y-75355877D01*
X97475000Y-75355877D01*
X97592054Y-75332593D01*
X97600000Y-75327284D01*
X97607946Y-75332593D01*
X97725000Y-75355877D01*
X97993604Y-75355877D01*
X98009563Y-75394405D01*
X98180596Y-75565438D01*
X98404062Y-75658000D01*
X98510500Y-75658000D01*
X98662500Y-75506000D01*
X98662500Y-74454000D01*
X98626000Y-74454000D01*
X98626000Y-74146000D01*
X98662500Y-74146000D01*
X98662500Y-73094000D01*
X98937500Y-73094000D01*
X98937500Y-74146000D01*
X98974000Y-74146000D01*
X98974000Y-74454000D01*
X98937500Y-74454000D01*
X98937500Y-75506000D01*
X99089500Y-75658000D01*
X99195938Y-75658000D01*
X99419404Y-75565438D01*
X99590437Y-75394405D01*
X99606396Y-75355877D01*
X99875000Y-75355877D01*
X99992054Y-75332593D01*
X100000000Y-75327284D01*
X100007946Y-75332593D01*
X100125000Y-75355877D01*
X100675000Y-75355877D01*
X100792054Y-75332593D01*
X100800000Y-75327284D01*
X100807946Y-75332593D01*
X100925000Y-75355877D01*
X101475000Y-75355877D01*
X101592054Y-75332593D01*
X101600000Y-75327284D01*
X101607946Y-75332593D01*
X101725000Y-75355877D01*
X102275000Y-75355877D01*
X102392054Y-75332593D01*
X102491288Y-75266288D01*
X102557593Y-75167054D01*
X102580877Y-75050000D01*
X102580877Y-73550000D01*
X102557593Y-73432946D01*
X102491288Y-73333712D01*
X102392054Y-73267407D01*
X102275000Y-73244123D01*
X101725000Y-73244123D01*
X101607946Y-73267407D01*
X101600000Y-73272716D01*
X101592054Y-73267407D01*
X101475000Y-73244123D01*
X100925000Y-73244123D01*
X100807946Y-73267407D01*
X100800000Y-73272716D01*
X100792054Y-73267407D01*
X100675000Y-73244123D01*
X100125000Y-73244123D01*
X100007946Y-73267407D01*
X100000000Y-73272716D01*
X99992054Y-73267407D01*
X99875000Y-73244123D01*
X99606396Y-73244123D01*
X99590437Y-73205595D01*
X99419404Y-73034562D01*
X99195938Y-72942000D01*
X99089500Y-72942000D01*
X98937500Y-73094000D01*
X98662500Y-73094000D01*
X98510500Y-72942000D01*
X98404062Y-72942000D01*
X98180596Y-73034562D01*
X98009563Y-73205595D01*
X97993604Y-73244123D01*
X97850151Y-73244123D01*
X97919405Y-73215437D01*
X98090438Y-73044404D01*
X98183000Y-72820938D01*
X98183000Y-72306000D01*
X98031000Y-72154000D01*
X97154000Y-72154000D01*
X97154000Y-72174000D01*
X96846000Y-72174000D01*
X96846000Y-72154000D01*
X96826000Y-72154000D01*
X96826000Y-71846000D01*
X96846000Y-71846000D01*
X96846000Y-70844000D01*
X97154000Y-70844000D01*
X97154000Y-71846000D01*
X98031000Y-71846000D01*
X98183000Y-71694000D01*
X98183000Y-71179062D01*
X98090438Y-70955596D01*
X97919405Y-70784563D01*
X97835963Y-70750000D01*
X119344123Y-70750000D01*
X119344123Y-73750000D01*
X119367407Y-73867054D01*
X119433712Y-73966288D01*
X119532946Y-74032593D01*
X119650000Y-74055877D01*
X121450000Y-74055877D01*
X121567054Y-74032593D01*
X121666288Y-73966288D01*
X121732593Y-73867054D01*
X121737801Y-73840870D01*
X122050000Y-73840870D01*
X122050000Y-74159130D01*
X122171793Y-74453164D01*
X122396836Y-74678207D01*
X122690870Y-74800000D01*
X123009130Y-74800000D01*
X123303164Y-74678207D01*
X123528207Y-74453164D01*
X123650000Y-74159130D01*
X123650000Y-73840870D01*
X123528207Y-73546836D01*
X123303164Y-73321793D01*
X123009130Y-73200000D01*
X122690870Y-73200000D01*
X122396836Y-73321793D01*
X122171793Y-73546836D01*
X122050000Y-73840870D01*
X121737801Y-73840870D01*
X121755877Y-73750000D01*
X121755877Y-70750000D01*
X121732593Y-70632946D01*
X121666288Y-70533712D01*
X121567054Y-70467407D01*
X121450000Y-70444123D01*
X119650000Y-70444123D01*
X119532946Y-70467407D01*
X119433712Y-70533712D01*
X119367407Y-70632946D01*
X119344123Y-70750000D01*
X97835963Y-70750000D01*
X97695939Y-70692000D01*
X97306000Y-70692000D01*
X97154000Y-70844000D01*
X96846000Y-70844000D01*
X96694000Y-70692000D01*
X96304061Y-70692000D01*
X96080595Y-70784563D01*
X95909562Y-70955596D01*
X95817000Y-71179062D01*
X95817000Y-71480235D01*
X95788563Y-71337274D01*
X95668065Y-71156935D01*
X95487726Y-71036437D01*
X95275001Y-70994123D01*
X94624999Y-70994123D01*
X94412274Y-71036437D01*
X94231935Y-71156935D01*
X94111437Y-71337274D01*
X94069123Y-71549999D01*
X94069123Y-72450001D01*
X94111437Y-72662726D01*
X94231935Y-72843065D01*
X94412274Y-72963563D01*
X94624999Y-73005877D01*
X95275001Y-73005877D01*
X95487726Y-72963563D01*
X95668065Y-72843065D01*
X95788563Y-72662726D01*
X95817000Y-72519765D01*
X95817000Y-72820938D01*
X95909562Y-73044404D01*
X96080595Y-73215437D01*
X96149849Y-73244123D01*
X96125000Y-73244123D01*
X96007946Y-73267407D01*
X96000000Y-73272716D01*
X95992054Y-73267407D01*
X95875000Y-73244123D01*
X95325000Y-73244123D01*
X95207946Y-73267407D01*
X95200000Y-73272716D01*
X95192054Y-73267407D01*
X95075000Y-73244123D01*
X94525000Y-73244123D01*
X94407946Y-73267407D01*
X94400000Y-73272716D01*
X94392054Y-73267407D01*
X94275000Y-73244123D01*
X93725000Y-73244123D01*
X93607946Y-73267407D01*
X93508712Y-73333712D01*
X93442407Y-73432946D01*
X93419123Y-73550000D01*
X74098932Y-73550000D01*
X74083276Y-73471293D01*
X73829103Y-73090897D01*
X73448707Y-72836724D01*
X73113261Y-72770000D01*
X72886739Y-72770000D01*
X72551293Y-72836724D01*
X72170897Y-73090897D01*
X71916724Y-73471293D01*
X71827471Y-73920000D01*
X70375000Y-73920000D01*
X70375000Y-70530000D01*
X71844123Y-70530000D01*
X71844123Y-72230000D01*
X71867407Y-72347054D01*
X71933712Y-72446288D01*
X72032946Y-72512593D01*
X72150000Y-72535877D01*
X73850000Y-72535877D01*
X73967054Y-72512593D01*
X74066288Y-72446288D01*
X74132593Y-72347054D01*
X74155877Y-72230000D01*
X74155877Y-70530000D01*
X74132593Y-70412946D01*
X74066288Y-70313712D01*
X73967054Y-70247407D01*
X73850000Y-70224123D01*
X72150000Y-70224123D01*
X72032946Y-70247407D01*
X71933712Y-70313712D01*
X71867407Y-70412946D01*
X71844123Y-70530000D01*
X70375000Y-70530000D01*
X70375000Y-67549999D01*
X81069123Y-67549999D01*
X81069123Y-68450001D01*
X81111437Y-68662726D01*
X81231935Y-68843065D01*
X81412274Y-68963563D01*
X81624999Y-69005877D01*
X82275001Y-69005877D01*
X82487726Y-68963563D01*
X82668065Y-68843065D01*
X82788563Y-68662726D01*
X82817000Y-68519765D01*
X82817000Y-68820938D01*
X82909562Y-69044404D01*
X83080595Y-69215437D01*
X83304061Y-69308000D01*
X83694000Y-69308000D01*
X83846000Y-69156000D01*
X83846000Y-68154000D01*
X84154000Y-68154000D01*
X84154000Y-69156000D01*
X84306000Y-69308000D01*
X84695939Y-69308000D01*
X84919405Y-69215437D01*
X85090438Y-69044404D01*
X85183000Y-68820938D01*
X85183000Y-68306000D01*
X85031000Y-68154000D01*
X84154000Y-68154000D01*
X83846000Y-68154000D01*
X83826000Y-68154000D01*
X83826000Y-67846000D01*
X83846000Y-67846000D01*
X83846000Y-66844000D01*
X84154000Y-66844000D01*
X84154000Y-67846000D01*
X85031000Y-67846000D01*
X85183000Y-67694000D01*
X85183000Y-67549999D01*
X87069123Y-67549999D01*
X87069123Y-68450001D01*
X87111437Y-68662726D01*
X87231935Y-68843065D01*
X87412274Y-68963563D01*
X87624999Y-69005877D01*
X88275001Y-69005877D01*
X88487726Y-68963563D01*
X88668065Y-68843065D01*
X88788563Y-68662726D01*
X88817000Y-68519765D01*
X88817000Y-68820938D01*
X88909562Y-69044404D01*
X89080595Y-69215437D01*
X89304061Y-69308000D01*
X89694000Y-69308000D01*
X89846000Y-69156000D01*
X89846000Y-68154000D01*
X90154000Y-68154000D01*
X90154000Y-69156000D01*
X90306000Y-69308000D01*
X90695939Y-69308000D01*
X90919405Y-69215437D01*
X91090438Y-69044404D01*
X91183000Y-68820938D01*
X91183000Y-68306000D01*
X93767000Y-68306000D01*
X93767000Y-68820938D01*
X93859562Y-69044404D01*
X94030595Y-69215437D01*
X94254061Y-69308000D01*
X94644000Y-69308000D01*
X94796000Y-69156000D01*
X94796000Y-68154000D01*
X93919000Y-68154000D01*
X93767000Y-68306000D01*
X91183000Y-68306000D01*
X91031000Y-68154000D01*
X90154000Y-68154000D01*
X89846000Y-68154000D01*
X89826000Y-68154000D01*
X89826000Y-67846000D01*
X89846000Y-67846000D01*
X89846000Y-66844000D01*
X90154000Y-66844000D01*
X90154000Y-67846000D01*
X91031000Y-67846000D01*
X91183000Y-67694000D01*
X91183000Y-67179062D01*
X93767000Y-67179062D01*
X93767000Y-67694000D01*
X93919000Y-67846000D01*
X94796000Y-67846000D01*
X94796000Y-66844000D01*
X95104000Y-66844000D01*
X95104000Y-67846000D01*
X95124000Y-67846000D01*
X95124000Y-68154000D01*
X95104000Y-68154000D01*
X95104000Y-69156000D01*
X95256000Y-69308000D01*
X95645939Y-69308000D01*
X95869405Y-69215437D01*
X96040438Y-69044404D01*
X96133000Y-68820938D01*
X96133000Y-68519765D01*
X96161437Y-68662726D01*
X96281935Y-68843065D01*
X96462274Y-68963563D01*
X96674999Y-69005877D01*
X97325001Y-69005877D01*
X97537726Y-68963563D01*
X97718065Y-68843065D01*
X97838563Y-68662726D01*
X97880877Y-68450001D01*
X97880877Y-67549999D01*
X97838563Y-67337274D01*
X97718065Y-67156935D01*
X97537726Y-67036437D01*
X97325001Y-66994123D01*
X96674999Y-66994123D01*
X96462274Y-67036437D01*
X96281935Y-67156935D01*
X96161437Y-67337274D01*
X96133000Y-67480235D01*
X96133000Y-67179062D01*
X96040438Y-66955596D01*
X95884842Y-66800000D01*
X99744123Y-66800000D01*
X99744123Y-69200000D01*
X99767407Y-69317054D01*
X99833712Y-69416288D01*
X99932946Y-69482593D01*
X100050000Y-69505877D01*
X103550000Y-69505877D01*
X103667054Y-69482593D01*
X103766288Y-69416288D01*
X103832593Y-69317054D01*
X103855877Y-69200000D01*
X103855877Y-66800000D01*
X104944123Y-66800000D01*
X104944123Y-69200000D01*
X104967407Y-69317054D01*
X105033712Y-69416288D01*
X105132946Y-69482593D01*
X105250000Y-69505877D01*
X108750000Y-69505877D01*
X108867054Y-69482593D01*
X108966288Y-69416288D01*
X109032593Y-69317054D01*
X109055877Y-69200000D01*
X109055877Y-66800000D01*
X109032593Y-66682946D01*
X108966288Y-66583712D01*
X108867054Y-66517407D01*
X108750000Y-66494123D01*
X105250000Y-66494123D01*
X105132946Y-66517407D01*
X105033712Y-66583712D01*
X104967407Y-66682946D01*
X104944123Y-66800000D01*
X103855877Y-66800000D01*
X103832593Y-66682946D01*
X103766288Y-66583712D01*
X103667054Y-66517407D01*
X103550000Y-66494123D01*
X100050000Y-66494123D01*
X99932946Y-66517407D01*
X99833712Y-66583712D01*
X99767407Y-66682946D01*
X99744123Y-66800000D01*
X95884842Y-66800000D01*
X95869405Y-66784563D01*
X95645939Y-66692000D01*
X95256000Y-66692000D01*
X95104000Y-66844000D01*
X94796000Y-66844000D01*
X94644000Y-66692000D01*
X94254061Y-66692000D01*
X94030595Y-66784563D01*
X93859562Y-66955596D01*
X93767000Y-67179062D01*
X91183000Y-67179062D01*
X91090438Y-66955596D01*
X90919405Y-66784563D01*
X90695939Y-66692000D01*
X90306000Y-66692000D01*
X90154000Y-66844000D01*
X89846000Y-66844000D01*
X89694000Y-66692000D01*
X89304061Y-66692000D01*
X89080595Y-66784563D01*
X88909562Y-66955596D01*
X88817000Y-67179062D01*
X88817000Y-67480235D01*
X88788563Y-67337274D01*
X88668065Y-67156935D01*
X88487726Y-67036437D01*
X88275001Y-66994123D01*
X87624999Y-66994123D01*
X87412274Y-67036437D01*
X87231935Y-67156935D01*
X87111437Y-67337274D01*
X87069123Y-67549999D01*
X85183000Y-67549999D01*
X85183000Y-67179062D01*
X85090438Y-66955596D01*
X84919405Y-66784563D01*
X84695939Y-66692000D01*
X84306000Y-66692000D01*
X84154000Y-66844000D01*
X83846000Y-66844000D01*
X83694000Y-66692000D01*
X83304061Y-66692000D01*
X83080595Y-66784563D01*
X82909562Y-66955596D01*
X82817000Y-67179062D01*
X82817000Y-67480235D01*
X82788563Y-67337274D01*
X82668065Y-67156935D01*
X82487726Y-67036437D01*
X82275001Y-66994123D01*
X81624999Y-66994123D01*
X81412274Y-67036437D01*
X81231935Y-67156935D01*
X81111437Y-67337274D01*
X81069123Y-67549999D01*
X70375000Y-67549999D01*
X70375000Y-62150000D01*
X82844123Y-62150000D01*
X82844123Y-63850000D01*
X82867407Y-63967054D01*
X82933712Y-64066288D01*
X83032946Y-64132593D01*
X83150000Y-64155877D01*
X84850000Y-64155877D01*
X84967054Y-64132593D01*
X85066288Y-64066288D01*
X85132593Y-63967054D01*
X85155877Y-63850000D01*
X85155877Y-63000000D01*
X85367471Y-63000000D01*
X85456724Y-63448707D01*
X85710897Y-63829103D01*
X86091293Y-64083276D01*
X86426739Y-64150000D01*
X86653261Y-64150000D01*
X86988707Y-64083276D01*
X87369103Y-63829103D01*
X87623276Y-63448707D01*
X87712529Y-63000000D01*
X87907471Y-63000000D01*
X87996724Y-63448707D01*
X88250897Y-63829103D01*
X88631293Y-64083276D01*
X88966739Y-64150000D01*
X89193261Y-64150000D01*
X89528707Y-64083276D01*
X89909103Y-63829103D01*
X90163276Y-63448707D01*
X90252529Y-63000000D01*
X90447471Y-63000000D01*
X90536724Y-63448707D01*
X90790897Y-63829103D01*
X91171293Y-64083276D01*
X91506739Y-64150000D01*
X91733261Y-64150000D01*
X92068707Y-64083276D01*
X92449103Y-63829103D01*
X92703276Y-63448707D01*
X92792529Y-63000000D01*
X92987471Y-63000000D01*
X93076724Y-63448707D01*
X93330897Y-63829103D01*
X93711293Y-64083276D01*
X94046739Y-64150000D01*
X94273261Y-64150000D01*
X94608707Y-64083276D01*
X94989103Y-63829103D01*
X95243276Y-63448707D01*
X95332529Y-63000000D01*
X95527471Y-63000000D01*
X95616724Y-63448707D01*
X95870897Y-63829103D01*
X96251293Y-64083276D01*
X96586739Y-64150000D01*
X96813261Y-64150000D01*
X97148707Y-64083276D01*
X97529103Y-63829103D01*
X97783276Y-63448707D01*
X97872529Y-63000000D01*
X98067471Y-63000000D01*
X98156724Y-63448707D01*
X98410897Y-63829103D01*
X98791293Y-64083276D01*
X99126739Y-64150000D01*
X99353261Y-64150000D01*
X99688707Y-64083276D01*
X100069103Y-63829103D01*
X100323276Y-63448707D01*
X100412529Y-63000000D01*
X100607471Y-63000000D01*
X100696724Y-63448707D01*
X100950897Y-63829103D01*
X101331293Y-64083276D01*
X101666739Y-64150000D01*
X101893261Y-64150000D01*
X102228707Y-64083276D01*
X102609103Y-63829103D01*
X102863276Y-63448707D01*
X102952529Y-63000000D01*
X103147471Y-63000000D01*
X103236724Y-63448707D01*
X103490897Y-63829103D01*
X103871293Y-64083276D01*
X104206739Y-64150000D01*
X104433261Y-64150000D01*
X104768707Y-64083276D01*
X105149103Y-63829103D01*
X105403276Y-63448707D01*
X105492529Y-63000000D01*
X105687471Y-63000000D01*
X105776724Y-63448707D01*
X106030897Y-63829103D01*
X106411293Y-64083276D01*
X106746739Y-64150000D01*
X106973261Y-64150000D01*
X107308707Y-64083276D01*
X107689103Y-63829103D01*
X107943276Y-63448707D01*
X108032529Y-63000000D01*
X107943276Y-62551293D01*
X107689103Y-62170897D01*
X107308707Y-61916724D01*
X106973261Y-61850000D01*
X106746739Y-61850000D01*
X106411293Y-61916724D01*
X106030897Y-62170897D01*
X105776724Y-62551293D01*
X105687471Y-63000000D01*
X105492529Y-63000000D01*
X105403276Y-62551293D01*
X105149103Y-62170897D01*
X104768707Y-61916724D01*
X104433261Y-61850000D01*
X104206739Y-61850000D01*
X103871293Y-61916724D01*
X103490897Y-62170897D01*
X103236724Y-62551293D01*
X103147471Y-63000000D01*
X102952529Y-63000000D01*
X102863276Y-62551293D01*
X102609103Y-62170897D01*
X102228707Y-61916724D01*
X101893261Y-61850000D01*
X101666739Y-61850000D01*
X101331293Y-61916724D01*
X100950897Y-62170897D01*
X100696724Y-62551293D01*
X100607471Y-63000000D01*
X100412529Y-63000000D01*
X100323276Y-62551293D01*
X100069103Y-62170897D01*
X99688707Y-61916724D01*
X99353261Y-61850000D01*
X99126739Y-61850000D01*
X98791293Y-61916724D01*
X98410897Y-62170897D01*
X98156724Y-62551293D01*
X98067471Y-63000000D01*
X97872529Y-63000000D01*
X97783276Y-62551293D01*
X97529103Y-62170897D01*
X97148707Y-61916724D01*
X96813261Y-61850000D01*
X96586739Y-61850000D01*
X96251293Y-61916724D01*
X95870897Y-62170897D01*
X95616724Y-62551293D01*
X95527471Y-63000000D01*
X95332529Y-63000000D01*
X95243276Y-62551293D01*
X94989103Y-62170897D01*
X94608707Y-61916724D01*
X94273261Y-61850000D01*
X94046739Y-61850000D01*
X93711293Y-61916724D01*
X93330897Y-62170897D01*
X93076724Y-62551293D01*
X92987471Y-63000000D01*
X92792529Y-63000000D01*
X92703276Y-62551293D01*
X92449103Y-62170897D01*
X92068707Y-61916724D01*
X91733261Y-61850000D01*
X91506739Y-61850000D01*
X91171293Y-61916724D01*
X90790897Y-62170897D01*
X90536724Y-62551293D01*
X90447471Y-63000000D01*
X90252529Y-63000000D01*
X90163276Y-62551293D01*
X89909103Y-62170897D01*
X89528707Y-61916724D01*
X89193261Y-61850000D01*
X88966739Y-61850000D01*
X88631293Y-61916724D01*
X88250897Y-62170897D01*
X87996724Y-62551293D01*
X87907471Y-63000000D01*
X87712529Y-63000000D01*
X87623276Y-62551293D01*
X87369103Y-62170897D01*
X86988707Y-61916724D01*
X86653261Y-61850000D01*
X86426739Y-61850000D01*
X86091293Y-61916724D01*
X85710897Y-62170897D01*
X85456724Y-62551293D01*
X85367471Y-63000000D01*
X85155877Y-63000000D01*
X85155877Y-62150000D01*
X85132593Y-62032946D01*
X85066288Y-61933712D01*
X84967054Y-61867407D01*
X84850000Y-61844123D01*
X83150000Y-61844123D01*
X83032946Y-61867407D01*
X82933712Y-61933712D01*
X82867407Y-62032946D01*
X82844123Y-62150000D01*
X70375000Y-62150000D01*
X70375000Y-60375000D01*
X124625000Y-60375000D01*
X124625001Y-94625000D01*
G04 #@! TD*
M02*
