G04 #@! TF.GenerationSoftware,KiCad,Pcbnew,5.0.2+dfsg1-1*
G04 #@! TF.CreationDate,2019-09-12T15:21:08-03:00*
G04 #@! TF.ProjectId,projeto1,70726f6a-6574-46f3-912e-6b696361645f,rev?*
G04 #@! TF.SameCoordinates,Original*
G04 #@! TF.FileFunction,Legend,Top*
G04 #@! TF.FilePolarity,Positive*
%FSLAX46Y46*%
G04 Gerber Fmt 4.6, Leading zero omitted, Abs format (unit mm)*
G04 Created by KiCad (PCBNEW 5.0.2+dfsg1-1) date qui 12 set 2019 15:21:08 -03*
%MOMM*%
%LPD*%
G01*
G04 APERTURE LIST*
%ADD10C,0.120000*%
%ADD11C,0.100000*%
%ADD12C,0.150000*%
G04 APERTURE END LIST*
D10*
G04 #@! TO.C,SW1*
X116000000Y-93500000D02*
X120500000Y-93500000D01*
X114750000Y-89500000D02*
X114750000Y-91000000D01*
X120500000Y-87000000D02*
X116000000Y-87000000D01*
X121750000Y-91000000D02*
X121750000Y-89500000D01*
G04 #@! TO.C,C2*
X83710000Y-76763748D02*
X83710000Y-77286252D01*
X82290000Y-76763748D02*
X82290000Y-77286252D01*
G04 #@! TO.C,C3*
X113261252Y-72290000D02*
X112738748Y-72290000D01*
X113261252Y-73710000D02*
X112738748Y-73710000D01*
G04 #@! TO.C,C4*
X82713748Y-67290000D02*
X83236252Y-67290000D01*
X82713748Y-68710000D02*
X83236252Y-68710000D01*
G04 #@! TO.C,C5*
X88710000Y-77286252D02*
X88710000Y-76763748D01*
X87290000Y-77286252D02*
X87290000Y-76763748D01*
G04 #@! TO.C,C6*
X77290000Y-77286252D02*
X77290000Y-76763748D01*
X78710000Y-77286252D02*
X78710000Y-76763748D01*
G04 #@! TO.C,C7*
X113710000Y-77261252D02*
X113710000Y-76738748D01*
X112290000Y-77261252D02*
X112290000Y-76738748D01*
G04 #@! TO.C,C1*
X108713748Y-82290000D02*
X109236252Y-82290000D01*
X108713748Y-83710000D02*
X109236252Y-83710000D01*
G04 #@! TO.C,J4*
X71670000Y-85410000D02*
X74330000Y-85410000D01*
X71670000Y-72650000D02*
X71670000Y-85410000D01*
X74330000Y-72650000D02*
X74330000Y-85410000D01*
X71670000Y-72650000D02*
X74330000Y-72650000D01*
X71670000Y-71380000D02*
X71670000Y-70050000D01*
X71670000Y-70050000D02*
X73000000Y-70050000D01*
G04 #@! TO.C,J3*
X83430000Y-93330000D02*
X83430000Y-92000000D01*
X84760000Y-93330000D02*
X83430000Y-93330000D01*
X86030000Y-93330000D02*
X86030000Y-90670000D01*
X86030000Y-90670000D02*
X108950000Y-90670000D01*
X86030000Y-93330000D02*
X108950000Y-93330000D01*
X108950000Y-93330000D02*
X108950000Y-90670000D01*
G04 #@! TO.C,J2*
X108190000Y-64330000D02*
X108190000Y-61670000D01*
X85270000Y-64330000D02*
X108190000Y-64330000D01*
X85270000Y-61670000D02*
X108190000Y-61670000D01*
X85270000Y-64330000D02*
X85270000Y-61670000D01*
X84000000Y-64330000D02*
X82670000Y-64330000D01*
X82670000Y-64330000D02*
X82670000Y-63000000D01*
D11*
G04 #@! TO.C,J1*
X119850000Y-74950000D02*
X119850000Y-73950000D01*
X118800000Y-74950000D02*
X119850000Y-74950000D01*
X119861461Y-79064476D02*
X119861461Y-80064476D01*
X121650000Y-80950000D02*
X123950000Y-80950000D01*
X123950000Y-80950000D02*
X123950000Y-73050000D01*
X123950000Y-73050000D02*
X121650000Y-73050000D01*
D10*
G04 #@! TO.C,Y1*
X114100000Y-66200000D02*
X106850000Y-66200000D01*
X106850000Y-66200000D02*
X106850000Y-69800000D01*
X106850000Y-69800000D02*
X114100000Y-69800000D01*
D12*
G04 #@! TO.C,U1*
X103175000Y-74825000D02*
X102600000Y-74825000D01*
X103175000Y-85175000D02*
X102500000Y-85175000D01*
X92825000Y-85175000D02*
X93500000Y-85175000D01*
X92825000Y-74825000D02*
X93500000Y-74825000D01*
X103175000Y-74825000D02*
X103175000Y-75500000D01*
X92825000Y-74825000D02*
X92825000Y-75500000D01*
X92825000Y-85175000D02*
X92825000Y-84500000D01*
X103175000Y-85175000D02*
X103175000Y-84500000D01*
X102600000Y-74825000D02*
X102600000Y-73550000D01*
D10*
G04 #@! TO.C,R3*
X110114564Y-87910000D02*
X108910436Y-87910000D01*
X110114564Y-86090000D02*
X108910436Y-86090000D01*
G04 #@! TO.C,R1*
X112885436Y-82910000D02*
X114089564Y-82910000D01*
X112885436Y-81090000D02*
X114089564Y-81090000D01*
G04 #@! TO.C,R2*
X108910000Y-76910436D02*
X108910000Y-78114564D01*
X107090000Y-76910436D02*
X107090000Y-78114564D01*
G04 #@! TO.C,SW1*
D12*
X113666666Y-85404761D02*
X113809523Y-85452380D01*
X114047619Y-85452380D01*
X114142857Y-85404761D01*
X114190476Y-85357142D01*
X114238095Y-85261904D01*
X114238095Y-85166666D01*
X114190476Y-85071428D01*
X114142857Y-85023809D01*
X114047619Y-84976190D01*
X113857142Y-84928571D01*
X113761904Y-84880952D01*
X113714285Y-84833333D01*
X113666666Y-84738095D01*
X113666666Y-84642857D01*
X113714285Y-84547619D01*
X113761904Y-84500000D01*
X113857142Y-84452380D01*
X114095238Y-84452380D01*
X114238095Y-84500000D01*
X114571428Y-84452380D02*
X114809523Y-85452380D01*
X115000000Y-84738095D01*
X115190476Y-85452380D01*
X115428571Y-84452380D01*
X116333333Y-85452380D02*
X115761904Y-85452380D01*
X116047619Y-85452380D02*
X116047619Y-84452380D01*
X115952380Y-84595238D01*
X115857142Y-84690476D01*
X115761904Y-84738095D01*
G04 #@! TO.C,C2*
X85007142Y-77191666D02*
X85054761Y-77239285D01*
X85102380Y-77382142D01*
X85102380Y-77477380D01*
X85054761Y-77620238D01*
X84959523Y-77715476D01*
X84864285Y-77763095D01*
X84673809Y-77810714D01*
X84530952Y-77810714D01*
X84340476Y-77763095D01*
X84245238Y-77715476D01*
X84150000Y-77620238D01*
X84102380Y-77477380D01*
X84102380Y-77382142D01*
X84150000Y-77239285D01*
X84197619Y-77191666D01*
X84197619Y-76810714D02*
X84150000Y-76763095D01*
X84102380Y-76667857D01*
X84102380Y-76429761D01*
X84150000Y-76334523D01*
X84197619Y-76286904D01*
X84292857Y-76239285D01*
X84388095Y-76239285D01*
X84530952Y-76286904D01*
X85102380Y-76858333D01*
X85102380Y-76239285D01*
G04 #@! TO.C,C3*
X112833333Y-75007142D02*
X112785714Y-75054761D01*
X112642857Y-75102380D01*
X112547619Y-75102380D01*
X112404761Y-75054761D01*
X112309523Y-74959523D01*
X112261904Y-74864285D01*
X112214285Y-74673809D01*
X112214285Y-74530952D01*
X112261904Y-74340476D01*
X112309523Y-74245238D01*
X112404761Y-74150000D01*
X112547619Y-74102380D01*
X112642857Y-74102380D01*
X112785714Y-74150000D01*
X112833333Y-74197619D01*
X113166666Y-74102380D02*
X113785714Y-74102380D01*
X113452380Y-74483333D01*
X113595238Y-74483333D01*
X113690476Y-74530952D01*
X113738095Y-74578571D01*
X113785714Y-74673809D01*
X113785714Y-74911904D01*
X113738095Y-75007142D01*
X113690476Y-75054761D01*
X113595238Y-75102380D01*
X113309523Y-75102380D01*
X113214285Y-75054761D01*
X113166666Y-75007142D01*
G04 #@! TO.C,C4*
X82808333Y-66707142D02*
X82760714Y-66754761D01*
X82617857Y-66802380D01*
X82522619Y-66802380D01*
X82379761Y-66754761D01*
X82284523Y-66659523D01*
X82236904Y-66564285D01*
X82189285Y-66373809D01*
X82189285Y-66230952D01*
X82236904Y-66040476D01*
X82284523Y-65945238D01*
X82379761Y-65850000D01*
X82522619Y-65802380D01*
X82617857Y-65802380D01*
X82760714Y-65850000D01*
X82808333Y-65897619D01*
X83665476Y-66135714D02*
X83665476Y-66802380D01*
X83427380Y-65754761D02*
X83189285Y-66469047D01*
X83808333Y-66469047D01*
G04 #@! TO.C,C5*
X86707142Y-77191666D02*
X86754761Y-77239285D01*
X86802380Y-77382142D01*
X86802380Y-77477380D01*
X86754761Y-77620238D01*
X86659523Y-77715476D01*
X86564285Y-77763095D01*
X86373809Y-77810714D01*
X86230952Y-77810714D01*
X86040476Y-77763095D01*
X85945238Y-77715476D01*
X85850000Y-77620238D01*
X85802380Y-77477380D01*
X85802380Y-77382142D01*
X85850000Y-77239285D01*
X85897619Y-77191666D01*
X85802380Y-76286904D02*
X85802380Y-76763095D01*
X86278571Y-76810714D01*
X86230952Y-76763095D01*
X86183333Y-76667857D01*
X86183333Y-76429761D01*
X86230952Y-76334523D01*
X86278571Y-76286904D01*
X86373809Y-76239285D01*
X86611904Y-76239285D01*
X86707142Y-76286904D01*
X86754761Y-76334523D01*
X86802380Y-76429761D01*
X86802380Y-76667857D01*
X86754761Y-76763095D01*
X86707142Y-76810714D01*
G04 #@! TO.C,C6*
X76707142Y-77191666D02*
X76754761Y-77239285D01*
X76802380Y-77382142D01*
X76802380Y-77477380D01*
X76754761Y-77620238D01*
X76659523Y-77715476D01*
X76564285Y-77763095D01*
X76373809Y-77810714D01*
X76230952Y-77810714D01*
X76040476Y-77763095D01*
X75945238Y-77715476D01*
X75850000Y-77620238D01*
X75802380Y-77477380D01*
X75802380Y-77382142D01*
X75850000Y-77239285D01*
X75897619Y-77191666D01*
X75802380Y-76334523D02*
X75802380Y-76525000D01*
X75850000Y-76620238D01*
X75897619Y-76667857D01*
X76040476Y-76763095D01*
X76230952Y-76810714D01*
X76611904Y-76810714D01*
X76707142Y-76763095D01*
X76754761Y-76715476D01*
X76802380Y-76620238D01*
X76802380Y-76429761D01*
X76754761Y-76334523D01*
X76707142Y-76286904D01*
X76611904Y-76239285D01*
X76373809Y-76239285D01*
X76278571Y-76286904D01*
X76230952Y-76334523D01*
X76183333Y-76429761D01*
X76183333Y-76620238D01*
X76230952Y-76715476D01*
X76278571Y-76763095D01*
X76373809Y-76810714D01*
G04 #@! TO.C,C7*
X111707142Y-77166666D02*
X111754761Y-77214285D01*
X111802380Y-77357142D01*
X111802380Y-77452380D01*
X111754761Y-77595238D01*
X111659523Y-77690476D01*
X111564285Y-77738095D01*
X111373809Y-77785714D01*
X111230952Y-77785714D01*
X111040476Y-77738095D01*
X110945238Y-77690476D01*
X110850000Y-77595238D01*
X110802380Y-77452380D01*
X110802380Y-77357142D01*
X110850000Y-77214285D01*
X110897619Y-77166666D01*
X110802380Y-76833333D02*
X110802380Y-76166666D01*
X111802380Y-76595238D01*
G04 #@! TO.C,C1*
X108808333Y-81707142D02*
X108760714Y-81754761D01*
X108617857Y-81802380D01*
X108522619Y-81802380D01*
X108379761Y-81754761D01*
X108284523Y-81659523D01*
X108236904Y-81564285D01*
X108189285Y-81373809D01*
X108189285Y-81230952D01*
X108236904Y-81040476D01*
X108284523Y-80945238D01*
X108379761Y-80850000D01*
X108522619Y-80802380D01*
X108617857Y-80802380D01*
X108760714Y-80850000D01*
X108808333Y-80897619D01*
X109760714Y-81802380D02*
X109189285Y-81802380D01*
X109475000Y-81802380D02*
X109475000Y-80802380D01*
X109379761Y-80945238D01*
X109284523Y-81040476D01*
X109189285Y-81088095D01*
G04 #@! TO.C,J4*
X72666666Y-68502380D02*
X72666666Y-69216666D01*
X72619047Y-69359523D01*
X72523809Y-69454761D01*
X72380952Y-69502380D01*
X72285714Y-69502380D01*
X73571428Y-68835714D02*
X73571428Y-69502380D01*
X73333333Y-68454761D02*
X73095238Y-69169047D01*
X73714285Y-69169047D01*
G04 #@! TO.C,J3*
X81882380Y-92333333D02*
X82596666Y-92333333D01*
X82739523Y-92380952D01*
X82834761Y-92476190D01*
X82882380Y-92619047D01*
X82882380Y-92714285D01*
X81882380Y-91952380D02*
X81882380Y-91333333D01*
X82263333Y-91666666D01*
X82263333Y-91523809D01*
X82310952Y-91428571D01*
X82358571Y-91380952D01*
X82453809Y-91333333D01*
X82691904Y-91333333D01*
X82787142Y-91380952D01*
X82834761Y-91428571D01*
X82882380Y-91523809D01*
X82882380Y-91809523D01*
X82834761Y-91904761D01*
X82787142Y-91952380D01*
G04 #@! TO.C,J2*
X81122380Y-63333333D02*
X81836666Y-63333333D01*
X81979523Y-63380952D01*
X82074761Y-63476190D01*
X82122380Y-63619047D01*
X82122380Y-63714285D01*
X81217619Y-62904761D02*
X81170000Y-62857142D01*
X81122380Y-62761904D01*
X81122380Y-62523809D01*
X81170000Y-62428571D01*
X81217619Y-62380952D01*
X81312857Y-62333333D01*
X81408095Y-62333333D01*
X81550952Y-62380952D01*
X82122380Y-62952380D01*
X82122380Y-62333333D01*
G04 #@! TO.C,J1*
X116452380Y-81723333D02*
X117166666Y-81723333D01*
X117309523Y-81770952D01*
X117404761Y-81866190D01*
X117452380Y-82009047D01*
X117452380Y-82104285D01*
X117452380Y-80723333D02*
X117452380Y-81294761D01*
X117452380Y-81009047D02*
X116452380Y-81009047D01*
X116595238Y-81104285D01*
X116690476Y-81199523D01*
X116738095Y-81294761D01*
G04 #@! TO.C,Y1*
X110923809Y-65176190D02*
X110923809Y-65652380D01*
X110590476Y-64652380D02*
X110923809Y-65176190D01*
X111257142Y-64652380D01*
X112114285Y-65652380D02*
X111542857Y-65652380D01*
X111828571Y-65652380D02*
X111828571Y-64652380D01*
X111733333Y-64795238D01*
X111638095Y-64890476D01*
X111542857Y-64938095D01*
G04 #@! TO.C,U1*
X104902380Y-80761904D02*
X105711904Y-80761904D01*
X105807142Y-80714285D01*
X105854761Y-80666666D01*
X105902380Y-80571428D01*
X105902380Y-80380952D01*
X105854761Y-80285714D01*
X105807142Y-80238095D01*
X105711904Y-80190476D01*
X104902380Y-80190476D01*
X105902380Y-79190476D02*
X105902380Y-79761904D01*
X105902380Y-79476190D02*
X104902380Y-79476190D01*
X105045238Y-79571428D01*
X105140476Y-79666666D01*
X105188095Y-79761904D01*
G04 #@! TO.C,R3*
X109345833Y-89272380D02*
X109012500Y-88796190D01*
X108774404Y-89272380D02*
X108774404Y-88272380D01*
X109155357Y-88272380D01*
X109250595Y-88320000D01*
X109298214Y-88367619D01*
X109345833Y-88462857D01*
X109345833Y-88605714D01*
X109298214Y-88700952D01*
X109250595Y-88748571D01*
X109155357Y-88796190D01*
X108774404Y-88796190D01*
X109679166Y-88272380D02*
X110298214Y-88272380D01*
X109964880Y-88653333D01*
X110107738Y-88653333D01*
X110202976Y-88700952D01*
X110250595Y-88748571D01*
X110298214Y-88843809D01*
X110298214Y-89081904D01*
X110250595Y-89177142D01*
X110202976Y-89224761D01*
X110107738Y-89272380D01*
X109822023Y-89272380D01*
X109726785Y-89224761D01*
X109679166Y-89177142D01*
G04 #@! TO.C,R1*
X113320833Y-80632380D02*
X112987500Y-80156190D01*
X112749404Y-80632380D02*
X112749404Y-79632380D01*
X113130357Y-79632380D01*
X113225595Y-79680000D01*
X113273214Y-79727619D01*
X113320833Y-79822857D01*
X113320833Y-79965714D01*
X113273214Y-80060952D01*
X113225595Y-80108571D01*
X113130357Y-80156190D01*
X112749404Y-80156190D01*
X114273214Y-80632380D02*
X113701785Y-80632380D01*
X113987500Y-80632380D02*
X113987500Y-79632380D01*
X113892261Y-79775238D01*
X113797023Y-79870476D01*
X113701785Y-79918095D01*
G04 #@! TO.C,R2*
X110272380Y-77679166D02*
X109796190Y-78012500D01*
X110272380Y-78250595D02*
X109272380Y-78250595D01*
X109272380Y-77869642D01*
X109320000Y-77774404D01*
X109367619Y-77726785D01*
X109462857Y-77679166D01*
X109605714Y-77679166D01*
X109700952Y-77726785D01*
X109748571Y-77774404D01*
X109796190Y-77869642D01*
X109796190Y-78250595D01*
X109367619Y-77298214D02*
X109320000Y-77250595D01*
X109272380Y-77155357D01*
X109272380Y-76917261D01*
X109320000Y-76822023D01*
X109367619Y-76774404D01*
X109462857Y-76726785D01*
X109558095Y-76726785D01*
X109700952Y-76774404D01*
X110272380Y-77345833D01*
X110272380Y-76726785D01*
G04 #@! TD*
M02*
